<?xml version="1.0" encoding="utf-8"?>
<!-- Generator: Adobe Illustrator 16.0.0, SVG Export Plug-In . SVG Version: 6.00 Build 0)  -->
<!DOCTYPE svg PUBLIC "-//W3C//DTD SVG 1.1//EN" "http://www.w3.org/Graphics/SVG/1.1/DTD/svg11.dtd">
<svg version="1.1" id="Layer_1" xmlns="http://www.w3.org/2000/svg" xmlns:xlink="http://www.w3.org/1999/xlink" x="0px" y="0px"
	 width="207px" height="117px" viewBox="0 0 207 117" enable-background="new 0 0 207 117" xml:space="preserve">
<g>
	<path fill-rule="evenodd" clip-rule="evenodd" fill="#FFFFFF" d="M148.05,46.85c0,0.967-0.05,1.95-0.149,2.95L147.1,60.65
		c-0.066,1.267-0.25,2.25-0.55,2.949c-0.267,0.7-0.717,1.051-1.35,1.051c-0.667,0-1.134-0.334-1.4-1
		c-0.233-0.667-0.416-1.684-0.55-3.051l-0.55-10.55c-0.134-2.033-0.2-3.5-0.2-4.4c0-1.2,0.267-2.15,0.8-2.85
		c0.533-0.667,1.233-1,2.101-1c1.066,0,1.767,0.434,2.1,1.3C147.866,43.967,148.05,45.217,148.05,46.85z M136,45.5v25.35
		c0,2.834-0.967,4.25-2.9,4.25c-0.5,0-0.949-0.083-1.35-0.25c-0.366-0.166-0.733-0.433-1.1-0.8c-0.334-0.366-0.65-0.8-0.95-1.3
		c-0.267-0.5-0.55-1-0.851-1.5L118.65,52.5v18.85c0,1.233-0.233,2.167-0.7,2.801c-0.467,0.633-1.066,0.949-1.8,0.949
		c-0.767,0-1.384-0.316-1.851-0.949c-0.467-0.634-0.7-1.567-0.7-2.801V46.5c0-1.033,0.101-1.85,0.301-2.45
		c0.233-0.667,0.616-1.2,1.149-1.6c0.533-0.434,1.101-0.65,1.7-0.65c0.5,0,0.934,0.083,1.3,0.25c0.334,0.2,0.634,0.467,0.9,0.8
		c0.267,0.333,0.533,0.75,0.8,1.25s0.55,1.033,0.85,1.6l10.4,19V45.5c0-1.233,0.233-2.15,0.7-2.75c0.434-0.633,1.033-0.95,1.8-0.95
		s1.384,0.317,1.85,0.95C135.783,43.35,136,44.267,136,45.5z M87.95,43.85c0.2-0.567,0.533-0.967,1-1.2c0.466-0.2,1.2-0.3,2.2-0.3
		h1.7c1.033,0,1.85,0.25,2.45,0.75c0.6,0.467,0.9,1.4,0.9,2.8v25.5c0,1.233-0.217,2.166-0.65,2.8c-0.466,0.6-1.083,0.899-1.85,0.899
		c-0.733,0-1.333-0.3-1.8-0.899c-0.467-0.634-0.7-1.566-0.7-2.8V49.15L86.95,69.7c-0.3,1.333-0.534,2.316-0.7,2.95
		c-0.167,0.6-0.5,1.166-1,1.699c-0.467,0.5-1.117,0.75-1.95,0.75c-0.633,0-1.167-0.166-1.6-0.5c-0.434-0.333-0.784-0.75-1.05-1.25
		c-0.233-0.533-0.417-1.1-0.55-1.699c-0.133-0.634-0.283-1.284-0.45-1.95l-4.3-20.55V71.4c0,1.233-0.217,2.166-0.65,2.8
		c-0.467,0.6-1.083,0.899-1.85,0.899c-0.733,0-1.317-0.3-1.75-0.899c-0.467-0.601-0.7-1.533-0.7-2.8V45.9c0-1.4,0.3-2.333,0.9-2.8
		c0.6-0.5,1.417-0.75,2.45-0.75h1.7c1,0,1.733,0.1,2.2,0.3c0.467,0.233,0.8,0.633,1,1.2c0.233,0.566,0.483,1.5,0.75,2.8l3.9,17.65
		l3.9-17.65C87.467,45.35,87.717,44.417,87.95,43.85z M102.8,42.8c0.5-0.667,1.15-1,1.95-1s1.45,0.333,1.95,1
		c0.5,0.633,0.75,1.617,0.75,2.95V71.1c0,1.334-0.25,2.334-0.75,3c-0.5,0.667-1.15,1-1.95,1s-1.45-0.333-1.95-1
		c-0.5-0.666-0.75-1.666-0.75-3V45.75C102.05,44.417,102.3,43.433,102.8,42.8z M108.15,3l95.25,55.05L108.15,113V91.1H3V24.9h105.15
		V3z M115.45,16.25V32.9H11.5v50.2h103.95v16.7l69.5-41.75L115.45,16.25z M147.2,74.2c-0.533,0.566-1.167,0.85-1.9,0.85
		s-1.383-0.283-1.95-0.85c-0.566-0.601-0.85-1.417-0.85-2.45c0-0.9,0.267-1.667,0.8-2.3c0.533-0.634,1.184-0.95,1.95-0.95
		s1.434,0.316,2,0.95c0.533,0.633,0.8,1.399,0.8,2.3C148.05,72.783,147.767,73.6,147.2,74.2z M53.4,42.35
		c1.833,0,3.417,0.2,4.75,0.6c1.3,0.4,2.483,1.167,3.55,2.3c2.8,2.867,4.2,7.233,4.2,13.1c0,1.933-0.15,3.7-0.45,5.3
		c-0.267,1.6-0.684,3.05-1.25,4.35c-0.6,1.267-1.35,2.4-2.25,3.4c-0.733,0.767-1.534,1.399-2.4,1.899
		c-0.833,0.467-1.733,0.783-2.7,0.95c-1,0.2-2.117,0.3-3.35,0.3h-7.05c-1,0-1.75-0.184-2.25-0.55s-0.817-0.866-0.95-1.5
		C43.083,71.833,43,70.983,43,69.95v-23.6c0-1.4,0.267-2.417,0.8-3.05c0.534-0.633,1.383-0.95,2.55-0.95H53.4z M52,47.5h-3.55v21.85
		h4.1c0.9,0,1.6-0.017,2.1-0.05c0.533-0.066,1.067-0.217,1.6-0.45s1-0.566,1.4-1c1.833-1.833,2.75-5.017,2.75-9.55
		c0-3.167-0.4-5.55-1.2-7.15c-0.8-1.566-1.784-2.566-2.95-3C55.083,47.717,53.667,47.5,52,47.5z M31.2,47.9l6.95,20.75
		C38.717,70.25,39,71.4,39,72.1c0,0.767-0.25,1.467-0.75,2.101c-0.533,0.6-1.167,0.899-1.9,0.899c-0.434,0-0.8-0.083-1.1-0.25
		c-0.3-0.199-0.55-0.449-0.75-0.75c-0.233-0.333-0.467-0.816-0.7-1.449c-0.233-0.667-0.433-1.25-0.6-1.75l-1.3-4.051H21.05L19.75,71
		c-0.5,1.6-0.917,2.684-1.25,3.25c-0.367,0.566-0.95,0.85-1.75,0.85c-0.667,0-1.267-0.3-1.8-0.899c-0.534-0.601-0.8-1.283-0.8-2.05
		c0-0.434,0.067-0.884,0.2-1.351c0.1-0.467,0.3-1.116,0.6-1.95L21.8,47.9c0.2-0.6,0.434-1.316,0.7-2.15s0.567-1.533,0.9-2.1
		c0.3-0.566,0.7-1.017,1.2-1.35c0.5-0.333,1.117-0.5,1.85-0.5c0.767,0,1.4,0.167,1.9,0.5c0.5,0.333,0.917,0.784,1.25,1.35
		c0.3,0.533,0.55,1.117,0.75,1.75C30.583,46,30.867,46.833,31.2,47.9z M30.45,61.95l-4-13.3l-4,13.3H30.45z"/>
	<path fill-rule="evenodd" clip-rule="evenodd" fill="#FF9900" d="M102.8,42.8c-0.5,0.633-0.75,1.617-0.75,2.95V71.1
		c0,1.334,0.25,2.334,0.75,3c0.5,0.667,1.15,1,1.95,1s1.45-0.333,1.95-1c0.5-0.666,0.75-1.666,0.75-3V45.75
		c0-1.333-0.25-2.317-0.75-2.95c-0.5-0.667-1.15-1-1.95-1S103.3,42.133,102.8,42.8z M87.95,43.85c-0.233,0.566-0.483,1.5-0.75,2.8
		L83.3,64.3l-3.9-17.65c-0.267-1.3-0.517-2.233-0.75-2.8c-0.2-0.567-0.533-0.967-1-1.2c-0.467-0.2-1.2-0.3-2.2-0.3h-1.7
		c-1.033,0-1.85,0.25-2.45,0.75c-0.6,0.467-0.9,1.4-0.9,2.8v25.5c0,1.267,0.233,2.199,0.7,2.8c0.433,0.6,1.017,0.899,1.75,0.899
		c0.767,0,1.383-0.3,1.85-0.899c0.433-0.634,0.65-1.566,0.65-2.8V49.15l4.3,20.55c0.167,0.666,0.317,1.316,0.45,1.95
		c0.133,0.6,0.316,1.166,0.55,1.699c0.267,0.5,0.617,0.917,1.05,1.25c0.433,0.334,0.966,0.5,1.6,0.5c0.833,0,1.483-0.25,1.95-0.75
		c0.5-0.533,0.833-1.1,1-1.699c0.167-0.634,0.4-1.617,0.7-2.95l4.25-20.55V71.4c0,1.233,0.233,2.166,0.7,2.8
		c0.467,0.6,1.067,0.899,1.8,0.899c0.767,0,1.383-0.3,1.85-0.899c0.434-0.634,0.65-1.566,0.65-2.8V45.9c0-1.4-0.3-2.333-0.9-2.8
		c-0.6-0.5-1.417-0.75-2.45-0.75h-1.7c-1,0-1.733,0.1-2.2,0.3C88.483,42.883,88.15,43.283,87.95,43.85z M136,45.5
		c0-1.233-0.217-2.15-0.65-2.75c-0.466-0.633-1.083-0.95-1.85-0.95s-1.366,0.317-1.8,0.95c-0.467,0.6-0.7,1.517-0.7,2.75v19.2
		l-10.4-19c-0.3-0.567-0.583-1.1-0.85-1.6s-0.533-0.917-0.8-1.25c-0.267-0.333-0.566-0.6-0.9-0.8c-0.366-0.167-0.8-0.25-1.3-0.25
		c-0.6,0-1.167,0.217-1.7,0.65c-0.533,0.4-0.916,0.933-1.149,1.6c-0.2,0.6-0.301,1.417-0.301,2.45v24.85
		c0,1.233,0.233,2.167,0.7,2.801c0.467,0.633,1.084,0.949,1.851,0.949c0.733,0,1.333-0.316,1.8-0.949
		c0.467-0.634,0.7-1.567,0.7-2.801V52.5l10.199,18.75c0.301,0.5,0.584,1,0.851,1.5c0.3,0.5,0.616,0.934,0.95,1.3
		c0.366,0.367,0.733,0.634,1.1,0.8c0.4,0.167,0.85,0.25,1.35,0.25c1.934,0,2.9-1.416,2.9-4.25V45.5z M148.05,46.85
		c0-1.633-0.184-2.883-0.55-3.75c-0.333-0.867-1.033-1.3-2.1-1.3c-0.867,0-1.567,0.333-2.101,1c-0.533,0.7-0.8,1.65-0.8,2.85
		c0,0.9,0.066,2.367,0.2,4.4l0.55,10.55c0.134,1.367,0.316,2.384,0.55,3.051c0.267,0.666,0.733,1,1.4,1
		c0.633,0,1.083-0.351,1.35-1.051c0.3-0.699,0.483-1.683,0.55-2.949L147.9,49.8C148,48.8,148.05,47.817,148.05,46.85z M115.45,16.25
		l69.5,41.8l-69.5,41.75V83.1H11.5V32.9h103.95V16.25z M30.45,61.95h-8l4-13.3L30.45,61.95z M31.2,47.9
		c-0.333-1.066-0.617-1.9-0.85-2.5c-0.2-0.633-0.45-1.217-0.75-1.75c-0.333-0.566-0.75-1.017-1.25-1.35
		c-0.5-0.333-1.133-0.5-1.9-0.5c-0.733,0-1.35,0.167-1.85,0.5c-0.5,0.333-0.9,0.784-1.2,1.35c-0.333,0.567-0.633,1.267-0.9,2.1
		S22,47.3,21.8,47.9l-6.85,20.95c-0.3,0.834-0.5,1.483-0.6,1.95c-0.133,0.467-0.2,0.917-0.2,1.351c0,0.767,0.267,1.449,0.8,2.05
		c0.533,0.6,1.133,0.899,1.8,0.899c0.8,0,1.383-0.283,1.75-0.85c0.333-0.566,0.75-1.65,1.25-3.25l1.3-4.15H31.9l1.3,4.051
		c0.167,0.5,0.367,1.083,0.6,1.75c0.233,0.633,0.467,1.116,0.7,1.449c0.2,0.301,0.45,0.551,0.75,0.75c0.3,0.167,0.667,0.25,1.1,0.25
		c0.733,0,1.367-0.3,1.9-0.899C38.75,73.566,39,72.866,39,72.1c0-0.699-0.283-1.85-0.85-3.449L31.2,47.9z M52,47.5
		c1.667,0,3.083,0.217,4.25,0.65c1.167,0.434,2.15,1.434,2.95,3c0.8,1.6,1.2,3.983,1.2,7.15c0,4.533-0.917,7.717-2.75,9.55
		c-0.4,0.434-0.867,0.767-1.4,1s-1.067,0.384-1.6,0.45c-0.5,0.033-1.2,0.05-2.1,0.05h-4.1V47.5H52z M53.4,42.35h-7.05
		c-1.167,0-2.017,0.316-2.55,0.95c-0.533,0.633-0.8,1.65-0.8,3.05v23.6c0,1.033,0.083,1.883,0.25,2.55
		c0.133,0.634,0.45,1.134,0.95,1.5s1.25,0.55,2.25,0.55h7.05c1.233,0,2.35-0.1,3.35-0.3c0.967-0.167,1.867-0.483,2.7-0.95
		c0.867-0.5,1.667-1.133,2.4-1.899c0.9-1,1.65-2.134,2.25-3.4c0.566-1.3,0.983-2.75,1.25-4.35c0.3-1.601,0.45-3.367,0.45-5.3
		c0-5.867-1.4-10.233-4.2-13.1c-1.067-1.133-2.25-1.9-3.55-2.3C56.817,42.55,55.233,42.35,53.4,42.35z M147.2,74.2
		c0.566-0.601,0.85-1.417,0.85-2.45c0-0.9-0.267-1.667-0.8-2.3c-0.566-0.634-1.233-0.95-2-0.95s-1.417,0.316-1.95,0.95
		c-0.533,0.633-0.8,1.399-0.8,2.3c0,1.033,0.283,1.85,0.85,2.45c0.567,0.566,1.217,0.85,1.95,0.85S146.667,74.767,147.2,74.2z"/>
	
		<path fill-rule="evenodd" clip-rule="evenodd" fill="none" stroke="#FF6501" stroke-width="5" stroke-linecap="round" stroke-linejoin="round" stroke-miterlimit="3" d="
		M108.15,3l95.25,55.05L108.15,113V91.1H3V24.9h105.15V3z M115.45,16.25l69.5,41.8l-69.5,41.75V83.1H11.5V32.9h103.95V16.25z"/>
</g>
</svg>
