<?xml version="1.0" encoding="utf-8"?>
<!-- Generator: Adobe Illustrator 16.0.0, SVG Export Plug-In . SVG Version: 6.00 Build 0)  -->
<!DOCTYPE svg PUBLIC "-//W3C//DTD SVG 1.1//EN" "http://www.w3.org/Graphics/SVG/1.1/DTD/svg11.dtd">
<svg version="1.1" id="Layer_1" xmlns="http://www.w3.org/2000/svg" xmlns:xlink="http://www.w3.org/1999/xlink" x="0px" y="0px"
	 width="143px" height="113px" viewBox="0 0 143 113" enable-background="new 0 0 143 113" xml:space="preserve">
<g>
	<g>
		<polygon fill-rule="evenodd" clip-rule="evenodd" fill="#000016" points="135.9,22.95 138.25,25 140.15,27.75 141.4,30.9 
			142.15,34.5 142.3,40.45 132.65,48.1 135.45,51.4 135.45,54.9 129.3,59.5 131.35,67.85 101.6,99.1 99.7,98.95 85.25,111.65 
			79.55,110.3 76.95,110.15 74.6,109.65 72.5,108.75 70.55,107.6 67.35,104.55 65.05,100.6 63.65,96.1 62.9,91.2 62.9,88.7 
			63.4,83.7 63.9,81.25 66.8,77.15 65.15,75.45 64,73.65 63.25,71.9 62.9,70.05 62.85,68.1 63.9,61.25 59.25,55.35 46.5,62.8 
			42,61.65 38.15,60.1 30.5,55.95 20,62.4 18.15,62.8 16.45,62.9 14.7,62.65 11.4,61.45 8.4,59.45 5.65,56.7 2.4,51.85 0.9,48.35 
			0,44.9 1.3,35.8 3.55,33.05 14.65,27.15 14.65,24.25 60.9,3.6 61.75,3.65 63.55,3.95 66.5,4.95 69.3,6.45 71.7,8.3 72.8,9.6 
			73.2,10.3 73.4,11.05 96.4,0.05 100.2,0.85 103.3,2 104.6,2.7 105.7,3.5 106.7,4.45 107.5,5.45 108.8,7.8 109.75,12.45 
			109.6,18.5 104.9,23 111.15,30.35 127,21 131.05,21.15 134.35,22.15 		"/>
	</g>
	<g>
		<polygon fill-rule="evenodd" clip-rule="evenodd" fill="#1E3030" points="123.75,54.8 125.95,61.75 128,71.55 103.95,96.6 
			103.9,94.2 103.1,87.9 101.35,82.6 98.8,77.85 96.7,74.8 86.3,62.45 83.6,59.85 80.2,57.45 108,39.5 114.25,41.95 117.2,44.1 
			118.6,45.45 120.9,48.75 		"/>
	</g>
	<g>
		<polygon fill-rule="evenodd" clip-rule="evenodd" fill="#1E3030" points="86.05,71.35 86.95,71.9 92.1,76.65 92.8,77.45 93.4,78 
			96.9,82.55 98.15,84.8 99.05,87.2 99.65,89.75 99.8,99.4 94.9,103.45 94.8,94.65 93.75,89.4 92.8,86.95 90.2,82.3 86.7,78.65 
			82.55,75.35 81.35,74.65 		"/>
	</g>
	<g>
		<polygon fill-rule="evenodd" clip-rule="evenodd" fill="#1E3030" points="133.3,21.65 136,23 138.25,25 139.25,26.25 
			140.85,28.95 141.95,32.05 142.65,36.95 142.45,40.15 127.5,51.7 126.75,48.7 125.05,44.3 121.85,38.95 117.45,34.2 113.4,31.4 
			113.55,31.25 128.3,22 129.9,21.2 130.2,21.1 		"/>
	</g>
	<g>
		<polygon fill-rule="evenodd" clip-rule="evenodd" fill="#1E3030" points="104.6,20.3 105.2,23.25 106.75,25.75 109.85,28.95 
			105.35,31.7 102.25,28.55 101,24.75 99.95,19.65 99.5,18.35 104.55,15.65 		"/>
	</g>
	<g>
		<polygon fill-rule="evenodd" clip-rule="evenodd" fill="#1E3030" points="94.6,22.65 95.4,24.5 96.7,29.4 97.55,31.05 98.9,32.75 
			101,34.65 97.7,37 95.55,33.65 90.5,23.45 89.85,22.75 93.3,20.6 		"/>
	</g>
	<g>
		<polygon fill-rule="evenodd" clip-rule="evenodd" fill="#1E3030" points="85.1,26.75 87.55,29.2 71.6,37.85 68.4,36.2 		"/>
	</g>
	<g>
		<polygon fill-rule="evenodd" clip-rule="evenodd" fill="#1E3030" points="89.2,34.15 94.55,40.75 78.55,51 73.2,44.9 		"/>
	</g>
	<g>
		<polygon fill-rule="evenodd" clip-rule="evenodd" fill="#1E3030" points="63.05,59.95 60.15,54.55 62.25,53.35 64.3,50.6 
			63.85,46.1 66.3,48.1 72.4,55 		"/>
	</g>
	<g>
		<polygon fill-rule="evenodd" clip-rule="evenodd" fill="#1E3030" points="67.8,60.35 70.45,59.8 73,59.75 74.2,59.95 76.5,60.65 
			78.7,61.95 79.7,62.8 82.65,66.1 65.3,78.75 62.6,70.55 62.4,68.75 62.45,66.9 63.5,62.4 		"/>
	</g>
	<g>
		<polygon fill-rule="evenodd" clip-rule="evenodd" fill="#60605B" points="51.15,47.45 50.65,45.8 50.5,44.55 50.75,43.6 
			51.4,42.95 52.45,42.65 54.05,42.75 56.05,43.15 58.5,45.65 59.5,46.9 60.75,48.95 61.05,49.9 60.95,50.85 60.65,51.7 59.95,52.7 
			58.95,53.8 55.8,52.65 55.05,52.25 54.35,51.75 52.05,49.35 		"/>
	</g>
	<g>
		<polygon fill-rule="evenodd" clip-rule="evenodd" fill="#1E3030" points="32,31.25 39.2,39.45 43.55,46.1 45.75,50.75 
			46.55,53.05 47.3,57.35 47.05,59.35 46.5,61.15 45.45,62.8 44.2,62.8 40.85,62.3 37.2,60.75 34.65,58.85 30.35,54.55 36.45,49.75 
			36.9,46.45 36.4,42.15 33.95,34.85 		"/>
	</g>
	<g>
		<polygon fill-rule="evenodd" clip-rule="evenodd" fill="#1E3030" points="24.6,37.15 23.45,35.85 19.25,32.25 15.75,30.35 
			22.15,27.95 29.1,32.5 31.85,36.5 32.75,38.5 33.65,42.75 34,49.75 28.35,53.8 28.7,50.05 28.5,46.45 27.7,43.1 26.4,40 		"/>
	</g>
	<g>
		<polygon fill-rule="evenodd" clip-rule="evenodd" fill="#1E3030" points="61.1,7.15 57,6.4 62.9,3.85 67.8,5.8 68.8,6.3 
			71.25,8.15 72.65,9.7 73.8,11.6 75.6,16.7 72.25,19.3 72.05,17.9 71.2,15.4 70.6,14.25 69.05,12.1 67.1,10.3 63.7,8.15 		"/>
	</g>
	<g>
		<polygon fill-rule="evenodd" clip-rule="evenodd" fill="#1E3030" points="122.9,42.95 125.85,48.85 128.1,56.3 128.3,57.85 
			126.1,58.95 126,57.45 125.15,54.05 124.35,52.2 121.1,46.45 116.55,41.1 112.95,38.05 111.1,36.85 107.2,35.15 105.25,34.7 
			111.15,32.25 114.5,33.75 117.6,36.2 121.7,41.1 		"/>
	</g>
	<g>
		<polygon fill-rule="evenodd" clip-rule="evenodd" fill="#1E3030" points="59.25,8.15 60.1,8.55 61.05,8.8 64.55,10.6 66.8,12.4 
			67.45,13.1 68.95,15.4 69.3,16.3 41.35,33.35 39.5,31.1 36.85,28.6 32.2,25.8 25.15,22.8 57.45,7.75 		"/>
	</g>
	<g>
		<polygon fill-rule="evenodd" clip-rule="evenodd" fill="#1E3030" points="108.5,8.9 109.45,12.85 109.8,16.9 104.35,19.95 
			104.35,13.2 100.65,11.1 94.1,15.65 88.75,15.65 75.8,11.95 98.15,0 101.25,1.05 102.6,1.7 104.85,3.45 106.65,5.45 107.95,7.65 
					"/>
	</g>
	<g>
		<polygon fill-rule="evenodd" clip-rule="evenodd" fill="#423F47" points="116.55,43.95 120.4,48.6 123.55,54 97.7,74.95 86.05,61 
			113.55,41.6 		"/>
	</g>
	<g>
		<polygon fill-rule="evenodd" clip-rule="evenodd" fill="#423F47" points="59.75,8.45 60.95,8.6 62.1,8.95 63.25,9.55 65.15,11.05 
			67.25,13.2 39.15,30.45 34.25,26.75 31.8,25.4 28.7,24.25 		"/>
	</g>
	<g>
		<polygon fill-rule="evenodd" clip-rule="evenodd" fill="#423F47" points="95.7,80.95 96.6,82.05 98,84.55 99.85,90.7 95.3,94.2 
			93.1,86.9 90.85,82.65 94.6,79.9 		"/>
	</g>
	<g>
		<polygon fill-rule="evenodd" clip-rule="evenodd" fill="#423F47" points="33.9,43.6 28.4,47.6 26.55,40.6 24.45,36.5 29.2,32.85 
			31.65,36.7 32.3,38 33.3,40.65 		"/>
	</g>
	<g>
		<polygon fill-rule="evenodd" clip-rule="evenodd" fill="#423F47" points="68,5.75 70.9,7.65 72.4,9.25 73,10.25 73.4,11.4 
			73.65,12.75 71.2,15.2 69.8,12.9 67.3,10.1 65.65,8.6 64.9,8.05 		"/>
	</g>
	<g>
		<polygon fill-rule="evenodd" clip-rule="evenodd" fill="#423F47" points="123.4,43.95 123.75,45.55 121.7,47.7 120.95,46.3 
			118.45,43.15 112.6,37.5 111.75,36.8 114.9,34.05 118.8,37.5 121.55,40.65 		"/>
	</g>
	<g>
		<polygon fill-rule="evenodd" clip-rule="evenodd" fill="#423F47" points="141.7,32.4 125.3,45.4 123.5,41.1 120.1,36.4 
			137.15,24.45 139.1,26.3 140.2,27.95 		"/>
	</g>
	<g>
		<polygon fill-rule="evenodd" clip-rule="evenodd" fill="#423F47" points="108.6,9.05 108.8,9.9 103.55,14.4 99.65,13.55 
			95.7,15.15 93.75,15.55 91.05,15.7 88.7,15.5 84.15,14.2 104.05,3.1 107.5,7.15 108.15,8.1 		"/>
	</g>
	<g>
		<polygon fill-rule="evenodd" clip-rule="evenodd" fill="#4F5966" points="117.8,44.55 119.75,47.1 121.75,51.5 95.55,72.15 
			88.5,64.25 117,43.95 		"/>
	</g>
	<g>
		<polygon fill-rule="evenodd" clip-rule="evenodd" fill="#4F5966" points="62.05,9.1 65.85,11.6 36.6,27.95 31.05,25.15 		"/>
	</g>
	<g>
		<polygon fill-rule="evenodd" clip-rule="evenodd" fill="#4F5966" points="93.15,85.95 96.85,83.15 98.35,86.7 94.6,89.65 		"/>
	</g>
	<g>
		<polygon fill-rule="evenodd" clip-rule="evenodd" fill="#4F5966" points="26.9,40.85 32,37.5 32.95,40 27.9,43.6 		"/>
	</g>
	<g>
		<polygon fill-rule="evenodd" clip-rule="evenodd" fill="#4F5966" points="67,10.1 70.85,7.8 73,10.05 69.6,12.35 		"/>
	</g>
	<g>
		<polygon fill-rule="evenodd" clip-rule="evenodd" fill="#4F5966" points="117.8,36.5 121.85,41.6 118.95,43.75 114.1,39.15 		"/>
	</g>
	<g>
		<polygon fill-rule="evenodd" clip-rule="evenodd" fill="#4F5966" points="129.3,33.25 139.2,26.45 141.2,29.7 131.7,37.5 		"/>
	</g>
	<g>
		<polygon fill-rule="evenodd" clip-rule="evenodd" fill="#4F5966" points="108.45,8.55 102,12.7 100.35,12.4 98,13.7 97.35,11.9 
			107.05,6.45 		"/>
	</g>
	<g>
		<polygon fill-rule="evenodd" clip-rule="evenodd" fill="#423F47" points="91.85,24.65 94.4,22.95 95.4,26.75 95.75,27.75 
			96.75,29.85 98.35,32 95.85,34.5 93.9,32.2 93.3,31.1 92.5,28.9 		"/>
	</g>
	<g>
		<polygon fill-rule="evenodd" clip-rule="evenodd" fill="#423F47" points="102.4,28.25 100.85,24.25 100.15,21.6 104.25,19.2 
			104.95,22.75 106.25,25.4 		"/>
	</g>
	<g>
		<polygon fill-rule="evenodd" clip-rule="evenodd" fill="#1E3030" points="70.05,75.85 73.7,76.3 76.3,77.1 76.3,80.4 74.05,79.5 
			70.75,78.8 69.8,78.75 68.95,79.1 68.25,79.65 67.6,80.4 67,81.4 65.35,87.5 66.1,96.5 66.85,99 68.1,101.4 69.75,103.6 
			72.05,105.85 74.95,108 75.3,108.05 75.6,108.2 75.95,108.25 76.3,108.4 76.3,111 76,110.9 75.5,110.8 75.3,110.7 73,109.85 
			70.9,108.55 68.95,106.85 67.3,104.75 64.55,99.8 62.9,94.2 62.4,88.5 62.6,85.75 63.2,83.15 64.05,80.9 65.35,78.8 67,77.15 
			69.05,75.85 		"/>
	</g>
	<g>
		<polygon fill-rule="evenodd" clip-rule="evenodd" fill="#1E3030" points="76.3,80.4 76.3,77.1 78.75,78.3 82,80.8 84.75,84.2 
			87.05,88.2 89.7,96.3 89.75,102.7 89.25,106 88.85,107.35 87.6,109.55 86.75,110.4 85.75,111.05 84.6,111.5 83.3,111.8 
			80.2,111.8 76.3,111 76.3,108.4 78.55,109 80.55,109.2 82.35,109.05 83.85,108.4 85.1,107.25 86.1,105.55 86.75,103.1 87.2,99.95 
			86.15,93.85 84.25,88.35 82.8,85.9 81.05,83.7 78.9,81.9 		"/>
	</g>
	<g>
		<polygon fill-rule="evenodd" clip-rule="evenodd" fill="#1E3030" points="7.45,31.6 11.4,32.4 12.1,32.7 12.1,35.55 10.9,35.05 
			7.25,34.2 6.45,34.15 5.7,34.4 5.05,34.9 4.5,35.55 3.6,37.5 3.2,38.7 2.55,41.8 2.75,47.3 3.2,49.7 3.9,51.9 4.9,53.9 
			6.45,55.85 10.95,59.65 11.25,59.75 11.55,59.8 11.85,59.95 12.1,60 12.1,62.25 11.9,62.15 11.7,62.1 11.5,62.1 11.25,62 
			9.45,61.45 7.8,60.45 4.9,57.8 3.75,56.05 1.75,52.25 0.3,47.3 0,41.95 0.45,38.65 1.6,35.7 2.4,34.4 4.5,32.35 5.8,31.6 		"/>
	</g>
	<g>
		<polygon fill-rule="evenodd" clip-rule="evenodd" fill="#1E3030" points="12.1,32.7 14.3,33.75 16.25,35.15 19.55,38.85 
			22.15,43.75 23.95,49.55 24.1,53.35 23.6,57.95 22.65,60.15 22.05,61 21.35,61.75 20.4,62.3 18.25,62.95 16.95,63.05 12.1,62.25 
			12.1,60 15.85,60.75 17.45,60.6 18.75,60 19.9,59.1 20.75,57.6 21.35,55.4 21.7,52.7 21.35,50.05 20.05,44.95 19.05,42.6 
			17.8,40.45 16.3,38.5 14.45,36.85 12.1,35.55 		"/>
	</g>
	<g>
		<polygon fill-rule="evenodd" clip-rule="evenodd" fill="#4F5966" points="100.8,23.6 104.4,21.45 105.25,24 101.45,25.75 		"/>
	</g>
	<g>
		<polygon fill-rule="evenodd" clip-rule="evenodd" fill="#4F5966" points="93.25,29.2 95.55,27.9 96.25,29.85 93.9,31.55 		"/>
	</g>
	<g>
		<polygon fill-rule="evenodd" clip-rule="evenodd" fill="#60605B" points="37.55,39.35 39.85,44.6 41.3,50.05 41.35,52.75 41,55.5 
			40.05,58.1 38.35,60.65 34.45,58.15 30.85,55.2 34.4,51.2 35.3,49.75 35.9,48.35 36.2,44.95 35.8,39.35 32.95,33.05 		"/>
	</g>
	<g>
		<polygon fill-rule="evenodd" clip-rule="evenodd" fill="#60605B" points="70.6,59.95 77.15,60.65 80.55,63.6 75,63.1 73.4,63.1 
			70.6,63.6 68.3,64.6 66.5,66.3 65.3,68.75 64.5,72.05 64.3,76.2 63.35,74 62.25,70 62.05,68.2 62.1,66.55 62.4,65.1 62.9,63.8 
			63.7,62.75 64.65,61.8 65.8,61.1 67.25,60.5 		"/>
	</g>
	<g>
		<polygon fill-rule="evenodd" clip-rule="evenodd" fill="#423F47" points="68.6,76.65 70.85,76.3 73.05,76.5 75.45,77.2 76.6,77.7 
			81.15,80.8 84.25,84.1 85.6,86.1 88.35,92.5 86.15,92.95 84,86.7 79.25,81.65 76,79.45 73.85,78.5 72.7,78.3 70.55,78.3 
			69.4,78.5 67.3,79.65 65.8,82.45 64.7,86.75 63.1,86.6 63.4,84.6 64.4,81.25 65.65,78.8 66.95,77.35 		"/>
	</g>
	<g>
		<polygon fill-rule="evenodd" clip-rule="evenodd" fill="#423F47" points="0.75,37.65 1.8,35.65 4.2,32.75 5.15,32.4 7.15,32.05 
			8.15,32.05 9.15,32.2 12.25,33.25 15.35,35.2 19.05,38.95 19.9,40.1 21,42.15 21.25,42.95 22.7,46.45 20.75,46.8 18.9,41.85 
			16,38.35 13.5,36.15 12.55,35.55 10.7,34.65 9.65,34.35 8.65,34.2 6.45,34.25 4.05,35 2.75,38.05 2.1,41.35 0.55,41.35 0.4,40 
			0.45,38.8 		"/>
	</g>
	<g>
		<polygon fill-rule="evenodd" clip-rule="evenodd" fill="#423F47" points="73.65,110.3 72.65,109.35 74,107.9 75.6,108.85 
			78.2,109.8 81.8,110 84.15,108.75 85.9,107.35 86.95,105.7 87.55,103.8 87.75,101.9 87.7,99.65 86.95,94.95 84.65,88.5 
			86.45,87.25 89.4,94.5 89.85,97.6 89.75,103.2 89.25,105.6 88.4,107.85 87.25,109.7 85.65,111.15 83.7,112.2 82.35,112.3 
			79.35,112.2 76.3,111.55 		"/>
	</g>
	<g>
		<polygon fill-rule="evenodd" clip-rule="evenodd" fill="#4F5966" points="70.2,77.85 68.6,78.25 67.9,78.65 66.45,79.95 
			64.55,83.25 64.85,81.3 65.45,79.75 66.3,78.45 67.45,77.6 68.9,77 70.6,76.85 72.55,77 74.8,77.5 78.9,80 74,78.35 71.05,77.8 		
			"/>
	</g>
	<g>
		<polygon fill-rule="evenodd" clip-rule="evenodd" fill="#4F5966" points="3.2,34 4.2,33.2 5.4,32.7 6.95,32.55 8.65,32.6 
			10.7,33.05 14.35,35.35 10.05,33.85 7.35,33.4 6.6,33.4 5.2,33.75 4.5,34.15 3.25,35.3 2.7,36.05 1.6,38.15 1.9,36.4 2.4,35.05 		
			"/>
	</g>
	<g>
		<polygon fill-rule="evenodd" clip-rule="evenodd" fill="#4F5966" points="76.45,110.65 80,110.7 82.65,110.15 83.35,109.8 
			84.75,108.85 85.9,107.6 86.45,106.85 88.75,102.7 87.75,107.4 86.55,109 85.25,110.2 83.95,111.05 82.5,111.5 81.15,111.7 
			79.6,111.55 		"/>
	</g>
	<g>
		<polygon fill-rule="evenodd" clip-rule="evenodd" fill="#1E3030" points="135.1,55.05 129.6,59.65 128.75,56 135.35,51.55 		"/>
	</g>
	<g>
		<polygon fill-rule="evenodd" clip-rule="evenodd" fill="#1E3030" points="56.7,43.5 54.7,42.75 58.75,40.85 61.7,43.3 63.65,47.1 
			63.65,49.9 59.75,53.15 60.3,49.75 58.8,46.3 		"/>
	</g>
	<g>
		<polygon fill-rule="evenodd" clip-rule="evenodd" fill="#423F47" points="63.65,48.1 60.05,50.55 58.8,46.3 57.7,44 61.05,42.5 
			62.85,44.8 		"/>
	</g>
	<g>
		<polygon fill-rule="evenodd" clip-rule="evenodd" fill="#4F5966" points="58.8,45.6 62.05,43.8 63.05,45.8 59.5,47.6 		"/>
	</g>
	<g>
		<polygon fill-rule="evenodd" clip-rule="evenodd" fill="#6B7F93" points="63.55,9.75 64.5,10.6 34.6,27.05 33,26.3 63.4,9.75 		
			"/>
	</g>
	<g>
		<polygon fill-rule="evenodd" clip-rule="evenodd" fill="#002D2D" points="69.1,16.15 69.4,15.9 71.2,20.2 42.75,36.5 41.1,32.4 
			41.35,32.2 		"/>
	</g>
	<g>
		<polygon fill-rule="evenodd" clip-rule="evenodd" fill="#002D2D" points="53.35,8.1 57.5,8.1 26.4,23.5 20.85,23.5 15.3,24.3 
			23.65,21.2 		"/>
	</g>
	<g>
		<polygon fill-rule="evenodd" clip-rule="evenodd" fill="#6B7F93" points="118.5,46.25 118.95,46.75 120.1,48.7 93.75,69.7 
			91,66.3 		"/>
	</g>
	<g>
		<polygon fill-rule="evenodd" clip-rule="evenodd" fill="#006882" points="94.1,21.85 94.15,21.95 93.95,22.15 91.35,23.6 
			87.95,21.2 85.25,21.2 82.15,21.85 79.7,21.85 76.3,21.2 79.4,20.15 82.8,20.5 85.5,19.5 88.6,18.8 91.35,19.5 		"/>
	</g>
	<g>
		<polygon fill-rule="evenodd" clip-rule="evenodd" fill="#006882" points="76.25,12.1 73.65,10.95 94.25,0.3 98.65,0.3 		"/>
	</g>
	<g>
		<polygon fill-rule="evenodd" clip-rule="evenodd" fill="#000016" points="86.75,4.35 89.5,5.15 92.8,6.6 94.6,7.75 96.85,10.05 
			98.65,13.1 100.3,17.35 99.5,18.7 97.75,14 95.85,10.95 95.1,10.2 93.45,8.95 91.5,7.95 84.9,5.25 		"/>
	</g>
	<g>
		<polygon fill-rule="evenodd" clip-rule="evenodd" fill="#006882" points="102.15,14.4 103.05,15.05 104.05,16.05 99.55,18.45 
			99,17.9 98.5,17.65 98.15,17.35 97.7,17.2 96.85,17.05 95.45,17.05 90.15,17.55 89.25,17.55 88.5,17.65 81.5,17.4 77.3,16.4 
			80.75,14.7 90.2,16 92.75,16.05 99.8,14.2 100.6,14.05 101.35,14.05 		"/>
	</g>
	<g>
		<polygon fill-rule="evenodd" clip-rule="evenodd" fill="#006882" points="125.95,21.15 129.95,21.15 113.35,31.6 110.9,30.85 		
			"/>
	</g>
	<g>
		<polygon fill-rule="evenodd" clip-rule="evenodd" fill="#000016" points="128.75,32.85 131.2,36.4 134.6,45.95 133.65,47.55 
			130.55,39.35 129.75,37.7 127,33.35 124.85,31.1 122.4,29.45 119.6,28.3 118,27.9 116.3,27.7 118.5,26.65 124.85,28.95 		"/>
	</g>
	<g>
		<polygon fill-rule="evenodd" clip-rule="evenodd" fill="#003066" points="69.75,84.05 70.9,82.95 72.25,82.25 73.8,82.05 
			75.35,82.25 77,82.95 78.55,84.05 79.9,85.45 81.2,87.2 82.3,89.2 83.15,91.4 83.95,96.15 83.85,98.35 83.5,100.3 82.85,102.1 
			81.9,103.55 80.75,104.6 79.4,105.35 77.9,105.55 76.3,105.35 74.7,104.6 73.2,103.55 71.75,102.1 69.45,98.35 68,93.8 
			67.75,91.4 67.8,89.2 68.15,87.2 68.8,85.45 		"/>
	</g>
	<g>
		<polygon fill-rule="evenodd" clip-rule="evenodd" fill="#003366" points="70.05,84.45 71.1,83.4 72.4,82.75 73.85,82.55 
			75.35,82.75 76.9,83.4 78.3,84.45 79.7,85.85 80.9,87.5 81.9,89.35 82.7,91.5 83.45,95.95 83.1,99.95 82.45,101.6 81.55,102.95 
			80.5,103.95 79.2,104.6 77.75,104.85 76.25,104.6 74.7,103.95 73.3,102.95 70.75,99.95 68.95,95.95 68.4,93.7 68.15,91.5 
			68.55,87.5 69.15,85.85 		"/>
	</g>
	<g>
		<polygon fill-rule="evenodd" clip-rule="evenodd" fill="#00386B" points="71.35,83.95 72.55,83.3 73.95,83.1 75.35,83.3 
			76.8,83.95 78.2,84.9 80.55,87.75 82.3,91.5 82.8,93.65 82.95,97.75 82.65,99.5 82,101.1 81.2,102.4 80.2,103.3 78.95,103.95 
			77.6,104.2 76.15,103.95 74.7,103.3 73.35,102.4 70.95,99.5 69.25,95.8 68.75,93.65 68.6,89.55 68.9,87.75 69.45,86.2 70.35,84.9 
					"/>
	</g>
	<g>
		<polygon fill-rule="evenodd" clip-rule="evenodd" fill="#003D6B" points="71.55,84.4 72.7,83.8 74,83.6 75.35,83.8 76.75,84.4 
			78.05,85.3 79.2,86.55 81.2,89.7 82.35,93.55 82.55,95.6 82.5,97.45 82.2,99.15 81.65,100.6 80.85,101.8 79.9,102.75 78.75,103.3 
			77.45,103.55 76.1,103.3 74.8,102.75 73.5,101.8 72.25,100.6 71.2,99.15 69.6,95.6 69.1,93.55 68.9,91.55 68.95,89.7 69.25,88.05 
			69.8,86.55 70.6,85.3 		"/>
	</g>
	<g>
		<polygon fill-rule="evenodd" clip-rule="evenodd" fill="#004270" points="71.75,84.9 72.85,84.4 74.05,84.2 75.35,84.4 76.6,84.9 
			77.8,85.75 78.9,86.9 80.75,89.9 81.5,91.7 82.15,95.45 81.8,98.75 80.55,101.3 79.6,102.15 78.55,102.7 77.3,102.9 76,102.7 
			74.8,102.15 73.55,101.3 72.5,100.15 70.6,97.15 69.9,95.45 69.45,93.55 69.25,91.7 69.3,89.9 69.6,88.35 70.1,86.9 70.85,85.75 
					"/>
	</g>
	<g>
		<polygon fill-rule="evenodd" clip-rule="evenodd" fill="#004470" points="71.1,86.25 72,85.45 73,84.9 74.15,84.75 75.35,84.9 
			76.5,85.45 77.6,86.25 78.7,87.35 79.6,88.6 81.05,91.8 81.5,93.5 81.7,95.2 81.65,96.85 81.35,98.35 80.85,99.65 80.2,100.75 
			79.35,101.55 78.3,102.1 77.15,102.25 75.95,102.1 74.8,101.55 73.7,100.75 72.65,99.65 71.7,98.35 70.25,95.2 69.8,93.5 
			69.6,91.8 69.95,88.6 70.45,87.35 		"/>
	</g>
	<g>
		<polygon fill-rule="evenodd" clip-rule="evenodd" fill="#004972" points="71.4,86.6 72.2,85.9 73.15,85.4 74.2,85.25 75.3,85.4 
			76.45,85.9 77.45,86.6 78.45,87.6 79.35,88.85 80.65,91.8 81.05,93.45 81.2,96.6 80.5,99.25 79.85,100.25 79.05,100.95 
			78.1,101.45 77,101.6 75.95,101.45 74.8,100.95 73.8,100.25 72.8,99.25 71.9,98 70.6,95.1 70.2,93.45 70.05,90.25 70.75,87.6 		
			"/>
	</g>
	<g>
		<polygon fill-rule="evenodd" clip-rule="evenodd" fill="#004F75" points="72.4,86.4 73.3,85.95 74.3,85.85 75.3,85.95 76.3,86.4 
			77.3,87.1 78.2,88.05 79.7,90.4 80.65,93.35 80.75,94.85 80.5,97.6 80.05,98.65 79.45,99.6 78.75,100.3 77.9,100.75 76.9,100.9 
			75.85,100.75 74.85,100.3 73.85,99.6 72.9,98.65 72.15,97.6 70.9,94.85 70.55,93.35 70.4,90.4 70.7,89.1 71.1,88.05 71.7,87.1 		
			"/>
	</g>
	<g>
		<polygon fill-rule="evenodd" clip-rule="evenodd" fill="#005477" points="74.3,86.4 75.2,86.55 76.25,86.95 77.1,87.55 
			77.95,88.4 78.7,89.4 79.35,90.65 80.1,93.3 80.25,96 80.05,97.15 79.6,98.25 79.1,99.1 78.45,99.65 77.6,100.1 76.75,100.25 
			75.8,100.1 73.95,99.1 73.15,98.25 72.35,97.15 71.75,96 70.9,93.3 70.75,91.9 71.05,89.4 71.4,88.4 71.9,87.55 72.65,86.95 
			73.4,86.55 		"/>
	</g>
	<g>
		<polygon fill-rule="evenodd" clip-rule="evenodd" fill="#005677" points="74.35,86.9 75.2,87.05 76.1,87.4 76.95,88 77.65,88.75 
			78.9,90.75 79.4,92 79.85,94.55 79.85,95.7 79.6,96.8 79.25,97.75 78.75,98.5 78.1,99.1 77.4,99.45 76.6,99.6 75.75,99.45 
			74.85,99.1 74.05,98.5 73.3,97.75 72.05,95.7 71.55,94.55 71.1,92 71.2,90.75 71.7,88.75 72.2,88 72.85,87.4 73.55,87.05 		"/>
	</g>
	<g>
		<polygon fill-rule="evenodd" clip-rule="evenodd" fill="#005B7C" points="77.4,89.1 78.05,90 78.95,92.05 79.25,93.2 79.4,94.35 
			79.2,96.45 78.85,97.25 78.4,97.95 77.8,98.5 77.15,98.8 76.45,98.95 75.65,98.8 74.85,98.5 74.15,97.95 72.85,96.45 71.9,94.35 
			71.6,93.2 71.5,92.05 71.7,90 72.05,89.1 73.05,87.9 73.7,87.6 74.45,87.5 75.2,87.6 76,87.9 		"/>
	</g>
	<g>
		<polygon fill-rule="evenodd" clip-rule="evenodd" fill="#00607C" points="77.75,90.25 78.2,91.15 78.85,93.15 78.95,94.2 
			78.9,95.15 78.75,96 78.45,96.8 78.05,97.45 76.95,98.25 76.3,98.3 75.6,98.25 74.2,97.45 73.05,96 72.25,94.2 71.85,92.15 
			72.05,90.25 72.35,89.55 72.8,88.9 73.85,88.1 74.5,88.05 75.2,88.1 76.6,88.9 		"/>
	</g>
	<g>
		<polygon fill-rule="evenodd" clip-rule="evenodd" fill="#006682" points="76.95,89.9 77.45,90.55 78.2,92.2 78.4,93.05 
			78.45,94.85 78.3,95.6 78.05,96.3 77.25,97.25 76.75,97.5 76.15,97.6 75.5,97.5 74.95,97.25 73.8,96.3 73.3,95.6 72.55,94 
			72.35,93.05 72.25,91.35 72.4,90.55 72.7,89.9 73.05,89.35 73.5,88.9 74,88.6 74.6,88.55 75.2,88.6 75.8,88.9 76.4,89.35 		"/>
	</g>
	<g>
		<polygon fill-rule="evenodd" clip-rule="evenodd" fill="#006882" points="77.1,90.85 77.45,91.55 77.95,93.05 78.05,93.85 
			78.05,94.55 77.9,95.2 77.4,96.3 76.95,96.65 76.5,96.85 76,96.95 75.45,96.85 74.95,96.65 74.45,96.3 73.95,95.8 73.5,95.2 
			73.15,94.55 72.7,93.05 72.65,91.55 73,90.25 73.3,89.75 73.65,89.4 74.05,89.2 74.6,89.1 75.15,89.2 75.65,89.4 76.25,89.75 		
			"/>
	</g>
	<g>
		<polygon fill-rule="evenodd" clip-rule="evenodd" fill="#003066" points="10.75,36.5 12.1,36.7 13.4,37.3 14.7,38.15 15.85,39.35 
			16.9,40.8 17.8,42.45 18.95,46.2 19.2,48.1 19.1,50 18.8,51.55 18.25,53 17.55,54.15 16.5,55.05 15.45,55.55 14.15,55.8 
			12.85,55.55 11.5,55.05 10.25,54.15 9.1,53 7.15,50 6,46.2 5.8,44.25 5.85,42.45 6.15,40.8 6.7,39.35 7.45,38.15 8.4,37.3 
			9.55,36.7 		"/>
	</g>
	<g>
		<polygon fill-rule="evenodd" clip-rule="evenodd" fill="#003366" points="8.6,37.65 9.6,37.15 10.85,36.95 12.1,37.15 
			13.35,37.65 14.5,38.5 15.65,39.65 16.65,41 18.15,44.3 18.6,46.2 18.8,48.05 18.75,49.75 18.45,51.25 17.95,52.65 17.25,53.8 
			16.3,54.55 15.3,55.05 14.05,55.3 12.75,55.05 11.55,54.55 10.3,53.8 9.25,52.65 7.35,49.75 6.7,48.05 6.05,44.3 6.15,42.6 
			6.45,41 6.95,39.65 7.65,38.5 		"/>
	</g>
	<g>
		<polygon fill-rule="evenodd" clip-rule="evenodd" fill="#00386B" points="10.9,37.35 12.1,37.5 13.3,38.05 14.35,38.85 
			15.45,39.95 17.15,42.75 17.75,44.4 18.4,47.8 18.05,50.9 17.55,52.2 16.9,53.25 16,54.05 15.1,54.55 13.9,54.7 12.7,54.55 
			11.55,54.05 10.4,53.25 9.4,52.2 8.45,50.9 7.65,49.45 7,47.8 6.35,44.4 6.7,41.25 7.85,38.85 8.75,38.05 9.75,37.5 		"/>
	</g>
	<g>
		<polygon fill-rule="evenodd" clip-rule="evenodd" fill="#003D6B" points="10.9,37.85 12.05,38 13.15,38.5 15.2,40.2 16.1,41.45 
			17.4,44.45 17.8,46.1 17.95,49.25 17.25,51.85 16.6,52.75 15.8,53.5 14.85,54 13.8,54.15 12.65,54 11.55,53.5 10.45,52.75 
			9.45,51.85 7.85,49.25 6.85,46.1 6.7,42.9 7,41.45 7.45,40.2 8.1,39.3 8.9,38.5 9.8,38 		"/>
	</g>
	<g>
		<polygon fill-rule="evenodd" clip-rule="evenodd" fill="#004270" points="17.1,44.45 17.65,47.55 17.4,50.25 16.95,51.4 
			16.3,52.35 15.6,53.05 14.7,53.5 13.7,53.65 12.65,53.5 11.55,53.05 10.6,52.35 9.65,51.4 8.8,50.25 7.5,47.55 7.15,46.05 
			7,44.45 7.3,41.75 7.75,40.6 8.3,39.65 9.1,38.95 9.95,38.45 10.95,38.3 12.05,38.45 13.05,38.95 14.05,39.65 15,40.6 16.5,43 		
			"/>
	</g>
	<g>
		<polygon fill-rule="evenodd" clip-rule="evenodd" fill="#004470" points="13.9,39.95 14.8,40.85 15.6,41.95 16.25,43.15 
			17.1,45.95 17.25,48.75 17,50 16.6,51 16,51.85 15.35,52.5 14.5,52.9 13.55,53.05 12.55,52.9 11.6,52.5 10.6,51.85 9.75,51 
			8.3,48.75 7.45,45.95 7.3,44.55 7.35,43.15 7.6,41.95 8,40.85 8.6,39.95 9.25,39.3 10.1,38.85 11.05,38.7 12.05,38.85 13,39.3 		
			"/>
	</g>
	<g>
		<polygon fill-rule="evenodd" clip-rule="evenodd" fill="#004972" points="16.75,45.95 16.9,47.3 16.6,49.7 16.25,50.7 
			15.75,51.55 15.1,52.15 14.3,52.55 13.4,52.7 12.5,52.55 11.6,52.15 10.75,51.55 9.95,50.7 8.6,48.55 7.8,45.95 7.65,43.3 
			7.85,42.15 8.25,41.15 8.75,40.35 9.4,39.7 10.2,39.35 11.05,39.2 12,39.35 12.9,39.7 13.8,40.35 15.3,42.15 15.95,43.3 		"/>
	</g>
	<g>
		<polygon fill-rule="evenodd" clip-rule="evenodd" fill="#004F75" points="13.65,40.75 15.1,42.35 16.1,44.6 16.5,47.2 
			16.45,48.35 16.25,49.4 15.45,51.05 14.8,51.6 14.05,52 13.3,52.15 12.4,52 11.6,51.6 10.85,51.05 10.05,50.25 9.4,49.4 
			8.8,48.35 8.1,45.9 7.95,43.45 8.15,42.35 8.5,41.45 8.95,40.75 9.6,40.15 10.3,39.8 11.1,39.65 12,39.8 12.85,40.15 		"/>
	</g>
	<g>
		<polygon fill-rule="evenodd" clip-rule="evenodd" fill="#005477" points="16.15,46.95 15.95,49.05 15.6,49.85 15.15,50.55 
			14.55,51.1 13.9,51.4 13.2,51.55 12.4,51.4 11.6,51.1 10.9,50.55 10.2,49.85 9.6,49.05 9.05,48.05 8.65,46.95 8.25,44.65 
			8.45,42.6 8.8,41.75 9.25,41.1 9.8,40.5 10.45,40.2 11.2,40.1 12,40.2 12.75,40.5 14.15,41.75 14.8,42.6 15.75,44.65 		"/>
	</g>
	<g>
		<polygon fill-rule="evenodd" clip-rule="evenodd" fill="#005677" points="12.7,41 14,42.1 15,43.8 15.65,45.8 15.8,46.9 
			15.6,48.75 15.3,49.45 14.85,50.1 14.35,50.6 13.8,51 13.05,51.05 12.35,51 11.6,50.6 10.95,50.1 9.75,48.75 8.95,46.9 8.65,45.8 
			8.5,44.75 8.75,42.9 9.05,42.1 9.45,41.5 9.95,41 10.55,40.65 11.25,40.6 12,40.65 		"/>
	</g>
	<g>
		<polygon fill-rule="evenodd" clip-rule="evenodd" fill="#005B7C" points="11.25,41 11.9,41.1 12.55,41.35 13.2,41.8 13.8,42.35 
			14.7,43.9 15.1,44.8 15.3,45.75 15.35,47.6 15.2,48.4 14.95,49.1 14.55,49.7 14.15,50.1 13.55,50.4 12.9,50.5 12.25,50.4 
			11.6,50.1 11.05,49.7 10.45,49.1 9.95,48.4 9.15,46.7 8.95,45.75 8.9,43.9 9.05,43.1 9.3,42.35 9.65,41.8 10.1,41.35 10.6,41.1 		
			"/>
	</g>
	<g>
		<polygon fill-rule="evenodd" clip-rule="evenodd" fill="#00607C" points="11.9,41.5 13.05,42.15 14.45,44.1 14.95,45.75 15,47.4 
			14.85,48.1 14.3,49.25 13.35,49.9 12.85,50 12.25,49.9 11.1,49.25 10.6,48.7 9.75,47.4 9.45,46.6 9.25,45.75 9.15,44.1 9.3,43.4 
			9.9,42.15 10.3,41.8 10.85,41.5 11.35,41.45 		"/>
	</g>
	<g>
		<polygon fill-rule="evenodd" clip-rule="evenodd" fill="#006682" points="10.9,42 11.4,41.95 11.9,42 12.4,42.25 13.35,43 
			13.8,43.6 14.15,44.25 14.55,45.65 14.65,46.45 14.65,47.1 14.3,48.35 14,48.75 13.65,49.1 13.2,49.35 12.7,49.4 12.2,49.35 
			11.7,49.1 10.75,48.35 10.3,47.75 9.95,47.1 9.75,46.45 9.45,44.9 9.45,44.25 9.8,43 10.1,42.6 10.45,42.25 		"/>
	</g>
	<g>
		<polygon fill-rule="evenodd" clip-rule="evenodd" fill="#006882" points="10.7,42.65 11.5,42.35 11.9,42.45 12.35,42.65 
			13.15,43.3 13.8,44.3 14.15,45.6 14.2,46.9 13.9,47.9 13.35,48.55 12.55,48.85 12.1,48.75 11.7,48.55 11.25,48.25 10.9,47.9 
			10.55,47.4 9.95,46.25 9.8,45.6 9.8,44.3 10.1,43.3 		"/>
	</g>
	<g>
		<polygon fill-rule="evenodd" clip-rule="evenodd" fill="#6B7F93" points="67.65,10.55 71.5,8.3 72.2,9.2 68.95,11.55 		"/>
	</g>
	<g>
		<polygon fill-rule="evenodd" clip-rule="evenodd" fill="#6B7F93" points="115.85,40.95 119.45,38.55 120.7,39.7 117.6,42 		"/>
	</g>
	<g>
		<polygon fill-rule="evenodd" clip-rule="evenodd" fill="#006882" points="55.35,42.8 50.9,43 54.5,40.75 55.65,40.3 59.45,41.3 
			59.3,41.35 58.8,41.6 		"/>
	</g>
	<g>
		<polygon fill-rule="evenodd" clip-rule="evenodd" fill="#006882" points="59.3,3.45 62.1,3.8 19.2,23.75 15.15,24 		"/>
	</g>
	<g>
		<polygon fill-rule="evenodd" clip-rule="evenodd" fill="#000016" points="49.35,8.25 52.25,6.9 57,6.3 54.75,7.8 		"/>
	</g>
	<g>
		<polygon fill-rule="evenodd" clip-rule="evenodd" fill="#000016" points="100.6,35.3 105.25,34.65 103.1,36.15 97.65,36.55 		"/>
	</g>
	<g>
		<polygon fill-rule="evenodd" clip-rule="evenodd" fill="#00596D" points="73.5,28.1 78.2,28.1 85.15,26.65 68.9,35.55 61.4,37.45 
			55.35,34.15 69.8,26.65 		"/>
	</g>
	<g>
		<polygon fill-rule="evenodd" clip-rule="evenodd" fill="#00596D" points="14.85,27.3 21.9,27.7 17.1,30.55 12.35,29.75 8.5,30.35 
					"/>
	</g>
	<g>
		<polygon fill-rule="evenodd" clip-rule="evenodd" fill="#00596D" points="74.95,71.9 77.95,70.9 79.75,70.65 82,70.65 
			83.95,71.05 86.1,71.9 86.55,72.2 86.25,72.25 85.75,72.5 82.55,74.85 82.45,75 77.1,73.85 74.95,73.8 70.55,74.7 		"/>
	</g>
	<g>
		<polygon fill-rule="evenodd" clip-rule="evenodd" fill="#6B7F93" points="130.1,34.55 139.5,27.8 140.2,29.3 131.25,36.4 		"/>
	</g>
</g>
</svg>
