<?xml version="1.0" encoding="utf-8"?>
<!-- Generator: Adobe Illustrator 16.0.0, SVG Export Plug-In . SVG Version: 6.00 Build 0)  -->
<!DOCTYPE svg PUBLIC "-//W3C//DTD SVG 1.1//EN" "http://www.w3.org/Graphics/SVG/1.1/DTD/svg11.dtd">
<svg version="1.1" id="Layer_1" xmlns="http://www.w3.org/2000/svg" xmlns:xlink="http://www.w3.org/1999/xlink" x="0px" y="0px"
	 width="243px" height="180px" viewBox="0 0 243 180" enable-background="new 0 0 243 180" xml:space="preserve">
<path fill-rule="evenodd" clip-rule="evenodd" fill="none" stroke="#737373" stroke-width="5" stroke-linecap="round" stroke-linejoin="round" stroke-miterlimit="3" d="
	M202.9,19.5c-0.534-0.533-0.967-1.1-1.301-1.7c-0.433-0.767-0.716-1.25-0.85-1.45c-0.267-0.267-0.566-0.617-0.9-1.05h-0.05
	l-0.05-0.05l-2.35-1.45l-0.25-0.1l-3.801-2l-1.449-0.65L180.65,7.2L179.3,6.85L178.9,6.8L173.8,5.65h-0.149
	c-1.667-0.333-3.434-0.633-5.301-0.9h-0.1l-1.7-0.2l-0.1-0.05L165,4.35h-0.35l-3.5-0.3H161.1l-1.649-0.1L157.6,3.9
	c-1.033-0.033-2.05-0.033-3.05,0l-2.399,0.05L147.6,4.3c-8.767,1.067-17.333,3.483-25.699,7.25c-0.233-0.433-2.184-0.883-5.851-1.35
	c-3.667-0.434-8.066-0.75-13.2-0.95c-9.367-0.367-15.467-0.217-18.3,0.45L84.5,6.4c-0.967-1.2-2.3-2.233-4-3.1
	c-0.533-0.267-1.083-0.5-1.65-0.7L78.2,2.4L65.6,2l-0.9,0.15L62.5,2.9c-1.333,0.6-2.467,1.417-3.4,2.45L58.05,6.7l-0.15,4.95
	l-12.55,0.4l0.05,0.1c-2.6-0.1-4.783-0.05-6.55,0.15c-2.567,0.367-5.6,1.3-9.1,2.8c-6.967,2.933-12.683,7.167-17.15,12.7
	c-1.4,1.833-2.817,4.6-4.25,8.3c-1.133,2.9-1.8,4.967-2,6.2l0.2,1.15l0.05,0.1l-1,0.75c-1,8.167-1.85,18.35-2.55,30.55
	C1.617,99.283,1.633,121.6,3.1,141.8l0.25,1.351c0.2,0.933,0.417,1.466,0.65,1.6l-0.15,0.3c-0.1,0.267-0.15,0.601-0.15,1
	c0,0.9,0.133,2.2,0.4,3.9c0.3,2.133,0.683,3.434,1.15,3.899c0.367,0.367,1.233,1.301,2.6,2.801c1.733,1.399,4.066,2.366,7,2.899
	c1.267,0.267,3.8,0.566,7.6,0.9c4.566,0.399,7.7,0.467,9.4,0.2c1.066-0.233,6.05-1.7,14.95-4.4c4.534,6.267,9.95,11.267,16.25,15
	c6.534,3.866,13.367,6,20.5,6.4c4.767,0.267,9.3-0.267,13.6-1.601l0.6,0.3l9-3.85c2.9,0.7,5.833,1.15,8.8,1.35
	c7.601,0.4,14.733-0.966,21.4-4.1c1.7-0.566,3.116-1.134,4.25-1.7l0.95,0.15l48.1,2.95l3.25-0.25c2.5-0.267,4.6-0.617,6.3-1.051
	c3.267-0.133,5.7-0.399,7.3-0.8c2.733-0.633,5.884-1.8,9.45-3.5c3.7-1.8,6.217-3.383,7.55-4.75c3.134-3.2,5.867-6.95,8.2-11.25
	c1.167-2.133,2.017-3.967,2.55-5.5l5.25-76.5c-0.3-2.8-0.75-5.816-1.35-9.05c-1.2-6.433-2.583-10.75-4.15-12.95
	c-1.6-2.233-6.183-6.233-13.75-12c-6.466-4.933-12.066-8.917-16.8-11.95l-0.2-0.8C203.684,20.4,203.366,19.967,202.9,19.5z"/>
<path fill-rule="evenodd" clip-rule="evenodd" fill="#B2B2B2" d="M202.85,20.8c4.134,2.534,9.767,6.5,16.9,11.9
	c8.233,6.2,13.184,10.483,14.85,12.85c1.567,2.2,2.95,6.517,4.15,12.95c0.6,3.233,1.05,6.25,1.35,9.05l-5.25,76.5
	c-0.533,1.533-1.383,3.367-2.55,5.5c-2.333,4.3-5.066,8.05-8.2,11.25c-1.333,1.367-3.85,2.95-7.55,4.75
	c-3.566,1.7-6.717,2.867-9.45,3.5c-1.6,0.4-4.033,0.667-7.3,0.8l1.65-0.5c4.967-1.8,8.5-5.149,10.6-10.05
	c1.634-3.8,3.2-14.416,4.7-31.85c1.733-20.533,2.1-39.833,1.1-57.9c-0.466-6.9-0.916-11.3-1.35-13.2c-0.8-3.6-2.434-6.7-4.9-9.3
	c-2.199-2.267-7.517-6.617-15.949-13.05c-4.834-3.667-9.45-7.083-13.851-10.25c1.033-0.833,2.05-1.567,3.05-2.2
	c3.967-2.5,8.15-3.367,12.551-2.6C199.634,19.317,201.45,19.933,202.85,20.8z"/>
<path fill-rule="evenodd" clip-rule="evenodd" fill="#999999" d="M167.85,33.55c2.667,0.633,5,1.45,7,2.45v0.3l-0.25,2
	c-1.1,1.3-2.8,2.034-5.1,2.2c-0.667,0.067-3.134,0-7.4-0.2c-13.633-0.767-25.75-2.017-36.35-3.75c-8.333-1.367-12.717-2.367-13.15-3
	c-0.033-0.066-0.434-0.533-1.2-1.4c-0.6-0.667-0.95-1.2-1.05-1.6c-0.1-0.4,0.083-0.767,0.55-1.1c0.233-0.167,0.467-0.3,0.7-0.4
	l0.5,1l0.75,1l2.15-0.4c2.033-0.2,4.567-0.15,7.6,0.15l36.65,4.1c3.066,0.467,5.017,0.85,5.85,1.15c0.5-0.167,0.834-0.5,1-1
	c0.2-0.566,0.367-0.933,0.5-1.1C166.9,33.583,167.316,33.45,167.85,33.55z"/>
<linearGradient id="SVGID_1_" gradientUnits="userSpaceOnUse" x1="58.8154" y1="13.5625" x2="98.5891" y2="13.5625" gradientTransform="matrix(0.9975 0.0704 -0.0704 0.9975 0 0)">
	<stop  offset="0.0431" style="stop-color:#FFFFFF"/>
	<stop  offset="0.2588" style="stop-color:#4C4C4C"/>
	<stop  offset="0.451" style="stop-color:#4C4C4C"/>
	<stop  offset="0.8667" style="stop-color:#F2F2F2"/>
</linearGradient>
<path fill-rule="evenodd" clip-rule="evenodd" fill="url(#SVGID_1_)" d="M119.35,12.55v0.2c-1.7,0.833-2.867,1.517-3.5,2.05
	c-0.7,0.7-1.283,2.034-1.75,4h-0.25l-0.6,2.55c-0.4,2-0.7,3.8-0.9,5.4L102.1,30.3l-20-2.25l-9.5-0.35v-0.4
	c0-1.133,0.35-2.5,1.05-4.1c0.733-1.6,1.467-2.65,2.2-3.15c0.4-0.267,1.15-0.6,2.25-1c-0.4-0.667-0.883-1.233-1.45-1.7
	c-1.333-1.1-3.1-1.867-5.3-2.3c-3.167-0.533-6.883-1.066-11.15-1.6c-5.867-0.733-10.8-1.167-14.8-1.3l-0.05-0.1l21.5-0.75
	c3.9-0.133,12.65-0.05,26.25,0.25C107.167,11.85,115.917,12.183,119.35,12.55z"/>
<linearGradient id="SVGID_2_" gradientUnits="userSpaceOnUse" x1="-40.5703" y1="127.1621" x2="175.4303" y2="127.1621" gradientTransform="matrix(0.9352 -0.3542 0.3542 0.9352 0 0)">
	<stop  offset="0.451" style="stop-color:#969696"/>
	<stop  offset="0.6157" style="stop-color:#F2F2F2"/>
	<stop  offset="1" style="stop-color:#B1B1B1"/>
</linearGradient>
<path fill-rule="evenodd" clip-rule="evenodd" fill="url(#SVGID_2_)" d="M174.6,38.3l0.25-2V36l0.051,0.05l1.649-7l0.65-1.2
	L175,27.2c0.233,0.033,0.983,0.25,2.25,0.65c0.333-0.6,1.017-1.417,2.05-2.45c1.2-1.2,2.033-1.75,2.5-1.65
	c0.267,0.033,2.084,1.317,5.45,3.85c1.7,1.3,3.366,2.583,5,3.85c10.267,7.7,16.717,12.9,19.35,15.6c2.467,2.6,4.101,5.7,4.9,9.3
	c0.434,1.9,0.884,6.3,1.35,13.2c1,18.067,0.634,37.367-1.1,57.9c-1.5,17.434-3.066,28.05-4.7,31.85c-2.1,4.9-5.633,8.25-10.6,10.05
	c-1.7,0.634-4.084,1.117-7.15,1.45l-4.05,0.351l-48.1-2.95c-15.134-2.033-30.333-4.084-45.601-6.15
	c-30.5-4.066-46.05-6.083-46.65-6.05l-3.1,0.25c-8.9,2.7-13.883,4.167-14.95,4.4c-1.7,0.267-4.833,0.199-9.4-0.2
	c-3.8-0.334-6.333-0.634-7.6-0.9c-2.934-0.533-5.267-1.5-7-2.899c-1.367-1.5-2.233-2.434-2.6-2.801
	c-0.467-0.466-0.85-1.767-1.15-3.899c-0.267-1.7-0.4-3-0.4-3.9c0-0.399,0.05-0.733,0.15-1l0.15-0.3
	c-0.233-0.134-0.45-0.667-0.65-1.6L3.1,141.8c-1.467-20.2-1.483-42.517-0.05-66.95C3.75,62.65,4.6,52.467,5.6,44.3l1-0.75L6.35,42.3
	c0.2-1.233,0.867-3.3,2-6.2c1.433-3.7,2.85-6.467,4.25-8.3c4.467-5.533,10.183-9.767,17.15-12.7c3.5-1.5,6.533-2.434,9.1-2.8
	c3.6-0.433,9.367-0.216,17.3,0.65c5.733,0.6,10.8,1.3,15.2,2.1c2.3,0.434,4.117,1.233,5.45,2.4c0.667,0.566,1.1,1.1,1.3,1.6
	c17.833,1.833,27,2.75,27.5,2.75c0.267,0,0.733-0.033,1.4-0.1c0.5,0.033,0.7,0.316,0.6,0.85c1-0.833,3.333-3.167,7-7l0.95-0.35
	c-0.6,0.767-1.083,1.966-1.45,3.6h-0.25L113,22.85c-0.6,3.033-0.9,5.433-0.9,7.2l-0.5-1c-0.233,0.1-0.467,0.233-0.7,0.4
	c-0.467,0.333-0.65,0.7-0.55,1.1c0.1,0.4,0.45,0.934,1.05,1.6c0.767,0.867,1.167,1.333,1.2,1.4c0.433,0.633,4.816,1.633,13.15,3
	c10.6,1.733,22.717,2.983,36.35,3.75c4.267,0.2,6.733,0.267,7.4,0.2C171.8,40.333,173.5,39.6,174.6,38.3z"/>
<path fill-rule="evenodd" clip-rule="evenodd" fill="#CCCCCC" d="M56.15,12.95c5.733,0.6,10.8,1.3,15.2,2.1
	c2.2,0.434,3.967,1.2,5.3,2.3c0.567,0.467,1.05,1.033,1.45,1.7c-1.1,0.4-1.85,0.733-2.25,1c-0.733,0.5-1.467,1.55-2.2,3.15
	c-0.7,1.6-1.05,2.966-1.05,4.1c0,1.5,0.167,4.083,0.5,7.75c0,0.633-0.317,1.633-0.95,3c-0.8,1.667-1.816,3.167-3.05,4.5
	c-1.434,1.567-3.05,3.7-4.85,6.4c-1.867,2.833-2.917,4.783-3.15,5.85c-0.267,1.233-0.2,2.667,0.2,4.3
	c0.467,1.8,1.233,3.283,2.3,4.45c3.4,3.8,4.816,8.217,4.25,13.25l-14,70.75l-0.25,2.65c-0.1,2.133,0,4.217,0.3,6.25l-4-0.45
	l-3.1,0.25c-8.9,2.7-13.883,4.167-14.95,4.4c-1.7,0.267-4.833,0.199-9.4-0.2c-3.8-0.334-6.333-0.634-7.6-0.9
	c-2.934-0.533-5.267-1.5-7-2.899c-1.367-1.5-2.233-2.434-2.6-2.801c-0.467-0.466-0.85-1.767-1.15-3.899c-0.267-1.7-0.4-3-0.4-3.9
	c0-0.399,0.05-0.733,0.15-1l0.15-0.3c-0.233-0.134-0.45-0.667-0.65-1.6L3.1,141.8c-1.467-20.2-1.483-42.517-0.05-66.95
	C3.75,62.65,4.6,52.467,5.6,44.3l1-0.75L6.35,42.3c0.2-1.233,0.867-3.3,2-6.2c1.433-3.7,2.85-6.467,4.25-8.3
	c4.467-5.533,10.183-9.767,17.15-12.7c3.5-1.5,6.533-2.434,9.1-2.8C42.45,11.867,48.217,12.083,56.15,12.95z"/>
<linearGradient id="SVGID_3_" gradientUnits="userSpaceOnUse" x1="83.6494" y1="10.8999" x2="121.9502" y2="10.8999">
	<stop  offset="0" style="stop-color:#FFFFFF"/>
	<stop  offset="1" style="stop-color:#CCCCCC"/>
</linearGradient>
<path fill-rule="evenodd" clip-rule="evenodd" fill="url(#SVGID_3_)" d="M116.4,10.25c3.7,0.467,5.55,0.933,5.55,1.4
	c-0.033,0.467-1.917,0.783-5.65,0.95c-3.767,0.167-8.283,0.15-13.55-0.05c-5.333-0.233-9.85-0.583-13.55-1.05
	c-3.733-0.467-5.583-0.917-5.55-1.35c0.033-0.433,1.917-0.75,5.65-0.95c3.767-0.167,8.284-0.15,13.55,0.05
	C108.183,9.45,112.7,9.783,116.4,10.25z"/>
<path fill-rule="evenodd" clip-rule="evenodd" d="M116.2,15.5c3.833,0.533,5.733,1.067,5.7,1.6c-0.034,0.566-1.984,0.967-5.851,1.2
	c-3.867,0.233-8.533,0.233-14,0c-5.466-0.2-10.117-0.566-13.95-1.1c-3.867-0.534-5.783-1.083-5.75-1.65
	c0-0.533,1.933-0.917,5.8-1.15c3.934-0.233,8.617-0.233,14.05,0C107.667,14.6,112.333,14.967,116.2,15.5z"/>
<linearGradient id="SVGID_4_" gradientUnits="userSpaceOnUse" x1="58.0498" y1="7.8701" x2="81.5498" y2="7.8701">
	<stop  offset="0" style="stop-color:#B1B1B1"/>
	<stop  offset="0.4902" style="stop-color:#FFFFFF"/>
	<stop  offset="0.5333" style="stop-color:#FFFFFF"/>
	<stop  offset="0.7137" style="stop-color:#666666"/>
	<stop  offset="0.8039" style="stop-color:#666666"/>
	<stop  offset="0.9882" style="stop-color:#B2B2B2"/>
</linearGradient>
<path fill-rule="evenodd" clip-rule="evenodd" fill="url(#SVGID_4_)" d="M84.65,12.85c-2.367,0.4-5.267,0.667-8.7,0.8
	c-6.833,0.3-12.85-0.15-18.05-1.35l0.15-5.6l1.7-2.05c1.6-1.4,3.55-2.283,5.85-2.65l12.6,0.4l2.3,0.9c1.7,0.833,3.033,1.867,4,3.1
	L84.65,12.85z"/>
<radialGradient id="SVGID_5_" cx="70.75" cy="8.2998" r="11.5" gradientTransform="matrix(1 0 0 -1 0 16.5996)" gradientUnits="userSpaceOnUse">
	<stop  offset="0.3451" style="stop-color:#FFFFFF"/>
	<stop  offset="0.7569" style="stop-color:#CCCCCC"/>
	<stop  offset="0.9843" style="stop-color:#999999"/>
</radialGradient>
<path fill-rule="evenodd" clip-rule="evenodd" fill="url(#SVGID_5_)" d="M80.5,3.3c1.7,0.833,3.033,1.867,4,3.1v1.2
	c-3.067,0.433-6.467,0.7-10.2,0.8c-6.066,0.133-11.483-0.3-16.25-1.3V6.7l1.7-2.05c1.6-1.4,3.55-2.283,5.85-2.65l12.6,0.4L80.5,3.3z
	"/>
<linearGradient id="SVGID_6_" gradientUnits="userSpaceOnUse" x1="62.5" y1="3.1499" x2="80.5" y2="3.1499">
	<stop  offset="0.0235" style="stop-color:#999999"/>
	<stop  offset="0.9843" style="stop-color:#333333"/>
</linearGradient>
<path fill-rule="evenodd" clip-rule="evenodd" fill="url(#SVGID_6_)" d="M62.5,2.9c1.067-0.467,2.1-0.767,3.1-0.9l12.6,0.4l0.65,0.2
	c0.566,0.2,1.117,0.433,1.65,0.7c-2.333,0.667-5.117,1-8.35,1C68.017,4.3,64.8,3.833,62.5,2.9z"/>
<linearGradient id="SVGID_7_" gradientUnits="userSpaceOnUse" x1="83" y1="14.0996" x2="122.4561" y2="14.0996">
	<stop  offset="0" style="stop-color:#B1B1B1"/>
	<stop  offset="0.4902" style="stop-color:#FFFFFF"/>
	<stop  offset="0.5333" style="stop-color:#FFFFFF"/>
	<stop  offset="0.7137" style="stop-color:#666666"/>
	<stop  offset="0.8039" style="stop-color:#666666"/>
	<stop  offset="0.9882" style="stop-color:#B2B2B2"/>
</linearGradient>
<path fill-rule="evenodd" clip-rule="evenodd" fill="url(#SVGID_7_)" d="M121.95,11.65c0.6,0.167,0.666,1.967,0.2,5.4L121.9,17
	c0,0.533-1.934,0.9-5.8,1.1c-3.833,0.2-8.517,0.2-14.05,0c-4.533-0.167-8.583-0.45-12.15-0.85c-3.5-0.4-5.8-0.833-6.9-1.3
	c0.233-2.9,0.35-4.7,0.35-5.4c0-0.333,0.167-0.533,0.5-0.6c-0.133,0.066-0.2,0.133-0.2,0.2c-0.033,0.434,1.817,0.883,5.55,1.35
	c3.7,0.467,8.216,0.817,13.55,1.05c5.267,0.2,9.783,0.217,13.55,0.05C120.033,12.433,121.917,12.117,121.95,11.65z"/>
<path fill-rule="evenodd" clip-rule="evenodd" d="M57,21.2c0,2.6-1.883,5.183-5.65,7.75c-3.767,2.6-8.317,4.433-13.65,5.5
	c-5.333,1.066-9.883,1.05-13.65-0.05c-3.767-1.066-5.65-2.883-5.65-5.45c0-2.567,1.883-5.15,5.65-7.75
	c3.767-2.6,8.317-4.434,13.65-5.5c5.333-1.034,9.883-1.017,13.65,0.05S57,18.633,57,21.2z"/>
<linearGradient id="SVGID_8_" gradientUnits="userSpaceOnUse" x1="18.25" y1="26.021" x2="55.2041" y2="26.021">
	<stop  offset="0" style="stop-color:#B1B1B1"/>
	<stop  offset="0.4902" style="stop-color:#FFFFFF"/>
	<stop  offset="0.5333" style="stop-color:#FFFFFF"/>
	<stop  offset="0.7137" style="stop-color:#666666"/>
	<stop  offset="0.8039" style="stop-color:#666666"/>
	<stop  offset="0.9882" style="stop-color:#B2B2B2"/>
</linearGradient>
<path fill-rule="evenodd" clip-rule="evenodd" fill="url(#SVGID_8_)" d="M53.4,16.8l0.65,0.5c0.434,0.5,0.75,1.184,0.95,2.05
	c0.233,1.133,0.267,3.233,0.1,6.3c-1.6,1.9-3.934,3.65-7,5.25c-3.167,1.6-6.633,2.783-10.4,3.55c-4.434,0.9-8.4,1.033-11.9,0.4
	c-3.433-0.633-5.7-1.867-6.8-3.7l-0.75-3.65c0.033-0.167,0.133-0.3,0.3-0.4c0.2-0.133,0.333-0.283,0.4-0.45l2.65-1.15L53.4,16.8z"/>
<path fill-rule="evenodd" clip-rule="evenodd" fill="none" stroke="#000000" stroke-width="0.25" d="M45.9,18.4
	c0,1.167-0.933,2.35-2.8,3.55c-1.9,1.167-4.184,1.983-6.85,2.45s-4.95,0.467-6.85,0c-1.867-0.5-2.8-1.333-2.8-2.5
	c0-1.167,0.933-2.333,2.8-3.5c1.9-1.2,4.184-2.033,6.85-2.5c2.667-0.5,4.95-0.5,6.85,0C44.967,16.4,45.9,17.233,45.9,18.4z"/>
<radialGradient id="SVGID_9_" cx="36.625" cy="32.2998" r="17.4514" gradientTransform="matrix(1 0 0 -1 0 64.5996)" gradientUnits="userSpaceOnUse">
	<stop  offset="0.5059" style="stop-color:#FFFFFF"/>
	<stop  offset="1" style="stop-color:#CCCCCC"/>
</radialGradient>
<path fill-rule="evenodd" clip-rule="evenodd" fill="url(#SVGID_9_)" d="M55,19.35c0,2.533-1.8,5.066-5.4,7.6
	c-3.6,2.533-7.934,4.316-13,5.35c-5.067,1.067-9.4,1.067-13,0c-3.567-1.033-5.35-2.816-5.35-5.35c0-2.534,1.783-5.067,5.35-7.6
	c3.6-2.5,7.933-4.283,13-5.35c5.066-1.033,9.4-1.033,13,0S55,16.817,55,19.35z"/>
<path fill-rule="evenodd" clip-rule="evenodd" fill="#FFFFFF" d="M49.4,26.45c3.533-2.434,5.383-4.9,5.55-7.4l0.05,0.3
	c0,2.533-1.8,5.066-5.4,7.6c-3.6,2.533-7.934,4.316-13,5.35c-5.067,1.067-9.4,1.067-13,0c-3.567-1.033-5.35-2.816-5.35-5.35V26.6
	c0.167,2.433,2.033,4.133,5.6,5.1c3.566,1,7.816,0.983,12.75-0.05C41.567,30.617,45.833,28.883,49.4,26.45z"/>
<linearGradient id="SVGID_10_" gradientUnits="userSpaceOnUse" x1="25.0874" y1="30.4512" x2="40.5124" y2="30.4512">
	<stop  offset="0.0431" style="stop-color:#FFFFFF"/>
	<stop  offset="0.2588" style="stop-color:#4C4C4C"/>
	<stop  offset="0.451" style="stop-color:#4C4C4C"/>
	<stop  offset="0.8667" style="stop-color:#F2F2F2"/>
</linearGradient>
<path fill-rule="evenodd" clip-rule="evenodd" fill="url(#SVGID_10_)" d="M40.2,26.3l0.3,0.2c0.133,0.233-0.017,0.633-0.45,1.2
	c-0.667,0.966-0.917,2.3-0.75,4c-1.133,0.867-2.983,1.783-5.55,2.75c-2.433,0.233-4.45,0.2-6.05-0.1l-1.7-0.5
	c-0.633-1.067-0.95-2.6-0.95-4.6l0.25-2.65c0.4,0.267,1.35,0.6,2.85,1l4.3,0.25c1.733,0,2.833-0.05,3.3-0.15
	C36.217,27.633,37.7,27.167,40.2,26.3z"/>
<linearGradient id="SVGID_11_" gradientUnits="userSpaceOnUse" x1="18.6411" y1="20.8652" x2="54.1517" y2="20.8652" gradientTransform="matrix(0.9856 0.169 -0.169 0.9856 0 0)">
	<stop  offset="0.0235" style="stop-color:#999999"/>
	<stop  offset="0.9843" style="stop-color:#333333"/>
</linearGradient>
<path fill-rule="evenodd" clip-rule="evenodd" fill="url(#SVGID_11_)" d="M25.3,26.6l-0.1,0.65l-0.1-0.2
	c0-0.133,0.033-0.283,0.1-0.45c0.133-0.333,0.383-0.55,0.75-0.65c0.167-0.034,2.183,0.066,6.05,0.3c4,0.267,6.733,0.283,8.2,0.05
	c-2.5,0.867-3.983,1.333-4.45,1.4c-0.467,0.1-1.567,0.15-3.3,0.15l-4.3-0.25C26.65,27.2,25.7,26.867,25.3,26.6z"/>
<path fill-rule="evenodd" clip-rule="evenodd" d="M43.2,15.85c1.9,0.467,2.95,1.3,3.15,2.5c-0.367-1.1-1.467-1.85-3.3-2.25
	c-1.9-0.434-4.117-0.4-6.65,0.1c-2.767,0.566-5.15,1.5-7.15,2.8c-1.967,1.333-2.95,2.667-2.95,4l-0.05-0.3
	c0-1.333,0.983-2.667,2.95-4c1.966-1.3,4.333-2.233,7.1-2.8C38.967,15.367,41.267,15.35,43.2,15.85z"/>
<path fill-rule="evenodd" clip-rule="evenodd" fill="#FFFFFF" d="M43.6,15.05c2.133,0.567,3.2,1.517,3.2,2.85l-0.05,0.25
	c-0.133-1.233-1.217-2.1-3.25-2.6s-4.45-0.483-7.25,0.05c-2.933,0.566-5.433,1.5-7.5,2.8c-2.067,1.333-3.1,2.667-3.1,4
	c0,0.5,0.184,0.983,0.55,1.45c-0.767-0.567-1.15-1.233-1.15-2c0-1.333,1.067-2.667,3.2-4c2.1-1.3,4.65-2.233,7.65-2.8
	C38.9,14.517,41.467,14.517,43.6,15.05z"/>
<path fill-rule="evenodd" clip-rule="evenodd" d="M43.4,22.85c1.934-1.267,2.95-2.55,3.05-3.85l0.05,0.15
	c0,1.333-0.983,2.667-2.95,4c-2,1.333-4.383,2.267-7.15,2.8c-2.767,0.566-5.15,0.566-7.15,0c-1.967-0.534-2.95-1.467-2.95-2.8
	l0.05-0.2c0.1,1.267,1.117,2.167,3.05,2.7c1.934,0.5,4.267,0.483,7-0.05S41.467,24.15,43.4,22.85z"/>
<linearGradient id="SVGID_12_" gradientUnits="userSpaceOnUse" x1="19.4053" y1="32.2598" x2="36.4933" y2="32.2598" gradientTransform="matrix(0.9363 -0.3511 0.3511 0.9363 0 0)">
	<stop  offset="0" style="stop-color:#000000"/>
	<stop  offset="0.5059" style="stop-color:#FFFFFF"/>
	<stop  offset="1" style="stop-color:#000000"/>
</linearGradient>
<path fill-rule="evenodd" clip-rule="evenodd" fill="url(#SVGID_12_)" d="M46.1,17.1c0.5,1.367,0.483,2.5-0.05,3.4
	c-0.533,0.867-1.683,1.817-3.45,2.85C40.4,24.617,38,25.5,35.4,26c-1.5,0.233-3.017,0.267-4.55,0.1c-3-0.4-4.517-1.684-4.55-3.85
	c0.434-0.767,1.1-1.567,2-2.4c1.767-1.733,3.8-2.85,6.1-3.35c2.6-0.567,5.05-0.767,7.35-0.6C43.883,16.033,45.333,16.433,46.1,17.1z
	"/>
<radialGradient id="SVGID_13_" cx="43.6001" cy="38.5" r="27.425" gradientTransform="matrix(1 0 0 -1 0 77)" gradientUnits="userSpaceOnUse">
	<stop  offset="0" style="stop-color:#4C4C4C"/>
	<stop  offset="1" style="stop-color:#F2F2F2"/>
</radialGradient>
<path fill-rule="evenodd" clip-rule="evenodd" fill="url(#SVGID_13_)" d="M46.5,18.25c0,1.333-0.983,2.683-2.95,4.05
	c-1.966,1.3-4.35,2.233-7.15,2.8c-2.767,0.566-5.15,0.566-7.15,0c-1.967-0.567-2.95-1.517-2.95-2.85s0.983-2.667,2.95-4
	c2-1.3,4.383-2.233,7.15-2.8c2.767-0.534,5.15-0.534,7.15,0C45.517,15.983,46.5,16.917,46.5,18.25z"/>
<path fill-rule="evenodd" clip-rule="evenodd" fill="#FFFFFF" d="M46.1,17.1c0.267,0.367,0.4,0.75,0.4,1.15
	c0,1.333-0.983,2.683-2.95,4.05c-1.966,1.3-4.35,2.233-7.15,2.8c-2.5,0.467-4.683,0.5-6.55,0.1c-1.867-0.4-3-1.133-3.4-2.2
	c0.566,0.933,1.75,1.55,3.55,1.85c1.833,0.3,3.9,0.233,6.2-0.2c2.767-0.533,5.133-1.467,7.1-2.8c1.967-1.333,2.95-2.667,2.95-4
	C46.25,17.55,46.2,17.3,46.1,17.1z"/>
<linearGradient id="SVGID_14_" gradientUnits="userSpaceOnUse" x1="123.3994" y1="-2.0151" x2="182.7311" y2="-2.0151" gradientTransform="matrix(0.9776 0.2107 -0.2107 0.9776 0 0)">
	<stop  offset="0" style="stop-color:#B1B1B1"/>
	<stop  offset="0.4902" style="stop-color:#FFFFFF"/>
	<stop  offset="0.5333" style="stop-color:#FFFFFF"/>
	<stop  offset="0.7137" style="stop-color:#666666"/>
	<stop  offset="0.8039" style="stop-color:#666666"/>
	<stop  offset="0.9882" style="stop-color:#B2B2B2"/>
</linearGradient>
<path fill-rule="evenodd" clip-rule="evenodd" fill="url(#SVGID_14_)" d="M177.1,27.8l0.101,0.05l-0.65,1.2l-1.649,7
	c-1.967-1-4.317-1.833-7.051-2.5c-0.533-0.1-0.949,0.034-1.25,0.4c-0.133,0.167-0.3,0.533-0.5,1.1c-0.166,0.5-0.5,0.833-1,1
	c-0.833-0.3-2.783-0.683-5.85-1.15l-36.65-4.1c-3.033-0.3-5.566-0.35-7.6-0.15l-2.15,0.4l-0.75-1c0-1.767,0.3-4.167,0.9-7.2
	l0.85-4.05h0.25l-0.2,0.825c0.103-0.198,0.387-0.323,0.85-0.375c0.333-0.033,0.867-0.1,1.6-0.2c1.467-0.133,6.817,0.25,16.05,1.15
	c9.6,0.933,17.5,1.883,23.699,2.85C163.1,24.15,170.1,25.733,177.1,27.8z"/>
<radialGradient id="SVGID_15_" cx="158.9746" cy="15.833" r="32.9862" gradientTransform="matrix(1 0 0 -1 0 31.666)" gradientUnits="userSpaceOnUse">
	<stop  offset="0.5059" style="stop-color:#FFFFFF"/>
	<stop  offset="1" style="stop-color:#CCCCCC"/>
</radialGradient>
<path fill-rule="evenodd" clip-rule="evenodd" fill="url(#SVGID_15_)" d="M202.9,19.5c0.466,0.467,0.783,0.9,0.949,1.3l0.2,0.8
	l-1.2-0.8c-1.399-0.867-3.216-1.483-5.449-1.85c-4.4-0.767-8.584,0.1-12.551,2.6c-1,0.633-2.017,1.367-3.05,2.2
	c-0.467-0.1-1.3,0.45-2.5,1.65c-1.033,1.033-1.717,1.85-2.05,2.45l-0.25-0.1c-1.8-0.533-2.45-0.717-1.95-0.55
	c-5.434-1.6-11.75-2.983-18.95-4.15C149.9,22.083,142,21.133,132.4,20.2c-9.233-0.9-14.583-1.284-16.05-1.15
	c-0.733,0.1-1.267,0.167-1.6,0.2c-0.463,0.052-0.747,0.177-0.85,0.375l0.3-1.225v-0.05l0.25-0.85l0.05-0.1l0.15-0.45l0.05-0.1
	l0.2-0.5l0.15-0.3l0.05-0.15l0.4-0.65l0.35-0.45c1.133-1.133,4.483-2.783,10.05-4.95c7.267-2.833,14.5-4.684,21.699-5.55
	c8.434-1,17.7-0.45,27.801,1.65c10.199,2.133,18.35,5.25,24.449,9.35c0.334,0.434,0.634,0.784,0.9,1.05
	c0.134,0.2,0.417,0.683,0.85,1.45C201.934,18.4,202.366,18.967,202.9,19.5z"/>
<radialGradient id="SVGID_16_" cx="136.75" cy="43.7998" r="76.025" gradientTransform="matrix(1 0 0 -1 0 87.5996)" gradientUnits="userSpaceOnUse">
	<stop  offset="0.3451" style="stop-color:#FFFFFF"/>
	<stop  offset="0.7569" style="stop-color:#CCCCCC"/>
	<stop  offset="0.9843" style="stop-color:#999999"/>
</radialGradient>
<path fill-rule="evenodd" clip-rule="evenodd" fill="url(#SVGID_16_)" d="M175.4,6c10.199,2.1,18.333,5.2,24.399,9.3
	c-5.733-0.433-11.083,0.233-16.05,2c-6.566,2.367-10.667,3.717-12.3,4.05c-2.101,0.433-4.834,0.417-8.2-0.05
	c-18.866-2.566-35.05-4.033-48.55-4.4v-0.05l0.2-0.5l0.15-0.3l0.05-0.15l0.4-0.65l0.35-0.45c1.133-1.133,4.483-2.783,10.05-4.95
	c7.267-2.833,14.5-4.684,21.699-5.55C156.033,3.333,165.3,3.9,175.4,6z"/>
<path fill-rule="evenodd" clip-rule="evenodd" fill="none" stroke="#000000" stroke-width="0.25" d="M24.7,45.7
	c-5.4-0.4-9.1-0.7-11.1-0.9c-3.333-0.333-5.7-0.8-7.1-1.4"/>
<path fill-rule="evenodd" clip-rule="evenodd" fill="none" stroke="#FFFFFF" stroke-width="0.25" d="M24.7,45.4
	c-5.4-0.4-9.1-0.7-11.1-0.9c-3.333-0.3-5.7-0.75-7.1-1.35"/>
<linearGradient id="SVGID_17_" gradientUnits="userSpaceOnUse" x1="2.9165" y1="86.6074" x2="117.8942" y2="86.6074" gradientTransform="matrix(0.9971 0.0754 -0.0754 0.9971 0 0)">
	<stop  offset="0.1647" style="stop-color:#A4A6A9"/>
	<stop  offset="0.2157" style="stop-color:#9D9FA1"/>
	<stop  offset="0.2902" style="stop-color:#898A8C"/>
	<stop  offset="0.3843" style="stop-color:#68696A"/>
	<stop  offset="0.451" style="stop-color:#4C4C4C"/>
	<stop  offset="0.4902" style="stop-color:#4C4C4C"/>
	<stop  offset="0.9961" style="stop-color:#B2B2B2"/>
</linearGradient>
<path fill-rule="evenodd" clip-rule="evenodd" fill="url(#SVGID_17_)" d="M72.75,28.75c0,1.5,0.117,3.6,0.35,6.3
	c0,0.633-0.317,1.633-0.95,3c-0.8,1.667-1.816,3.167-3.05,4.5c-1.434,1.567-3.05,3.7-4.85,6.4c-1.867,2.833-2.917,4.783-3.15,5.85
	c-0.267,1.233-0.2,2.667,0.2,4.3c0.467,1.8,1.233,3.283,2.3,4.45c3.4,3.8,4.816,8.217,4.25,13.25l-14,70.75l-8.25,1.75
	c-2.033,0.533-4.3,1.066-6.8,1.601c-5,1.033-8.65,1.5-10.95,1.399c-2.7,0.101-4.883-0.017-6.55-0.35
	c-3.033-0.566-5.017-2.117-5.95-4.65c-1.633-4.333-2.684-12.95-3.15-25.85c-0.633-17.367,0.25-37.417,2.65-60.15
	c0.233-3.133,2.017-6.816,5.35-11.05c3.033-3.833,5.75-6.317,8.15-7.45c1.9-0.9,6.133-2.466,12.7-4.7c5.6-1.9,10.034-3.333,13.3-4.3
	c2.767-0.833,6.15-1.8,10.15-2.9C68.833,29.7,71.583,28.983,72.75,28.75z"/>
<radialGradient id="SVGID_18_" cx="36.6001" cy="24.25" r="12.65" gradientTransform="matrix(1 0 0 -1 0 48.5)" gradientUnits="userSpaceOnUse">
	<stop  offset="0" style="stop-color:#FFFFFF"/>
	<stop  offset="0.2392" style="stop-color:#FDFDFD"/>
	<stop  offset="0.3765" style="stop-color:#F4F4F4"/>
	<stop  offset="0.4863" style="stop-color:#E6E6E6"/>
	<stop  offset="0.5843" style="stop-color:#D3D3D3"/>
	<stop  offset="0.6745" style="stop-color:#B9B9B9"/>
	<stop  offset="0.7529" style="stop-color:#999999"/>
	<stop  offset="0.8314" style="stop-color:#747474"/>
	<stop  offset="0.902" style="stop-color:#484848"/>
	<stop  offset="0.9686" style="stop-color:#181818"/>
	<stop  offset="1" style="stop-color:#000000"/>
</radialGradient>
<path fill-rule="evenodd" clip-rule="evenodd" fill="url(#SVGID_18_)" d="M46.3,17.35c0.133,0.4,0.2,0.7,0.2,0.9
	c0,1.333-0.983,2.683-2.95,4.05c-1.966,1.3-4.35,2.233-7.15,2.8c-2.767,0.566-5.15,0.566-7.15,0c-1.967-0.567-2.95-1.517-2.95-2.85
	v-0.1c0.467,1.033,1.617,1.733,3.45,2.1c1.867,0.367,4.017,0.3,6.45-0.2c2.733-0.533,5.083-1.45,7.05-2.75
	C45.217,20,46.233,18.683,46.3,17.35z"/>
<radialGradient id="SVGID_19_" cx="216.25" cy="57.2998" r="43.775" gradientTransform="matrix(1 0 0 -1 0 114.5996)" gradientUnits="userSpaceOnUse">
	<stop  offset="0" style="stop-color:#000000"/>
	<stop  offset="1" style="stop-color:#FFFFFF"/>
</radialGradient>
<path fill-rule="evenodd" clip-rule="evenodd" fill="url(#SVGID_19_)" d="M181.95,24.55l0.3-0.4l0.15,0.15l-0.2,0.25
	c3.066,2.133,7.684,5.55,13.85,10.25c8.4,6.4,13.667,10.717,15.8,12.95c2.367,2.467,3.934,5.417,4.7,8.85
	c0.4,1.867,0.834,6.217,1.3,13.05c0.334,6.233,0.5,12.8,0.5,19.7c0,15.3-0.783,30.55-2.35,45.75c-0.634,6-1.333,11.267-2.1,15.801
	c-0.7,4.233-1.301,6.899-1.801,8c-1.1,2.533-2.517,4.566-4.25,6.1c1.233-1.333,2.267-2.884,3.101-4.65l0.75-1.55
	c0.5-1.1,1.1-3.767,1.8-8c0.733-4.5,1.417-9.767,2.05-15.8c1.601-14.934,2.4-30.184,2.4-45.75c0-7.133-0.184-13.7-0.55-19.7
	c-0.467-6.833-0.9-11.183-1.301-13.05c-0.767-3.433-2.316-6.383-4.649-8.85C208.017,44.083,198.184,36.383,181.95,24.55z"/>
<radialGradient id="SVGID_20_" cx="217.3496" cy="59" r="21.3875" gradientTransform="matrix(1 0 0 -1 0 118)" gradientUnits="userSpaceOnUse">
	<stop  offset="0" style="stop-color:#4F4F4F"/>
	<stop  offset="1" style="stop-color:#FFFFFF"/>
</radialGradient>
<path fill-rule="evenodd" clip-rule="evenodd" fill="url(#SVGID_20_)" d="M196.3,34.9c-5.7-4.333-10.366-7.8-14-10.4l0.3-0.4
	l0.15,0.1l-0.15,0.25h-0.05c4.334,3.133,8.95,6.566,13.851,10.3c8.433,6.4,13.716,10.717,15.85,12.95
	c2.333,2.466,3.884,5.4,4.65,8.8c0.399,1.867,0.833,6.217,1.3,13.05c0.333,6.233,0.5,12.817,0.5,19.75
	c0,15.267-0.783,30.5-2.351,45.7c-0.6,5.967-1.283,11.25-2.05,15.85c-0.7,4.2-1.3,6.867-1.8,8c-1.134,2.5-2.566,4.534-4.3,6.101
	c1.233-1.334,2.267-2.884,3.1-4.65l0.75-1.55c0.5-1.1,1.101-3.767,1.8-8c0.767-4.533,1.467-9.8,2.101-15.8
	c1.566-15.233,2.35-30.483,2.35-45.75c0-6.934-0.166-13.517-0.5-19.75c-0.5-6.867-0.95-11.217-1.35-13.05
	c-0.767-3.4-2.316-6.333-4.65-8.8C209.7,45.4,204.533,41.167,196.3,34.9z"/>
<linearGradient id="SVGID_21_" gradientUnits="userSpaceOnUse" x1="69.7065" y1="-167.7065" x2="140.1541" y2="-167.7065" gradientTransform="matrix(0.2626 0.9649 -0.9649 0.2626 0 0)">
	<stop  offset="0.1647" style="stop-color:#FFFFFF"/>
	<stop  offset="0.5843" style="stop-color:#919191"/>
	<stop  offset="1" style="stop-color:#FFFFFF"/>
</linearGradient>
<path fill-rule="evenodd" clip-rule="evenodd" fill="url(#SVGID_21_)" d="M177.1,28.3l-0.1-0.1l0.2-0.35l-0.45-0.15l0.5,0.15
	c0.333-0.6,1.017-1.417,2.05-2.45c1.2-1.2,2.033-1.75,2.5-1.65c0.267,0.033,2.084,1.317,5.45,3.85c1.7,1.3,3.366,2.583,5,3.85
	c10.267,7.7,16.717,12.9,19.35,15.6c2.467,2.6,4.101,5.7,4.9,9.3c0.434,1.9,0.884,6.3,1.35,13.2c1,18.067,0.634,37.367-1.1,57.9
	c-1.5,17.434-3.066,28.05-4.7,31.85c-2.1,4.9-5.633,8.25-10.6,10.05c-1.834,0.667-4.667,1.2-8.5,1.601l1.649-7.65l2.45-2.05
	c1.733-2.1,2.917-4.917,3.55-8.45c0.667-3.833,1.517-18.649,2.551-44.45c0.966-23.933,1.449-39.616,1.449-47.05
	c0-5-1.25-9.583-3.75-13.75l-3.75-4.75L177.1,28.3z"/>
<g>
	<path fill-rule="evenodd" clip-rule="evenodd" fill="#666666" d="M87.2,32c0,0.433-0.167,0.817-0.5,1.15
		c-0.434,0.434-0.85,0.75-1.25,0.95c-0.367,0.2-0.817,0.367-1.35,0.5c-0.133,0-0.2-0.017-0.2-0.05h-0.05l0.15-0.6l0.25-0.25
		c0.467-0.1,1.017-0.35,1.65-0.75c0.6-0.4,0.9-0.767,0.9-1.1c0-0.167-0.066-0.3-0.2-0.4c-0.1-0.1-0.317-0.184-0.65-0.25
		c-0.633-0.067-1.317,0.1-2.05,0.5c-0.733,0.433-1.417,0.983-2.05,1.65c-0.7,0.9-1.2,1.717-1.5,2.45c-0.4,0.9-0.6,1.817-0.6,2.75
		c0,0.267,0.05,0.567,0.15,0.9c0.067,0.3,0.2,0.583,0.4,0.85c0.233,0.333,0.483,0.567,0.75,0.7c0.267,0.2,0.6,0.317,1,0.35
		c0.333,0.033,0.65,0.033,0.95,0l1.75-0.65l0.15-0.1l0.15-0.05c0-0.033,0.017-0.033,0.05,0c0.1,0,0.15,0.083,0.15,0.25l-0.15,0.15
		c-0.3,0.267-0.717,0.466-1.25,0.6c-0.567,0.2-1.25,0.25-2.05,0.15c-0.867-0.1-1.533-0.45-2-1.05c-0.433-0.533-0.65-1.3-0.65-2.3
		c0-1.033,0.217-2,0.65-2.9c0.467-0.934,1.05-1.767,1.75-2.5c0.7-0.7,1.467-1.233,2.3-1.6c0.767-0.4,1.517-0.567,2.25-0.5
		c0.433,0.066,0.717,0.217,0.85,0.45C87.117,31.533,87.2,31.767,87.2,32z"/>
	<path fill-rule="evenodd" clip-rule="evenodd" fill="#666666" d="M88.75,38.65l0.15,0.1l-0.15,0.35c-0.033-0.1-0.1-0.15-0.2-0.15
		c-0.066-0.067-0.167-0.1-0.3-0.1c-0.267-0.033-0.517,0.083-0.75,0.35c-0.167,0.167-0.35,0.483-0.55,0.95
		c-0.133,0.533-0.2,0.85-0.2,0.95l0.1,0.35l0.2,0.05c0.3,0.067,0.633-0.183,1-0.75l1-1.85l0.1-0.1l0.15-0.05l0.3,0.05l0.05,0.1v0.15
		l-0.8,2.45c0,0.133,0.05,0.217,0.15,0.25c0.167,0,0.45-0.2,0.85-0.6l0.1-0.05L90,41.2l-0.1,0.15c-0.233,0.3-0.467,0.533-0.7,0.7
		l-0.45,0.15c-0.167,0-0.283-0.067-0.35-0.2c-0.1-0.1-0.15-0.233-0.15-0.4l0.05-0.55l0.1-0.45c-0.267,0.367-0.583,0.733-0.95,1.1
		c-0.2,0.2-0.434,0.3-0.7,0.3c-0.167,0-0.333-0.1-0.5-0.3c-0.133-0.2-0.2-0.4-0.2-0.6c0-0.3,0.1-0.65,0.3-1.05
		c0.2-0.433,0.467-0.8,0.8-1.1c0.367-0.3,0.8-0.434,1.3-0.4L88.75,38.65z"/>
	<path fill-rule="evenodd" clip-rule="evenodd" fill="#666666" d="M92,38.95v0.1l-0.05,0.1L91.45,41c0.5-0.8,0.833-1.3,1-1.5
		c0.267-0.3,0.517-0.45,0.75-0.45c0.2,0.034,0.316,0.117,0.35,0.25c0.067,0.067,0.1,0.2,0.1,0.4l-0.05,0.8l-0.35,1.05l1.15-1.8
		c0.233-0.333,0.467-0.5,0.7-0.5c0.2,0.067,0.35,0.183,0.45,0.35c0.1,0.167,0.15,0.35,0.15,0.55l-0.5,2.1c0,0.1,0.033,0.15,0.1,0.15
		c0.167,0,0.467-0.233,0.9-0.7h0.05v-0.05l0.1,0.05l0.05,0.05l-0.05,0.15l-0.65,0.6c-0.333,0.233-0.567,0.35-0.7,0.35
		s-0.25-0.05-0.35-0.15c-0.1-0.1-0.15-0.217-0.15-0.35l0.1-0.65l0.55-1.95c0-0.1-0.05-0.15-0.15-0.15
		c-0.033-0.033-0.083-0.017-0.15,0.05L94.7,39.7l-1.65,2.8c-0.033,0.1-0.117,0.15-0.25,0.15l-0.35-0.05l-0.1-0.05l-0.05-0.1
		l0.25-0.65c0.233-0.566,0.383-1,0.45-1.3c0.133-0.367,0.2-0.667,0.2-0.9c0-0.133-0.067-0.217-0.2-0.25c-0.267,0-0.9,0.983-1.9,2.95
		c-0.033,0.1-0.1,0.15-0.2,0.15l-0.3-0.05l-0.05-0.1l0.7-3c0.033-0.167,0.1-0.267,0.2-0.3l0.4-0.05H92z"/>
	<path fill-rule="evenodd" clip-rule="evenodd" fill="#666666" d="M99.4,39.9c0.133,0.133,0.2,0.317,0.2,0.55
		c0,0.267-0.05,0.466-0.15,0.6c-0.1,0.167-0.3,0.317-0.6,0.45c-0.333,0.233-0.85,0.483-1.55,0.75l0.1,0.35
		c0.1,0.133,0.233,0.2,0.4,0.2c0.1,0.067,0.2,0.067,0.3,0l0.4-0.2l0.75-0.55L99.4,42l0.05,0.05l0.05,0.1
		c-0.267,0.267-0.6,0.55-1,0.85c-0.267,0.1-0.583,0.133-0.95,0.1c-0.6-0.033-0.9-0.367-0.9-1c0-0.333,0.067-0.633,0.2-0.9
		c0.2-0.4,0.383-0.667,0.55-0.8l0.75-0.6l0.75-0.15C99.167,39.717,99.333,39.8,99.4,39.9z M98.85,40.05l-0.2-0.1
		c-0.2-0.034-0.45,0.216-0.75,0.75c-0.267,0.433-0.483,0.883-0.65,1.35l1-0.75c0.433-0.333,0.667-0.667,0.7-1L98.85,40.05z"/>
	<path fill-rule="evenodd" clip-rule="evenodd" fill="#666666" d="M102.55,40.05c0.233,0,0.35,0.267,0.35,0.8
		c0,0.3-0.033,0.517-0.1,0.65l-0.6,0.3v-0.05l-0.05-0.05l0.25-0.8l-0.05-0.05l-0.05-0.1c-0.1,0-0.183,0.05-0.25,0.15l-0.4,0.6
		l-0.85,1.75c0,0.067-0.033,0.1-0.1,0.1l-0.45-0.05l-0.05-0.2l0.65-2.75V40.2l0.35-0.15l0.4-0.1V40l0.05,0.05l-0.05,0.05l-0.5,1.8
		l0.5-0.85c0.3-0.5,0.483-0.783,0.55-0.85C102.25,40.033,102.383,39.983,102.55,40.05z"/>
	<path fill-rule="evenodd" clip-rule="evenodd" fill="#666666" d="M106.85,40.85l-0.75,2.45c0,0.133,0.05,0.2,0.15,0.2
		c0.167,0.067,0.45-0.117,0.85-0.55l0.1-0.05l0.05,0.1l-0.1,0.15c-0.333,0.4-0.583,0.633-0.75,0.7c-0.133,0.1-0.283,0.15-0.45,0.15
		c-0.133,0-0.233-0.067-0.3-0.2c-0.1-0.1-0.15-0.233-0.15-0.4l0.05-0.55l0.1-0.45c-0.333,0.467-0.667,0.833-1,1.1
		c-0.2,0.2-0.417,0.3-0.65,0.3c-0.233-0.066-0.4-0.167-0.5-0.3c-0.133-0.2-0.2-0.4-0.2-0.6c0-0.267,0.1-0.633,0.3-1.1
		c0.2-0.433,0.467-0.783,0.8-1.05c0.367-0.3,0.8-0.433,1.3-0.4l0.3,0.1l0.15,0.1L106,40.9l-0.2-0.2l-0.3-0.05
		c-0.267-0.033-0.517,0.083-0.75,0.35c-0.167,0.167-0.35,0.483-0.55,0.95c-0.133,0.367-0.2,0.683-0.2,0.95l0.1,0.3l0.2,0.1
		c0.333,0.067,0.667-0.2,1-0.8c0.4-0.633,0.733-1.233,1-1.8l0.1-0.1l0.15-0.05l0.25,0.05l0.05,0.1V40.85z"/>
</g>
<g>
	<path fill-rule="evenodd" clip-rule="evenodd" fill="none" stroke="#000000" stroke-width="0.25" d="M179.8,50.65
		c1.834-2.167,4.101-3.417,6.8-3.75c2.7-0.333,5.067,0.35,7.101,2.05c2.033,1.7,3.116,3.917,3.25,6.65
		c0.166,2.733-0.65,5.183-2.45,7.35c-1.833,2.167-4.1,3.4-6.8,3.7c-2.7,0.333-5.066-0.35-7.101-2.05
		c-2.033-1.667-3.116-3.867-3.25-6.6C177.184,55.267,178,52.817,179.8,50.65z"/>
	
		<linearGradient id="SVGID_22_" gradientUnits="userSpaceOnUse" x1="103.7637" y1="-159.7183" x2="122.4056" y2="-159.7183" gradientTransform="matrix(0.3219 0.9468 -0.9468 0.3219 0 0)">
		<stop  offset="0.0039" style="stop-color:#000000"/>
		<stop  offset="0.549" style="stop-color:#696969"/>
		<stop  offset="0.5882" style="stop-color:#696969"/>
		<stop  offset="0.9255" style="stop-color:#000000"/>
	</linearGradient>
	<path fill-rule="evenodd" clip-rule="evenodd" fill="url(#SVGID_22_)" d="M193.7,48.95c2.033,1.7,3.116,3.917,3.25,6.65
		c0.166,2.733-0.65,5.183-2.45,7.35l-0.55,0.55c-1.834,1.367-3.867,2.05-6.101,2.05c-2.267,0-4.25-0.7-5.949-2.1
		c-2.034-1.7-3.117-3.917-3.25-6.65c-0.167-2.733,0.666-5.167,2.5-7.3c0.066-0.067,0.25-0.267,0.55-0.6
		c1.833-1.367,3.866-2.05,6.1-2.05C190.066,46.85,192.033,47.55,193.7,48.95z"/>
	<path fill-rule="evenodd" clip-rule="evenodd" fill="none" stroke="#000000" stroke-width="0.25" d="M179.8,50.65
		c1.834-2.167,4.101-3.417,6.8-3.75c2.7-0.333,5.067,0.35,7.101,2.05c2.033,1.7,3.116,3.917,3.25,6.65
		c0.166,2.733-0.65,5.183-2.45,7.35c-1.833,2.167-4.1,3.4-6.8,3.7c-2.7,0.333-5.066-0.35-7.101-2.05
		c-2.033-1.667-3.116-3.867-3.25-6.6C177.184,55.267,178,52.817,179.8,50.65z"/>
	<path fill-rule="evenodd" clip-rule="evenodd" fill="none" stroke="#000000" stroke-width="0.15" d="M183.15,51.05
		c1.399-1.667,3.166-2.6,5.3-2.8c2.1-0.233,3.967,0.317,5.6,1.65c1.601,1.367,2.483,3.117,2.65,5.25c0.133,2.133-0.5,4.033-1.9,5.7
		c-1.366,1.667-3.116,2.617-5.25,2.85c-2.133,0.233-4-0.333-5.6-1.7c-1.634-1.333-2.517-3.083-2.65-5.25
		C181.134,54.617,181.75,52.717,183.15,51.05z"/>
	
		<radialGradient id="SVGID_23_" cx="191.5996" cy="61.6499" r="15.95" gradientTransform="matrix(1 0 0 -1 0 123.2998)" gradientUnits="userSpaceOnUse">
		<stop  offset="0" style="stop-color:#FFFFFF"/>
		<stop  offset="0.7882" style="stop-color:#000000"/>
	</radialGradient>
	<path fill-rule="evenodd" clip-rule="evenodd" fill="url(#SVGID_23_)" d="M184.15,50.25l0.5-0.6c1.433-1,3.017-1.483,4.75-1.45
		c1.767,0.033,3.316,0.6,4.649,1.7c1.601,1.367,2.483,3.117,2.65,5.25c0.133,2.133-0.5,4.033-1.9,5.7l-0.5,0.55
		c-1.399,1-2.983,1.483-4.75,1.45s-3.3-0.6-4.6-1.7c-1.634-1.333-2.517-3.066-2.65-5.2C182.134,53.817,182.75,51.917,184.15,50.25z"
		/>
	<path fill-rule="evenodd" clip-rule="evenodd" fill="#333333" d="M184.95,61.15c1.3,1.1,2.833,1.667,4.6,1.7s3.351-0.45,4.75-1.45
		c-1.434,1.434-3.133,2.217-5.1,2.35c-2,0.1-3.75-0.483-5.25-1.75c-1.634-1.333-2.517-3.083-2.65-5.25
		c-0.166-2.133,0.45-4.033,1.851-5.7c0.433-0.5,0.933-0.966,1.5-1.4l-0.5,0.6c-1.4,1.667-2.017,3.567-1.851,5.7
		C182.434,58.083,183.316,59.817,184.95,61.15z"/>
	<path fill-rule="evenodd" clip-rule="evenodd" d="M181.15,49.5c-1.834,2.133-2.667,4.567-2.5,7.3c0.133,2.733,1.216,4.95,3.25,6.65
		c1.699,1.4,3.683,2.1,5.949,2.1c2.233,0,4.267-0.683,6.101-2.05c-1.834,1.9-4.033,2.967-6.601,3.2
		c-2.566,0.233-4.816-0.467-6.75-2.1c-2.033-1.667-3.116-3.867-3.25-6.6c-0.166-2.733,0.65-5.183,2.45-7.35
		c0.566-0.667,1.2-1.25,1.9-1.75C181.4,49.233,181.217,49.433,181.15,49.5z"/>
	<path fill-rule="evenodd" clip-rule="evenodd" fill="none" stroke="#000000" stroke-width="0.25" d="M179.8,50.65
		c1.834-2.167,4.101-3.417,6.8-3.75c2.7-0.333,5.067,0.35,7.101,2.05c2.033,1.7,3.116,3.917,3.25,6.65
		c0.166,2.733-0.65,5.183-2.45,7.35c-1.833,2.167-4.1,3.4-6.8,3.7c-2.7,0.333-5.066-0.35-7.101-2.05
		c-2.033-1.667-3.116-3.867-3.25-6.6C177.184,55.267,178,52.817,179.8,50.65z"/>
	<path fill-rule="evenodd" clip-rule="evenodd" fill="#FFFFFF" d="M194.1,48.925c-0.08-0.074-0.163-0.148-0.25-0.225
		c-2.066-1.767-4.5-2.467-7.3-2.1c-2.8,0.333-5.116,1.633-6.95,3.9c-1.866,2.267-2.733,4.817-2.6,7.65
		c0.167,2.833,1.3,5.133,3.4,6.9c2.066,1.767,4.5,2.483,7.3,2.15c2.767-0.333,5.083-1.633,6.95-3.9c1.199-1.45,1.983-3.05,2.35-4.8
		c-0.345,1.85-1.161,3.583-2.45,5.2c-1.934,2.333-4.35,3.683-7.25,4.05c-2.899,0.333-5.416-0.417-7.55-2.25
		c-2.167-1.833-3.333-4.217-3.5-7.15c-0.167-2.967,0.717-5.617,2.65-7.95c1.933-2.333,4.35-3.683,7.25-4.05
		c2.866-0.367,5.383,0.367,7.55,2.2C193.842,48.677,193.975,48.802,194.1,48.925z"/>
	
		<radialGradient id="SVGID_24_" cx="164.5996" cy="61.6499" r="33.4" gradientTransform="matrix(1 0 0 -1 0 123.2998)" gradientUnits="userSpaceOnUse">
		<stop  offset="0" style="stop-color:#FFFFFF"/>
		<stop  offset="0.1059" style="stop-color:#FAFAFA"/>
		<stop  offset="0.2314" style="stop-color:#ECECEC"/>
		<stop  offset="0.3608" style="stop-color:#D5D5D5"/>
		<stop  offset="0.502" style="stop-color:#B4B4B4"/>
		<stop  offset="0.6431" style="stop-color:#8A8A8A"/>
		<stop  offset="0.7922" style="stop-color:#565656"/>
		<stop  offset="0.9412" style="stop-color:#1B1B1B"/>
		<stop  offset="1" style="stop-color:#000000"/>
	</radialGradient>
	<path fill-rule="evenodd" clip-rule="evenodd" fill="url(#SVGID_24_)" d="M196.7,55.8c-1.9,0.333-4.017,0.5-6.351,0.5
		c-2.966,0-5.666-0.267-8.1-0.8c0-2,0.634-3.75,1.9-5.25l0.5-0.6c1.433-1,3.017-1.483,4.75-1.45c1.767,0.033,3.316,0.6,4.649,1.7
		C195.884,51.433,196.767,53.4,196.7,55.8z"/>
	<g>
		
			<radialGradient id="SVGID_25_" cx="183.5996" cy="60.1499" r="16.0625" gradientTransform="matrix(1 0 0 -1 0 120.2998)" gradientUnits="userSpaceOnUse">
			<stop  offset="0" style="stop-color:#FFFFFF"/>
			<stop  offset="0.1059" style="stop-color:#FAFAFA"/>
			<stop  offset="0.2314" style="stop-color:#ECECEC"/>
			<stop  offset="0.3608" style="stop-color:#D5D5D5"/>
			<stop  offset="0.502" style="stop-color:#B4B4B4"/>
			<stop  offset="0.6431" style="stop-color:#8A8A8A"/>
			<stop  offset="0.7922" style="stop-color:#565656"/>
			<stop  offset="0.9412" style="stop-color:#1B1B1B"/>
			<stop  offset="1" style="stop-color:#000000"/>
		</radialGradient>
		<path fill-rule="evenodd" clip-rule="evenodd" fill="url(#SVGID_25_)" d="M184.15,50.25l0.5-0.6c1.433-1,3.017-1.483,4.75-1.45
			c1.767,0.033,3.316,0.6,4.649,1.7c1.601,1.367,2.483,3.117,2.65,5.25c0.133,2.133-0.5,4.033-1.9,5.7l-0.5,0.55
			c-1.399,1-2.983,1.483-4.75,1.45s-3.3-0.6-4.6-1.7c-1.634-1.333-2.517-3.066-2.65-5.2C182.134,53.817,182.75,51.917,184.15,50.25z
			"/>
		<path fill-rule="evenodd" clip-rule="evenodd" fill="none" stroke="#000000" stroke-width="0.15" d="M184.15,50.25
			c-1.4,1.667-2.017,3.567-1.851,5.7c0.134,2.133,1.017,3.867,2.65,5.2c1.3,1.1,2.833,1.667,4.6,1.7s3.351-0.45,4.75-1.45l0.5-0.55
			c1.4-1.667,2.033-3.567,1.9-5.7c-0.167-2.133-1.05-3.883-2.65-5.25c-1.333-1.1-2.883-1.667-4.649-1.7
			c-1.733-0.034-3.317,0.45-4.75,1.45L184.15,50.25z"/>
	</g>
	
		<radialGradient id="SVGID_26_" cx="182.9502" cy="44.1499" r="12.6125" gradientTransform="matrix(1 0 0 -1 0 88.2998)" gradientUnits="userSpaceOnUse">
		<stop  offset="0" style="stop-color:#FFFFFF"/>
		<stop  offset="0.1216" style="stop-color:#E7E7E7"/>
		<stop  offset="0.3804" style="stop-color:#A9A9A9"/>
		<stop  offset="0.7451" style="stop-color:#474747"/>
		<stop  offset="1" style="stop-color:#000000"/>
	</radialGradient>
	<path fill-rule="evenodd" clip-rule="evenodd" fill="url(#SVGID_26_)" d="M186.6,50.8l0.4-0.4c1-0.7,2.116-1.033,3.35-1
		c1.267,0,2.367,0.4,3.301,1.2c1.166,0.967,1.8,2.2,1.899,3.7c0.101,1.534-0.35,2.9-1.35,4.1l-0.351,0.4
		c-1,0.7-2.116,1.05-3.35,1.05c-1.267-0.033-2.384-0.45-3.35-1.25c-1.134-0.934-1.767-2.167-1.9-3.7
		C185.15,53.367,185.6,52,186.6,50.8z"/>
	<g>
		
			<radialGradient id="SVGID_27_" cx="189.75" cy="54.6499" r="7" gradientTransform="matrix(1 0 0 -1 0 109.2998)" gradientUnits="userSpaceOnUse">
			<stop  offset="0" style="stop-color:#FFFFFF"/>
			<stop  offset="0.1059" style="stop-color:#FAFAFA"/>
			<stop  offset="0.2314" style="stop-color:#ECECEC"/>
			<stop  offset="0.3608" style="stop-color:#D5D5D5"/>
			<stop  offset="0.502" style="stop-color:#B4B4B4"/>
			<stop  offset="0.6431" style="stop-color:#8A8A8A"/>
			<stop  offset="0.7922" style="stop-color:#565656"/>
			<stop  offset="0.9412" style="stop-color:#1B1B1B"/>
			<stop  offset="1" style="stop-color:#000000"/>
		</radialGradient>
		<path fill-rule="evenodd" clip-rule="evenodd" fill="url(#SVGID_27_)" d="M184.15,50.25l0.5-0.6c1.433-1,3.017-1.483,4.75-1.45
			c1.767,0.033,3.316,0.6,4.649,1.7c1.601,1.367,2.483,3.117,2.65,5.25c0.133,2.133-0.5,4.033-1.9,5.7l-0.5,0.55
			c-1.399,1-2.983,1.483-4.75,1.45s-3.3-0.6-4.6-1.7c-1.634-1.333-2.517-3.066-2.65-5.2C182.134,53.817,182.75,51.917,184.15,50.25z
			"/>
		<path fill-rule="evenodd" clip-rule="evenodd" fill="none" stroke="#000000" stroke-width="0.15" d="M184.15,50.25
			c-1.4,1.667-2.017,3.567-1.851,5.7c0.134,2.133,1.017,3.867,2.65,5.2c1.3,1.1,2.833,1.667,4.6,1.7s3.351-0.45,4.75-1.45l0.5-0.55
			c1.4-1.667,2.033-3.567,1.9-5.7c-0.167-2.133-1.05-3.883-2.65-5.25c-1.333-1.1-2.883-1.667-4.649-1.7
			c-1.733-0.034-3.317,0.45-4.75,1.45L184.15,50.25z"/>
	</g>
	
		<radialGradient id="SVGID_28_" cx="127.7324" cy="145.002" r="1.0654" gradientTransform="matrix(0.8565 -0.5162 -0.5162 -0.8565 149.7058 248.3756)" gradientUnits="userSpaceOnUse">
		<stop  offset="0" style="stop-color:#FFFFFF"/>
		<stop  offset="0.5412" style="stop-color:#777777"/>
		<stop  offset="1" style="stop-color:#000000"/>
	</radialGradient>
	<path fill-rule="evenodd" clip-rule="evenodd" fill="url(#SVGID_28_)" d="M184.95,57.85c0.233,0.433,0.383,0.833,0.45,1.2
		c0.033,0.367-0.034,0.6-0.2,0.7c-0.167,0.1-0.4,0.05-0.7-0.15c-0.3-0.233-0.583-0.55-0.85-0.95c-0.233-0.433-0.384-0.833-0.45-1.2
		c-0.033-0.367,0.033-0.6,0.2-0.7c0.166-0.1,0.399-0.033,0.699,0.2C184.434,57.15,184.717,57.45,184.95,57.85z"/>
	
		<radialGradient id="SVGID_29_" cx="138.4502" cy="145.8408" r="1.6314" gradientTransform="matrix(0.8561 -0.5168 -0.4034 -0.6682 134.207 222.3106)" gradientUnits="userSpaceOnUse">
		<stop  offset="0" style="stop-color:#FFFFFF"/>
		<stop  offset="0.5412" style="stop-color:#777777"/>
		<stop  offset="1" style="stop-color:#000000"/>
	</radialGradient>
	<path fill-rule="evenodd" clip-rule="evenodd" fill="url(#SVGID_29_)" d="M194.95,52.7c0.3,0.5,0.45,0.983,0.45,1.45
		c0.033,0.467-0.084,0.783-0.351,0.95c-0.267,0.167-0.616,0.133-1.05-0.1c-0.4-0.233-0.75-0.6-1.05-1.1s-0.45-0.983-0.45-1.45
		c-0.033-0.467,0.083-0.784,0.35-0.95c0.267-0.133,0.617-0.083,1.051,0.15C194.3,51.883,194.65,52.233,194.95,52.7z"/>
</g>
<linearGradient id="SVGID_30_" gradientUnits="userSpaceOnUse" x1="72.6826" y1="-95.6465" x2="186.7318" y2="-95.6465" gradientTransform="matrix(0.1337 0.991 -0.991 0.1337 0 0)">
	<stop  offset="0.0118" style="stop-color:#CCCCCC"/>
	<stop  offset="0.1608" style="stop-color:#F7F8F8"/>
	<stop  offset="0.1647" style="stop-color:#9C9EA1"/>
	<stop  offset="0.3137" style="stop-color:#4C4C4C"/>
	<stop  offset="0.5216" style="stop-color:#4C4C4C"/>
	<stop  offset="0.5294" style="stop-color:#EEF0F1"/>
	<stop  offset="1" style="stop-color:#FFFFFF"/>
</linearGradient>
<path fill-rule="evenodd" clip-rule="evenodd" fill="url(#SVGID_30_)" d="M146.15,77.95c10.366,11.566,15.916,25.149,16.649,40.75
	c0.733,15.566-3.6,28.6-13,39.1c-9.399,10.467-21.083,15.316-35.05,14.55c-14-0.767-26.2-6.933-36.6-18.5
	c-10.367-11.6-15.917-25.183-16.65-40.75c-0.733-15.6,3.6-28.633,13-39.1s21.083-15.317,35.05-14.55
	C123.55,60.217,135.75,66.383,146.15,77.95z"/>
<linearGradient id="SVGID_31_" gradientUnits="userSpaceOnUse" x1="67.5078" y1="-127.2222" x2="207.553" y2="-127.2222" gradientTransform="matrix(0.2189 0.9758 -0.9758 0.2189 0 0)">
	<stop  offset="0.0431" style="stop-color:#FFFFFF"/>
	<stop  offset="0.2588" style="stop-color:#4C4C4C"/>
	<stop  offset="0.451" style="stop-color:#4C4C4C"/>
	<stop  offset="0.8667" style="stop-color:#F2F2F2"/>
</linearGradient>
<path fill-rule="evenodd" clip-rule="evenodd" fill="url(#SVGID_31_)" d="M170.75,80.25l0.6,0.85c0.5,0.6,1,1,1.5,1.2l5.75,2.5
	c1.834,1,3.051,2.317,3.65,3.95c0.9,2.4,1.7,5.134,2.4,8.2c1.399,6.2,2.033,12.35,1.899,18.45
	c-0.434,19.233-8.25,34.866-23.45,46.899c-0.966,0.8-2.533,1.15-4.699,1.05c-1.733-0.066-3.067-0.3-4-0.699v-0.2
	c7.566-4.634,13.449-11.233,17.649-19.8c4.3-8.801,6.217-18.517,5.75-29.15c-0.733-16-6.283-29.933-16.649-41.8
	c-10.4-11.867-22.601-18.2-36.601-19c-4.867-0.3-9.583,0.216-14.15,1.55l-0.45-0.35c5.5-1.967,11.2-2.783,17.1-2.45
	c8.767,0.5,17.05,3.383,24.851,8.65C159.5,65.167,165.783,71.883,170.75,80.25z"/>
<linearGradient id="SVGID_32_" gradientUnits="userSpaceOnUse" x1="111.7612" y1="-73.7705" x2="191.3172" y2="-73.7705" gradientTransform="matrix(0.6159 0.7878 -0.7878 0.6159 0 0)">
	<stop  offset="0.0275" style="stop-color:#4C4C4C"/>
	<stop  offset="0.5373" style="stop-color:#B1B1B1"/>
	<stop  offset="0.6" style="stop-color:#B1B1B1"/>
	<stop  offset="1" style="stop-color:#4C4C4C"/>
</linearGradient>
<path fill-rule="evenodd" clip-rule="evenodd" fill="url(#SVGID_32_)" d="M174.95,65.6c4.633,4.9,7.883,9.55,9.75,13.95l-4,0.3
	c-0.533,0-0.9-0.067-1.101-0.2l-1-1.2c-5.133-8.467-11.666-15.3-19.6-20.5c-8.167-5.333-16.85-8.25-26.05-8.75
	c-8.233-0.434-15.9,1.133-23,4.7l0.7,0.25c-1.4,0.4-2.75,0.85-4.05,1.35l2.2-2.2c2.467-2.533,7.3-4.483,14.5-5.85
	c6.867-1.3,12.467-1.5,16.8-0.6C154.033,49.483,165.65,55.733,174.95,65.6z"/>
<linearGradient id="SVGID_33_" gradientUnits="userSpaceOnUse" x1="81.7056" y1="-93.0352" x2="226.6054" y2="-93.0352" gradientTransform="matrix(0.2667 0.9638 -0.9638 0.2667 0 0)">
	<stop  offset="0" style="stop-color:#FAF7E8"/>
	<stop  offset="0.2627" style="stop-color:#CCCCCC"/>
	<stop  offset="0.498" style="stop-color:#FAFFFF"/>
	<stop  offset="0.549" style="stop-color:#FAFFFF"/>
	<stop  offset="0.7647" style="stop-color:#E5E5E5"/>
	<stop  offset="1" style="stop-color:#FAF7E8"/>
</linearGradient>
<path fill-rule="evenodd" clip-rule="evenodd" fill="url(#SVGID_33_)" d="M164.8,153.65c-9.399,10.733-21.083,15.716-35.05,14.949
	c-14-0.8-26.2-7.133-36.6-19C82.783,137.7,77.233,123.75,76.5,107.75s3.6-29.367,13-40.1c9.4-10.767,21.083-15.75,35.05-14.95
	c14,0.8,26.2,7.133,36.601,19c10.366,11.867,15.916,25.8,16.649,41.8S174.2,142.884,164.8,153.65z"/>
<linearGradient id="SVGID_34_" gradientUnits="userSpaceOnUse" x1="70.4019" y1="-99.3467" x2="199.6091" y2="-99.3467" gradientTransform="matrix(0.1548 0.9879 -0.9879 0.1548 -4.882813e-004 0)">
	<stop  offset="0.0824" style="stop-color:#CCCCCC"/>
	<stop  offset="0.4784" style="stop-color:#EFF3F4"/>
	<stop  offset="0.6157" style="stop-color:#EEF0F1"/>
	<stop  offset="1" style="stop-color:#E5E5E5"/>
</linearGradient>
<path fill-rule="evenodd" clip-rule="evenodd" fill="url(#SVGID_34_)" d="M115.8,55.95c14,0.8,26.2,7.133,36.601,19
	c10.366,11.867,15.916,25.8,16.649,41.8s-3.6,29.384-13,40.15c-9.399,10.733-21.083,15.716-35.05,14.949c-14-0.8-26.2-7.133-36.6-19
	C74.033,140.95,68.483,127,67.75,111s3.6-29.367,13-40.1C90.15,60.133,101.833,55.15,115.8,55.95z"/>
<linearGradient id="SVGID_35_" gradientUnits="userSpaceOnUse" x1="70.4019" y1="-99.3467" x2="199.6091" y2="-99.3467" gradientTransform="matrix(0.1548 0.9879 -0.9879 0.1548 -4.882813e-004 0)">
	<stop  offset="0.0824" style="stop-color:#CCCCCC"/>
	<stop  offset="0.4784" style="stop-color:#FAFAEB"/>
	<stop  offset="0.6157" style="stop-color:#EEF0F1"/>
	<stop  offset="1" style="stop-color:#E5E5E5"/>
</linearGradient>
<path fill-rule="evenodd" clip-rule="evenodd" fill="url(#SVGID_35_)" d="M115.8,55.95c14,0.8,26.2,7.133,36.601,19
	c10.366,11.867,15.916,25.8,16.649,41.8s-3.6,29.384-13,40.15c-9.399,10.733-21.083,15.716-35.05,14.949c-14-0.8-26.2-7.133-36.6-19
	C74.033,140.95,68.483,127,67.75,111s3.6-29.367,13-40.1C90.15,60.133,101.833,55.15,115.8,55.95z"/>
<path fill-rule="evenodd" clip-rule="evenodd" fill="#CCCCCC" d="M169.05,116.75c0.467,10.434-1.366,20-5.5,28.7
	c-3.033,6.342-7.008,11.625-11.925,15.85c4.759-4.283,8.6-9.55,11.525-15.8c4.066-8.634,5.866-18.1,5.399-28.4
	c-0.733-16-6.283-29.933-16.649-41.8C141.5,63.4,129.3,57.05,115.3,56.25c-6.925-0.4-13.441,0.733-19.55,3.4
	c6.22-2.869,12.903-4.103,20.05-3.7c14,0.8,26.2,7.133,36.601,19C162.767,86.817,168.316,100.75,169.05,116.75z"/>
<linearGradient id="SVGID_36_" gradientUnits="userSpaceOnUse" x1="203.3906" y1="-78.9697" x2="236.6698" y2="-78.9697" gradientTransform="matrix(0.4905 0.8714 -0.8714 0.4905 0 0)">
	<stop  offset="0.0431" style="stop-color:#B1B1B1"/>
	<stop  offset="0.1216" style="stop-color:#B1B1B1"/>
	<stop  offset="0.2588" style="stop-color:#4C4C4C"/>
	<stop  offset="0.5647" style="stop-color:#4C4C4C"/>
	<stop  offset="0.8667" style="stop-color:#F2F2F2"/>
</linearGradient>
<path fill-rule="evenodd" clip-rule="evenodd" fill="url(#SVGID_36_)" d="M186.85,143c3.667,5.8,5.784,9.616,6.351,11.45
	c0.6,1.833,0.467,3.883-0.4,6.149c-1.066,2.7-2.967,4.817-5.7,6.351c-2.6,1.467-5.233,2.116-7.899,1.95
	c-1.533-0.101-3.283-0.551-5.25-1.351c-0.967-0.399-2.55-1.434-4.75-3.1c-1.533-1.167-2.767-2.167-3.7-3
	c4.233-2.2,8.05-5.184,11.45-8.95c1.066-1.2,2.533-3.134,4.399-5.8c0.534-0.834,1.284-1.667,2.25-2.5
	c0.134-0.167,0.7-0.384,1.7-0.65c0.467-0.133,0.934-0.25,1.4-0.35L186.85,143z"/>
<linearGradient id="SVGID_37_" gradientUnits="userSpaceOnUse" x1="161.5098" y1="-129.5815" x2="216.0738" y2="-129.5815" gradientTransform="matrix(0.2625 0.9649 -0.9649 0.2625 -4.882813e-004 0)">
	<stop  offset="0" style="stop-color:#4C4C4C"/>
	<stop  offset="0.8902" style="stop-color:#FAFFFF"/>
</linearGradient>
<path fill-rule="evenodd" clip-rule="evenodd" fill="url(#SVGID_37_)" d="M189.2,155.1c0.6,1.867,0.467,3.934-0.4,6.2
	c-1.066,2.667-2.967,4.767-5.7,6.3c-0.8,0.467-1.8,0.917-3,1.351c-1.833,0-3.883-0.467-6.149-1.4c-0.967-0.399-2.55-1.434-4.75-3.1
	c-1.533-1.167-2.767-2.167-3.7-3c4.233-2.2,8.05-5.184,11.45-8.95c1.066-1.2,2.533-3.134,4.399-5.8c0.434-0.7,1.101-1.45,2-2.25
	C186.717,149.884,188.667,153.434,189.2,155.1z"/>
<linearGradient id="SVGID_38_" gradientUnits="userSpaceOnUse" x1="99.1836" y1="-134.8555" x2="208.4819" y2="-134.8555" gradientTransform="matrix(0.1892 0.9819 -0.9819 0.1892 0 0)">
	<stop  offset="0.0431" style="stop-color:#B1B1B1"/>
	<stop  offset="0.1216" style="stop-color:#B1B1B1"/>
	<stop  offset="0.2588" style="stop-color:#4C4C4C"/>
	<stop  offset="0.5647" style="stop-color:#4C4C4C"/>
	<stop  offset="0.8667" style="stop-color:#F2F2F2"/>
</linearGradient>
<path fill-rule="evenodd" clip-rule="evenodd" fill="url(#SVGID_38_)" d="M178.6,78.45l1,1.2c0.2,0.133,0.567,0.2,1.101,0.2l4-0.3
	l2.2,1.65c1.566,1.367,2.699,2.667,3.399,3.9c1.434,2.6,2.717,7.25,3.851,13.95c1.533,8.967,1.6,17.101,0.199,24.4
	c-0.533,2.934-1.449,6.184-2.75,9.75c-1.566,4.333-3.199,7.666-4.899,10c-0.467,0.1-0.934,0.217-1.4,0.35
	c-1,0.267-1.566,0.483-1.7,0.65c-0.966,0.833-1.716,1.666-2.25,2.5c-1.933,2.866-3.699,5.116-5.3,6.75
	c-4.166,4.366-8.866,7.566-14.1,9.6l-0.2-0.05c0.566-0.167,1.017-0.4,1.35-0.7c15.2-12.033,23.017-27.666,23.45-46.899
	c0.134-6.101-0.5-12.25-1.899-18.45c-0.7-3.066-1.5-5.8-2.4-8.2c-0.6-1.633-1.816-2.95-3.65-3.95l-5.75-2.5c-0.5-0.2-1-0.6-1.5-1.2
	l-0.6-0.85c-4.967-8.367-11.25-15.083-18.85-20.15c-7.801-5.267-16.084-8.15-24.851-8.65c-5.899-0.333-11.583,0.483-17.05,2.45
	h-0.05c7.1-3.566,14.767-5.133,23-4.7c9.2,0.5,17.883,3.417,26.05,8.75C166.934,63.15,173.467,69.983,178.6,78.45z"/>
<path fill-rule="evenodd" clip-rule="evenodd" fill="none" stroke="#000000" stroke-width="0.5" d="M109.55,59.45
	C95.583,58.683,83.9,63.533,74.5,74s-13.733,23.5-13,39.1c0.733,15.567,6.283,29.15,16.65,40.75c10.4,11.567,22.6,17.733,36.6,18.5
	c13.967,0.767,25.65-4.083,35.05-14.55c9.4-10.5,13.733-23.533,13-39.1c-0.733-15.601-6.283-29.184-16.649-40.75
	C135.75,66.383,123.55,60.217,109.55,59.45z"/>
<linearGradient id="SVGID_39_" gradientUnits="userSpaceOnUse" x1="70.3989" y1="-96.4502" x2="188.2065" y2="-96.4502" gradientTransform="matrix(0.1337 0.991 -0.991 0.1337 4.882813e-004 0)">
	<stop  offset="0.0118" style="stop-color:#CCCCCC"/>
	<stop  offset="0.1608" style="stop-color:#F7F8F8"/>
	<stop  offset="0.1647" style="stop-color:#9C9EA1"/>
	<stop  offset="0.3137" style="stop-color:#4C4C4C"/>
	<stop  offset="0.5216" style="stop-color:#4C4C4C"/>
	<stop  offset="0.5294" style="stop-color:#EEF0F1"/>
	<stop  offset="1" style="stop-color:#FFFFFF"/>
</linearGradient>
<path fill-rule="evenodd" clip-rule="evenodd" fill="url(#SVGID_39_)" d="M110.25,57.2c14.366,0.8,26.884,7.183,37.55,19.15
	c10.667,11.933,16.367,25.95,17.101,42.05c0.733,16.1-3.717,29.566-13.351,40.399c-9.633,10.834-21.633,15.851-36,15.05
	c-14.367-0.8-26.867-7.183-37.5-19.149C67.383,142.767,61.667,128.733,60.9,112.6c-0.733-16.1,3.717-29.55,13.35-40.35
	C83.883,61.417,95.883,56.4,110.25,57.2z M146.15,77.95c-10.4-11.567-22.601-17.733-36.601-18.5C95.583,58.683,83.9,63.533,74.5,74
	s-13.733,23.5-13,39.1c0.733,15.567,6.283,29.15,16.65,40.75c10.4,11.567,22.6,17.733,36.6,18.5
	c13.967,0.767,25.65-4.083,35.05-14.55c9.4-10.5,13.733-23.533,13-39.1C162.066,103.1,156.517,89.517,146.15,77.95z"/>
<path fill-rule="evenodd" clip-rule="evenodd" fill="#999999" d="M108.8,59.45l-2.2-0.1c1.3,0,2.283,0.033,2.95,0.1
	c14,0.767,26.2,6.933,36.601,18.5c10.366,11.566,15.916,25.149,16.649,40.75c0.7,15.133-3.399,27.899-12.3,38.3
	c-6.698,7.802-14.698,12.61-24,14.425c9.108-2.059,16.925-6.95,23.45-14.675c8.767-10.4,12.8-23.083,12.1-38.05
	c-0.733-15.601-6.283-29.184-16.649-40.75C135,66.383,122.8,60.217,108.8,59.45z"/>
<path fill-rule="evenodd" clip-rule="evenodd" fill="#E5E5E5" d="M109.75,63.8c12.9,0.733,24.15,6.434,33.75,17.1
	s14.733,23.183,15.4,37.55c0.666,14.399-3.334,26.434-12,36.1c-8.667,9.667-19.45,14.134-32.351,13.4
	c-12.9-0.7-24.15-6.384-33.75-17.05c-9.566-10.7-14.683-23.233-15.35-37.601c-0.667-14.366,3.316-26.383,11.95-36.05
	C86.067,67.55,96.85,63.067,109.75,63.8z M142.45,82.15c-9.267-10.367-20.134-15.9-32.6-16.6C97.383,64.85,86.967,69.2,78.6,78.6
	c-8.367,9.367-12.233,21.034-11.6,35c0.667,13.967,5.633,26.134,14.9,36.5c9.267,10.367,20.117,15.884,32.55,16.551
	c12.467,0.699,22.883-3.634,31.25-13c8.399-9.4,12.267-21.084,11.6-35.051C156.667,104.667,151.717,92.517,142.45,82.15z"/>
<path fill-rule="evenodd" clip-rule="evenodd" fill="#B2B2B2" d="M108.65,63.775l1.1,0.025c12.9,0.733,24.15,6.434,33.75,17.1
	s14.733,23.183,15.4,37.55c0.633,13.967-3.15,25.75-11.351,35.35c-6.138,7.19-13.479,11.641-22.024,13.351
	c8.425-1.884,15.649-6.4,21.675-13.551c8.1-9.566,11.833-21.283,11.2-35.149c-0.667-14.367-5.801-26.884-15.4-37.55
	s-20.85-16.367-33.75-17.1L108.65,63.775z"/>
<linearGradient id="SVGID_40_" gradientUnits="userSpaceOnUse" x1="91.209" y1="-58.5786" x2="200.2408" y2="-58.5786" gradientTransform="matrix(0.3453 0.9385 -0.9385 0.3453 0 0)">
	<stop  offset="0" style="stop-color:#FAF7E8"/>
	<stop  offset="0.2627" style="stop-color:#CCCCCC"/>
	<stop  offset="0.5333" style="stop-color:#EFF3F4"/>
	<stop  offset="0.7216" style="stop-color:#EEF0F1"/>
	<stop  offset="1" style="stop-color:#E5E5E5"/>
</linearGradient>
<path fill-rule="evenodd" clip-rule="evenodd" fill="url(#SVGID_40_)" d="M100.6,66.1c3.033-0.567,6.117-0.75,9.25-0.55
	c12.466,0.7,23.333,6.233,32.6,16.6s14.217,22.517,14.85,36.45c0.367,7.967-0.866,15.417-3.7,22.351
	c-2.767,6.666-6.75,12.217-11.949,16.649l-43.9,18.75l-30.2-14.85l-17.6-52l17-32.9L100.6,66.1z"/>
<path fill-rule="evenodd" clip-rule="evenodd" fill="#B2B2B2" d="M107.35,65.55c-0.434,0-0.767-0.017-1-0.05l3.5,0.05
	c12.466,0.7,23.333,6.233,32.6,16.6s14.217,22.517,14.85,36.45c0.367,7.967-0.866,15.417-3.7,22.351
	c-2.767,6.666-6.75,12.217-11.949,16.649L96.55,175.8l42.601-18.2c5.199-4.433,9.183-9.983,11.949-16.649
	c2.834-6.934,4.067-14.384,3.7-22.351c-0.633-13.933-5.583-26.083-14.85-36.45S119.817,66.25,107.35,65.55z"/>
<linearGradient id="SVGID_41_" gradientUnits="userSpaceOnUse" x1="120.9619" y1="-54.1489" x2="185.5452" y2="-54.1489" gradientTransform="matrix(0.7173 0.6968 -0.6968 0.7173 0 0)">
	<stop  offset="0.0275" style="stop-color:#4C4C4C"/>
	<stop  offset="0.5373" style="stop-color:#B1B1B1"/>
	<stop  offset="0.6" style="stop-color:#B1B1B1"/>
	<stop  offset="1" style="stop-color:#4C4C4C"/>
</linearGradient>
<path fill-rule="evenodd" clip-rule="evenodd" fill="url(#SVGID_41_)" d="M179.6,79.65l-6.75,2.65c-0.5-0.2-1-0.6-1.5-1.2l-0.6-0.85
	c-4.967-8.367-11.25-15.083-18.85-20.15c-7.801-5.267-16.084-8.15-24.851-8.65c-5.899-0.333-11.583,0.483-17.05,2.45h-0.05
	c7.1-3.566,14.767-5.133,23-4.7c9.2,0.5,17.883,3.417,26.05,8.75c7.934,5.2,14.467,12.033,19.6,20.5L179.6,79.65z"/>
<path fill-rule="evenodd" clip-rule="evenodd" fill="#FFFFFF" d="M187.9,156.45c0.466,1.5,0.433,3.184-0.101,5.05
	c-0.6,2.2-1.783,4.083-3.55,5.65c1.366-1.534,2.267-3.267,2.7-5.2c0.366-1.667,0.35-3.167-0.05-4.5c-0.601-1.9-2.567-5.45-5.9-10.65
	l1-1C185.366,151.134,187.333,154.684,187.9,156.45z"/>
<radialGradient id="SVGID_42_" cx="156.4502" cy="94.1504" r="52.025" gradientTransform="matrix(1 0 0 -1 0 188.3008)" gradientUnits="userSpaceOnUse">
	<stop  offset="0" style="stop-color:#000000"/>
	<stop  offset="1" style="stop-color:#FFFFFF"/>
</radialGradient>
<path fill-rule="evenodd" clip-rule="evenodd" fill="url(#SVGID_42_)" d="M107.35,65.55c-0.434,0-0.767-0.017-1-0.05l3.5,0.05
	c12.466,0.7,23.333,6.233,32.6,16.6s14.217,22.517,14.85,36.45c0.367,7.967-0.866,15.417-3.7,22.351
	c-2.767,6.666-6.75,12.217-11.949,16.649h-2.5c5.199-4.433,9.183-9.983,11.949-16.649c2.834-6.934,4.067-14.384,3.7-22.351
	c-0.633-13.933-5.583-26.083-14.85-36.45S119.817,66.25,107.35,65.55z"/>
<path fill-rule="evenodd" clip-rule="evenodd" fill="none" stroke="#FFFFFF" stroke-width="6" d="M177.1,28.3l20,14.5l3.75,4.75
	c2.5,4.167,3.75,8.75,3.75,13.75c0,7.434-0.483,23.117-1.449,47.05c-1.034,25.801-1.884,40.617-2.551,44.45
	c-0.633,3.533-1.816,6.351-3.55,8.45l-2.45,2.05"/>
<g>
	<g>
		<path fill-rule="evenodd" clip-rule="evenodd" fill="#191919" d="M56.65,123.5c-0.4-9.134,2.05-16.767,7.35-22.9
			c5.3-6.1,11.883-8.933,19.75-8.5c7.867,0.467,14.733,4.067,20.6,10.801c5.867,6.767,9,14.716,9.4,23.85
			c0.433,9.134-2,16.767-7.3,22.9c-5.3,6.133-11.883,8.966-19.75,8.5c-7.9-0.434-14.784-4.051-20.65-10.851
			C60.183,140.533,57.05,132.6,56.65,123.5z"/>
		<path fill-rule="evenodd" clip-rule="evenodd" fill="none" stroke="#000000" d="M56.65,123.5c0.4,9.1,3.533,17.033,9.4,23.8
			c5.867,6.8,12.75,10.417,20.65,10.851c7.867,0.466,14.45-2.367,19.75-8.5c5.3-6.134,7.733-13.767,7.3-22.9
			c-0.4-9.134-3.533-17.083-9.4-23.85c-5.867-6.733-12.733-10.334-20.6-10.801c-7.867-0.433-14.45,2.4-19.75,8.5
			C58.7,106.733,56.25,114.366,56.65,123.5z"/>
	</g>
	<path fill-rule="evenodd" clip-rule="evenodd" fill="none" stroke="#000000" stroke-width="0.1" d="M48.2,89.6
		c8.2-9.2,18.433-13.467,30.7-12.8c12.267,0.667,22.95,6.1,32.05,16.3c9.1,10.167,13.983,22.101,14.649,35.801
		c0.634,13.699-3.166,25.149-11.399,34.35s-18.483,13.467-30.75,12.8c-12.267-0.666-22.95-6.083-32.05-16.25
		c-9.1-10.166-13.967-22.1-14.6-35.8C36.167,110.267,39.967,98.8,48.2,89.6z"/>
	
		<linearGradient id="SVGID_43_" gradientUnits="userSpaceOnUse" x1="80.084" y1="-17.1416" x2="278.1262" y2="-17.1416" gradientTransform="matrix(0.4409 0.8975 -0.8975 0.4409 -2.441406e-004 0)">
		<stop  offset="0" style="stop-color:#B1B1B1"/>
		<stop  offset="0.3843" style="stop-color:#EAEAEA"/>
		<stop  offset="0.6157" style="stop-color:#E8E8E8"/>
		<stop  offset="0.9882" style="stop-color:#B1B1B1"/>
	</linearGradient>
	<path fill-rule="evenodd" clip-rule="evenodd" fill="url(#SVGID_43_)" d="M48.2,89.6c-8.233,9.2-12.034,20.667-11.4,34.4
		c0.633,13.7,5.5,25.634,14.6,35.8c9.1,10.167,19.783,15.584,32.05,16.25c12.267,0.667,22.517-3.6,30.75-12.8
		s12.033-20.65,11.399-34.35c-0.666-13.7-5.55-25.634-14.649-35.801c-9.1-10.2-19.784-15.633-32.05-16.3
		C66.633,76.133,56.4,80.4,48.2,89.6z M47.15,88.4c8.5-9.5,19.067-13.883,31.7-13.15c12.667,0.7,23.7,6.3,33.1,16.8
		c9.399,10.5,14.416,22.816,15.05,36.95c0.667,14.134-3.25,25.95-11.75,35.45s-19.067,13.899-31.7,13.2
		c-12.633-0.7-23.65-6.301-33.05-16.801S36.067,138.033,35.4,123.9C34.767,109.733,38.683,97.9,47.15,88.4z"/>
	
		<linearGradient id="SVGID_44_" gradientUnits="userSpaceOnUse" x1="93.9888" y1="-22.3535" x2="199.9051" y2="-22.3535" gradientTransform="matrix(0.409 0.9125 -0.9125 0.409 4.882813e-004 0)">
		<stop  offset="0" style="stop-color:#B1B1B1"/>
		<stop  offset="0.4902" style="stop-color:#FFFFFF"/>
		<stop  offset="0.5333" style="stop-color:#FFFFFF"/>
		<stop  offset="0.9882" style="stop-color:#B1B1B1"/>
	</linearGradient>
	<path fill-rule="evenodd" clip-rule="evenodd" fill="url(#SVGID_44_)" d="M51.4,159.8c-9.1-10.166-13.967-22.1-14.6-35.8
		c-0.633-13.733,3.167-25.2,11.4-34.4c8.2-9.2,18.433-13.467,30.7-12.8c12.267,0.667,22.95,6.1,32.05,16.3
		c9.1,10.167,13.983,22.101,14.649,35.801c0.634,13.699-3.166,25.149-11.399,34.35s-18.483,13.467-30.75,12.8
		C71.183,175.384,60.5,169.967,51.4,159.8z M52.75,94.7c-7.067,7.934-10.333,17.8-9.8,29.6c0.566,11.834,4.767,22.117,12.6,30.851
		c7.833,8.767,17.034,13.449,27.6,14.05c10.567,0.566,19.383-3.117,26.45-11.05c7.1-7.934,10.383-17.801,9.85-29.601
		c-0.534-11.8-4.733-22.083-12.6-30.85c-7.867-8.767-17.067-13.434-27.6-14C68.683,83.1,59.85,86.767,52.75,94.7z"/>
	<path fill-rule="evenodd" clip-rule="evenodd" fill="none" stroke="#000000" d="M64,100.6c5.3-6.1,11.883-8.933,19.75-8.5
		c3.967,0.233,7.783,1.351,11.45,3.351c3.091,1.691,5.892,3.899,8.4,6.625c-3.045-3.493-6.512-6.302-10.4-8.425
		c-4.5-2.5-9.184-3.884-14.05-4.15c-9.233-0.5-16.933,2.684-23.1,9.55c-6.2,6.834-9.066,15.351-8.6,25.55
		c0.466,10.2,4.133,19.084,11,26.65c6.833,7.566,14.867,11.616,24.1,12.15c9.233,0.5,16.95-2.684,23.15-9.551
		c6.167-6.866,9.017-15.399,8.55-25.6c-0.208-4.449-1.108-8.749-2.7-12.9c1.292,3.634,2.025,7.434,2.2,11.4
		c0.433,9.134-2,16.767-7.3,22.9c-5.3,6.133-11.883,8.966-19.75,8.5c-7.9-0.434-14.784-4.051-20.65-10.851
		c-5.867-6.767-9-14.7-9.4-23.8C56.25,114.366,58.7,106.733,64,100.6z M104.65,103.3l-1.05-1.225 M111.55,115.35l-0.6-1.55"/>
	<linearGradient id="SVGID_45_" gradientUnits="userSpaceOnUse" x1="42.894" y1="126.4473" x2="119.5059" y2="126.4473">
		<stop  offset="0" style="stop-color:#979797"/>
		<stop  offset="1" style="stop-color:#191919"/>
	</linearGradient>
	<path fill-rule="evenodd" clip-rule="evenodd" fill="url(#SVGID_45_)" d="M42.95,124.3c-0.534-11.8,2.733-21.666,9.8-29.6
		c7.1-7.934,15.933-11.6,26.5-11c10.533,0.566,19.733,5.233,27.6,14c7.867,8.767,12.066,19.05,12.6,30.85
		c0.533,11.8-2.75,21.667-9.85,29.601c-7.067,7.933-15.883,11.616-26.45,11.05c-10.566-0.601-19.767-5.283-27.6-14.05
		C47.717,146.417,43.517,136.134,42.95,124.3z M79.15,89.5c-9.233-0.5-16.933,2.684-23.1,9.55c-6.2,6.834-9.066,15.351-8.6,25.55
		c0.466,10.2,4.133,19.084,11,26.65c6.833,7.566,14.867,11.616,24.1,12.15c9.233,0.5,16.95-2.684,23.15-9.551
		c6.167-6.866,9.017-15.399,8.55-25.6s-4.133-19.083-11-26.65C96.383,94.033,88.35,90,79.15,89.5z"/>
	<path fill-rule="evenodd" clip-rule="evenodd" fill="none" stroke="#000000" d="M75.25,107.85c3.667-3.866,8.233-5.649,13.7-5.35
		c5.466,0.267,10.233,2.55,14.3,6.85c4.067,4.267,6.233,9.284,6.5,15.051s-1.433,10.566-5.1,14.399
		c-3.667,3.867-8.233,5.667-13.7,5.4c-5.467-0.267-10.233-2.533-14.3-6.8c-4.066-4.301-6.233-9.334-6.5-15.101
		S71.583,111.717,75.25,107.85z M56.65,123.5c0.4,9.1,3.533,17.033,9.4,23.8c5.867,6.8,12.75,10.417,20.65,10.851
		c7.867,0.466,14.45-2.367,19.75-8.5c5.3-6.134,7.733-13.767,7.3-22.9c-0.4-9.134-3.533-17.083-9.4-23.85
		c-5.867-6.733-12.733-10.334-20.6-10.801c-7.867-0.433-14.45,2.4-19.75,8.5C58.7,106.733,56.25,114.366,56.65,123.5z"/>
	<path fill-rule="evenodd" clip-rule="evenodd" fill="#191919" d="M76.65,137.4c-4.066-4.301-6.233-9.334-6.5-15.101
		s1.434-10.583,5.1-14.45c3.667-3.866,8.233-5.649,13.7-5.35c3.367,0.167,6.566,1.184,9.6,3.05c2.934,1.8,5.367,4.167,7.3,7.101
		c-1.7-2.267-3.767-4.084-6.2-5.45c-2.533-1.434-5.183-2.217-7.95-2.351c-4.733-0.233-8.7,1.267-11.9,4.5
		c-3.2,3.233-4.683,7.25-4.45,12.051c0.267,4.833,2.167,9.033,5.7,12.6c3.534,3.566,7.667,5.467,12.4,5.7
		c4.433,0.233,8.2-1.066,11.3-3.9c3.1-2.833,4.767-6.434,5-10.8c0.133,5.6-1.617,10.267-5.25,14c-3.667,3.733-8.183,5.467-13.55,5.2
		C85.483,143.934,80.717,141.667,76.65,137.4z"/>
	<path fill-rule="evenodd" clip-rule="evenodd" d="M97.05,108.85c-3-0.133-5.517,0.867-7.55,3c-2,2.134-2.933,4.784-2.8,7.95
		c0.167,3.2,1.367,5.983,3.6,8.351c2.233,2.366,4.85,3.616,7.85,3.75c3.033,0.166,5.55-0.817,7.55-2.95c2.033-2.134,2.966-4.8,2.8-8
		c-0.133-3.167-1.333-5.934-3.6-8.3C102.667,110.283,100.05,109.017,97.05,108.85z M75.35,121.4
		c-0.233-4.801,1.25-8.817,4.45-12.051c3.2-3.233,7.167-4.733,11.9-4.5c4.767,0.233,8.9,2.134,12.4,5.7
		c3.533,3.566,5.417,7.767,5.65,12.601c0.267,4.8-1.2,8.816-4.4,12.05c-3.2,3.267-7.167,4.767-11.9,4.5
		c-4.733-0.233-8.867-2.134-12.4-5.7C77.517,130.434,75.617,126.233,75.35,121.4z"/>
	<path fill-rule="evenodd" clip-rule="evenodd" fill="#FFFFFF" d="M77.325,76.775L78.9,76.8c12.267,0.667,22.95,6.1,32.05,16.3
		c9.1,10.167,13.983,22.101,14.649,35.801c0.601,13.333-3.017,24.583-10.85,33.75c-7.833,9.1-17.667,13.583-29.5,13.449
		c11.6-0.133,21.217-4.733,28.85-13.8c7.633-9.1,11.15-20.233,10.55-33.399c-0.634-13.7-5.5-25.634-14.601-35.801
		C100.917,82.9,90.233,77.467,78,76.8L77.325,76.775z"/>
	<g>
		<path fill-rule="evenodd" clip-rule="evenodd" fill="#191919" d="M64,100.6c-5.3,6.134-7.75,13.767-7.35,22.9
			c0.4,9.1,3.533,17.033,9.4,23.8c5.867,6.8,12.75,10.417,20.65,10.851c7.867,0.466,14.45-2.367,19.75-8.5
			c5.3-6.134,7.733-13.767,7.3-22.9c-0.175-3.967-0.908-7.767-2.2-11.4c1.592,4.151,2.493,8.451,2.7,12.9
			c0.467,10.2-2.383,18.733-8.55,25.6c-6.2,6.867-13.917,10.051-23.15,9.551c-9.233-0.534-17.267-4.584-24.1-12.15
			c-6.867-7.566-10.534-16.45-11-26.65c-0.467-10.199,2.4-18.716,8.6-25.55c6.167-6.866,13.867-10.05,23.1-9.55
			c4.867,0.267,9.55,1.65,14.05,4.15c3.888,2.123,7.355,4.932,10.4,8.425c-2.508-2.726-5.309-4.934-8.4-6.625
			c-3.667-2-7.483-3.117-11.45-3.351C75.883,91.667,69.3,94.5,64,100.6z"/>
		<path fill-rule="evenodd" clip-rule="evenodd" fill="none" stroke="#191919" d="M64,100.6c5.3-6.1,11.883-8.933,19.75-8.5
			c3.967,0.233,7.783,1.351,11.45,3.351c3.091,1.691,5.892,3.899,8.4,6.625c-3.045-3.493-6.512-6.302-10.4-8.425
			c-4.5-2.5-9.184-3.884-14.05-4.15c-9.233-0.5-16.933,2.684-23.1,9.55c-6.2,6.834-9.066,15.351-8.6,25.55
			c0.466,10.2,4.133,19.084,11,26.65c6.833,7.566,14.867,11.616,24.1,12.15c9.233,0.5,16.95-2.684,23.15-9.551
			c6.167-6.866,9.017-15.399,8.55-25.6c-0.208-4.449-1.108-8.749-2.7-12.9c1.292,3.634,2.025,7.434,2.2,11.4
			c0.433,9.134-2,16.767-7.3,22.9c-5.3,6.133-11.883,8.966-19.75,8.5c-7.9-0.434-14.784-4.051-20.65-10.851
			c-5.867-6.767-9-14.7-9.4-23.8C56.25,114.366,58.7,106.733,64,100.6z M111.55,115.35l-0.6-1.55 M103.6,102.075l1.05,1.225"/>
	</g>
	
		<radialGradient id="SVGID_46_" cx="99.8501" cy="119.6465" r="7.877" gradientTransform="matrix(1 0 0 -1 0 239.293)" gradientUnits="userSpaceOnUse">
		<stop  offset="0" style="stop-color:#FFFFFF"/>
		<stop  offset="1" style="stop-color:#000000"/>
	</radialGradient>
	<path fill-rule="evenodd" clip-rule="evenodd" fill="url(#SVGID_46_)" d="M100.25,127.75c-2.1-0.1-3.933-0.983-5.5-2.65
		c-1.567-1.666-2.4-3.616-2.5-5.85c-0.133-2.233,0.517-4.116,1.95-5.65c1.4-1.5,3.15-2.183,5.25-2.05
		c2.133,0.101,3.983,0.983,5.55,2.65c1.567,1.666,2.4,3.616,2.5,5.85s-0.55,4.101-1.95,5.601
		C104.117,127.15,102.35,127.85,100.25,127.75z"/>
	
		<radialGradient id="SVGID_47_" cx="99.8501" cy="119.6465" r="7.877" gradientTransform="matrix(1 0 0 -1 0 239.293)" gradientUnits="userSpaceOnUse">
		<stop  offset="0" style="stop-color:#FFFFFF"/>
		<stop  offset="1" style="stop-color:#000000"/>
	</radialGradient>
	<path fill-rule="evenodd" clip-rule="evenodd" fill="url(#SVGID_47_)" d="M100.25,127.75c-2.1-0.1-3.933-0.983-5.5-2.65
		c-1.567-1.666-2.4-3.616-2.5-5.85c-0.133-2.233,0.517-4.116,1.95-5.65c1.4-1.5,3.15-2.183,5.25-2.05
		c2.133,0.101,3.983,0.983,5.55,2.65c1.567,1.666,2.4,3.616,2.5,5.85s-0.55,4.101-1.95,5.601
		C104.117,127.15,102.35,127.85,100.25,127.75z"/>
	
		<radialGradient id="SVGID_48_" cx="89.8501" cy="124.6504" r="1.775" gradientTransform="matrix(1 0 0 -1 0 249.3008)" gradientUnits="userSpaceOnUse">
		<stop  offset="0" style="stop-color:#FFFFFF"/>
		<stop  offset="1" style="stop-color:#000000"/>
	</radialGradient>
	<path fill-rule="evenodd" clip-rule="evenodd" fill="url(#SVGID_48_)" d="M89.95,126.45c-0.467-0.033-0.883-0.233-1.25-0.601
		c-0.333-0.366-0.517-0.8-0.55-1.3s0.117-0.916,0.45-1.25c0.3-0.366,0.7-0.533,1.2-0.5c0.467,0.033,0.883,0.233,1.25,0.601
		c0.333,0.366,0.517,0.816,0.55,1.35c0.033,0.5-0.117,0.917-0.45,1.25C90.817,126.333,90.417,126.483,89.95,126.45z"/>
	<g>
		<linearGradient id="SVGID_49_" gradientUnits="userSpaceOnUse" x1="56.6079" y1="125.1279" x2="113.7988" y2="125.1279">
			<stop  offset="0" style="stop-color:#3333CC"/>
			<stop  offset="1" style="stop-color:#66CCFF"/>
			<stop  offset="1" style="stop-color:#3399CC"/>
			<stop  offset="1" style="stop-color:#3399CC"/>
			<stop  offset="1" style="stop-color:#3399CC"/>
			<stop  offset="1" style="stop-color:#3399CC"/>
			<stop  offset="1" style="stop-color:#3399CC"/>
			<stop  offset="1" style="stop-color:#3399CC"/>
		</linearGradient>
		<path fill-rule="evenodd" clip-rule="evenodd" fill="url(#SVGID_49_)" d="M56.65,123.5c-0.4-9.134,2.05-16.767,7.35-22.9
			c5.3-6.1,11.883-8.933,19.75-8.5c7.867,0.467,14.733,4.067,20.6,10.801c5.867,6.767,9,14.716,9.4,23.85
			c0.433,9.134-2,16.767-7.3,22.9c-5.3,6.133-11.883,8.966-19.75,8.5c-7.9-0.434-14.784-4.051-20.65-10.851
			C60.183,140.533,57.05,132.6,56.65,123.5z"/>
		<path fill-rule="evenodd" clip-rule="evenodd" fill="none" stroke="#000000" d="M56.65,123.5c0.4,9.1,3.533,17.033,9.4,23.8
			c5.867,6.8,12.75,10.417,20.65,10.851c7.867,0.466,14.45-2.367,19.75-8.5c5.3-6.134,7.733-13.767,7.3-22.9
			c-0.4-9.134-3.533-17.083-9.4-23.85c-5.867-6.733-12.733-10.334-20.6-10.801c-7.867-0.433-14.45,2.4-19.75,8.5
			C58.7,106.733,56.25,114.366,56.65,123.5z"/>
	</g>
	<path fill-rule="evenodd" clip-rule="evenodd" fill="none" stroke="#000000" d="M43.9,124.35
		c0.533,11.534,4.617,21.567,12.25,30.101c7.667,8.566,16.65,13.133,26.95,13.7c10.3,0.566,18.9-3.017,25.8-10.75
		c6.934-7.733,10.133-17.367,9.6-28.9c-0.533-11.5-4.617-21.517-12.25-30.05c-7.667-8.567-16.65-13.133-26.95-13.7
		C69,84.183,60.4,87.767,53.5,95.5C46.567,103.233,43.367,112.85,43.9,124.35z"/>
	<path fill-rule="evenodd" clip-rule="evenodd" fill="none" stroke="#000000" d="M45.3,124.55c0.534,11.066,4.5,20.7,11.9,28.9
		c7.433,8.233,16.133,12.616,26.1,13.149c9.967,0.567,18.284-2.866,24.95-10.3c6.7-7.434,9.8-16.684,9.3-27.75
		c-0.533-11.066-4.5-20.7-11.9-28.899c-7.4-8.2-16.083-12.583-26.05-13.15c-9.967-0.533-18.3,2.917-25,10.35
		C47.9,104.25,44.8,113.483,45.3,124.55z"/>
	<path fill-rule="evenodd" clip-rule="evenodd" fill="none" stroke="#000000" d="M45.8,124.4c0.5,10.733,4.434,20.066,11.8,28
		c7.367,7.933,16,12.166,25.9,12.699c9.9,0.534,18.183-2.8,24.85-10c6.633-7.199,9.7-16.149,9.2-26.85s-4.433-20.017-11.8-27.95
		s-16-12.183-25.9-12.75c-9.934-0.533-18.217,2.8-24.85,10C48.333,104.75,45.267,113.7,45.8,124.4z"/>
</g>
</svg>
