<?xml version="1.0" encoding="utf-8"?>
<!-- Generator: Adobe Illustrator 16.0.0, SVG Export Plug-In . SVG Version: 6.00 Build 0)  -->
<!DOCTYPE svg PUBLIC "-//W3C//DTD SVG 1.1//EN" "http://www.w3.org/Graphics/SVG/1.1/DTD/svg11.dtd">
<svg version="1.1" id="Layer_1" xmlns="http://www.w3.org/2000/svg" xmlns:xlink="http://www.w3.org/1999/xlink" x="0px" y="0px"
	 width="239px" height="176px" viewBox="0 0 239 176" enable-background="new 0 0 239 176" xml:space="preserve">
<path fill-rule="evenodd" clip-rule="evenodd" fill="none" stroke="#737373" stroke-width="5" stroke-linecap="round" stroke-linejoin="round" stroke-miterlimit="3" d="
	M200.9,17.5c-0.534-0.533-0.967-1.1-1.301-1.7c-0.433-0.767-0.716-1.25-0.85-1.45c-0.267-0.267-0.566-0.617-0.9-1.05h-0.05
	l-0.05-0.05l-2.35-1.45l-0.25-0.1l-3.801-2L189.9,9.05L178.65,5.2L177.3,4.85L176.9,4.8L171.8,3.65h-0.149
	c-1.667-0.333-3.434-0.633-5.301-0.9h-0.1l-1.7-0.2l-0.1-0.05L163,2.35h-0.35l-3.5-0.3H159.1l-1.649-0.1L155.6,1.9
	c-1.033-0.033-2.05-0.033-3.05,0l-2.399,0.05L145.6,2.3c-8.767,1.067-17.333,3.483-25.699,7.25c-0.233-0.433-2.184-0.883-5.851-1.35
	c-3.667-0.434-8.066-0.75-13.2-0.95c-9.367-0.367-15.467-0.217-18.3,0.45L82.5,4.4c-0.967-1.2-2.3-2.233-4-3.1
	c-0.533-0.267-1.083-0.5-1.65-0.7L76.2,0.4L63.6,0l-0.9,0.15L60.5,0.9c-1.333,0.6-2.467,1.417-3.4,2.45L56.05,4.7L55.9,9.65
	l-12.55,0.4l0.05,0.1c-2.6-0.1-4.783-0.05-6.55,0.15c-2.567,0.367-5.6,1.3-9.1,2.8c-6.967,2.933-12.683,7.167-17.15,12.7
	c-1.4,1.833-2.817,4.6-4.25,8.3c-1.133,2.9-1.8,4.967-2,6.2l0.2,1.15l0.05,0.1l-1,0.75c-1,8.167-1.85,18.35-2.55,30.55
	C-0.383,97.283-0.367,119.6,1.1,139.8l0.25,1.351c0.2,0.933,0.417,1.466,0.65,1.6l-0.15,0.3c-0.1,0.267-0.15,0.601-0.15,1
	c0,0.9,0.133,2.2,0.4,3.9c0.3,2.133,0.683,3.434,1.15,3.899c0.367,0.367,1.233,1.301,2.6,2.801c1.733,1.399,4.066,2.366,7,2.899
	c1.267,0.267,3.8,0.566,7.6,0.9c4.566,0.399,7.7,0.467,9.4,0.2c1.066-0.233,6.05-1.7,14.95-4.4c4.534,6.267,9.95,11.267,16.25,15
	c6.534,3.866,13.367,6,20.5,6.4c4.767,0.267,9.3-0.267,13.6-1.601l0.6,0.3l9-3.85c2.9,0.7,5.833,1.15,8.8,1.35
	c7.601,0.4,14.733-0.966,21.4-4.1c1.7-0.566,3.116-1.134,4.25-1.7l0.95,0.15l48.1,2.95l3.25-0.25c2.5-0.267,4.6-0.617,6.3-1.051
	c3.267-0.133,5.7-0.399,7.3-0.8c2.733-0.633,5.884-1.8,9.45-3.5c3.7-1.8,6.217-3.383,7.55-4.75c3.134-3.2,5.867-6.95,8.2-11.25
	c1.167-2.133,2.017-3.967,2.55-5.5l5.25-76.5c-0.3-2.8-0.75-5.816-1.35-9.05c-1.2-6.433-2.583-10.75-4.15-12.95
	c-1.6-2.233-6.183-6.233-13.75-12c-6.466-4.933-12.066-8.917-16.8-11.95l-0.2-0.8C201.684,18.4,201.366,17.967,200.9,17.5z"/>
<path fill-rule="evenodd" clip-rule="evenodd" fill="#B2B2B2" d="M200.85,18.8c4.134,2.534,9.767,6.5,16.9,11.9
	c8.233,6.2,13.184,10.483,14.85,12.85c1.567,2.2,2.95,6.517,4.15,12.95c0.6,3.233,1.05,6.25,1.35,9.05l-5.25,76.5
	c-0.533,1.533-1.383,3.367-2.55,5.5c-2.333,4.3-5.066,8.05-8.2,11.25c-1.333,1.367-3.85,2.95-7.55,4.75
	c-3.566,1.7-6.717,2.867-9.45,3.5c-1.6,0.4-4.033,0.667-7.3,0.8l1.65-0.5c4.967-1.8,8.5-5.149,10.6-10.05
	c1.634-3.8,3.2-14.416,4.7-31.85c1.733-20.533,2.1-39.833,1.1-57.9c-0.466-6.9-0.916-11.3-1.35-13.2c-0.8-3.6-2.434-6.7-4.9-9.3
	c-2.199-2.267-7.517-6.617-15.949-13.05c-4.834-3.667-9.45-7.083-13.851-10.25c1.033-0.833,2.05-1.567,3.05-2.2
	c3.967-2.5,8.15-3.367,12.551-2.6C197.634,17.317,199.45,17.933,200.85,18.8z"/>
<path fill-rule="evenodd" clip-rule="evenodd" fill="#999999" d="M165.85,31.55c2.667,0.633,5,1.45,7,2.45v0.3l-0.25,2
	c-1.1,1.3-2.8,2.034-5.1,2.2c-0.667,0.067-3.134,0-7.4-0.2c-13.633-0.767-25.75-2.017-36.35-3.75c-8.333-1.367-12.717-2.367-13.15-3
	c-0.033-0.066-0.434-0.533-1.2-1.4c-0.6-0.667-0.95-1.2-1.05-1.6c-0.1-0.4,0.083-0.767,0.55-1.1c0.233-0.167,0.467-0.3,0.7-0.4
	l0.5,1l0.75,1l2.15-0.4c2.033-0.2,4.567-0.15,7.6,0.15l36.65,4.1c3.066,0.467,5.017,0.85,5.85,1.15c0.5-0.167,0.834-0.5,1-1
	c0.2-0.566,0.367-0.933,0.5-1.1C164.9,31.583,165.316,31.45,165.85,31.55z"/>
<linearGradient id="SVGID_1_" gradientUnits="userSpaceOnUse" x1="56.6797" y1="11.7085" x2="96.4534" y2="11.7085" gradientTransform="matrix(0.9975 0.0704 -0.0704 0.9975 0 0)">
	<stop  offset="0.0431" style="stop-color:#FFFFFF"/>
	<stop  offset="0.2588" style="stop-color:#4C4C4C"/>
	<stop  offset="0.451" style="stop-color:#4C4C4C"/>
	<stop  offset="0.8667" style="stop-color:#F2F2F2"/>
</linearGradient>
<path fill-rule="evenodd" clip-rule="evenodd" fill="url(#SVGID_1_)" d="M117.35,10.55v0.2c-1.7,0.833-2.867,1.517-3.5,2.05
	c-0.7,0.7-1.283,2.034-1.75,4h-0.25l-0.6,2.55c-0.4,2-0.7,3.8-0.9,5.4L100.1,28.3l-20-2.25l-9.5-0.35v-0.4
	c0-1.133,0.35-2.5,1.05-4.1c0.733-1.6,1.467-2.65,2.2-3.15c0.4-0.267,1.15-0.6,2.25-1c-0.4-0.667-0.883-1.233-1.45-1.7
	c-1.333-1.1-3.1-1.867-5.3-2.3c-3.167-0.533-6.883-1.066-11.15-1.6c-5.867-0.733-10.8-1.167-14.8-1.3l-0.05-0.1l21.5-0.75
	c3.9-0.133,12.65-0.05,26.25,0.25C105.167,9.85,113.917,10.183,117.35,10.55z"/>
<linearGradient id="SVGID_2_" gradientUnits="userSpaceOnUse" x1="-41.7324" y1="124.584" x2="174.2682" y2="124.584" gradientTransform="matrix(0.9352 -0.3542 0.3542 0.9352 0 0)">
	<stop  offset="0.451" style="stop-color:#969696"/>
	<stop  offset="0.6157" style="stop-color:#F2F2F2"/>
	<stop  offset="1" style="stop-color:#B1B1B1"/>
</linearGradient>
<path fill-rule="evenodd" clip-rule="evenodd" fill="url(#SVGID_2_)" d="M172.6,36.3l0.25-2V34l0.051,0.05l1.649-7l0.65-1.2
	L173,25.2c0.233,0.033,0.983,0.25,2.25,0.65c0.333-0.6,1.017-1.417,2.05-2.45c1.2-1.2,2.033-1.75,2.5-1.65
	c0.267,0.033,2.084,1.317,5.45,3.85c1.7,1.3,3.366,2.583,5,3.85c10.267,7.7,16.717,12.9,19.35,15.6c2.467,2.6,4.101,5.7,4.9,9.3
	c0.434,1.9,0.884,6.3,1.35,13.2c1,18.067,0.634,37.367-1.1,57.9c-1.5,17.434-3.066,28.05-4.7,31.85c-2.1,4.9-5.633,8.25-10.6,10.05
	c-1.7,0.634-4.084,1.117-7.15,1.45l-4.05,0.351l-48.1-2.95c-15.134-2.033-30.333-4.084-45.601-6.15
	c-30.5-4.066-46.05-6.083-46.65-6.05l-3.1,0.25c-8.9,2.7-13.883,4.167-14.95,4.4c-1.7,0.267-4.833,0.199-9.4-0.2
	c-3.8-0.334-6.333-0.634-7.6-0.9c-2.934-0.533-5.267-1.5-7-2.899c-1.367-1.5-2.233-2.434-2.6-2.801
	c-0.467-0.466-0.85-1.767-1.15-3.899c-0.267-1.7-0.4-3-0.4-3.9c0-0.399,0.05-0.733,0.15-1l0.15-0.3
	c-0.233-0.134-0.45-0.667-0.65-1.6L1.1,139.8c-1.467-20.2-1.483-42.517-0.05-66.95C1.75,60.65,2.6,50.467,3.6,42.3l1-0.75L4.35,40.3
	c0.2-1.233,0.867-3.3,2-6.2c1.433-3.7,2.85-6.467,4.25-8.3c4.467-5.533,10.183-9.767,17.15-12.7c3.5-1.5,6.533-2.434,9.1-2.8
	c3.6-0.433,9.367-0.216,17.3,0.65c5.733,0.6,10.8,1.3,15.2,2.1c2.3,0.434,4.117,1.233,5.45,2.4c0.667,0.566,1.1,1.1,1.3,1.6
	c17.833,1.833,27,2.75,27.5,2.75c0.267,0,0.733-0.033,1.4-0.1c0.5,0.033,0.7,0.316,0.6,0.85c1-0.833,3.333-3.167,7-7l0.95-0.35
	c-0.6,0.767-1.083,1.966-1.45,3.6h-0.25L111,20.85c-0.6,3.033-0.9,5.433-0.9,7.2l-0.5-1c-0.233,0.1-0.467,0.233-0.7,0.4
	c-0.467,0.333-0.65,0.7-0.55,1.1c0.1,0.4,0.45,0.934,1.05,1.6c0.767,0.867,1.167,1.333,1.2,1.4c0.433,0.633,4.816,1.633,13.15,3
	c10.6,1.733,22.717,2.983,36.35,3.75c4.267,0.2,6.733,0.267,7.4,0.2C169.8,38.333,171.5,37.6,172.6,36.3z"/>
<path fill-rule="evenodd" clip-rule="evenodd" fill="#CCCCCC" d="M54.15,10.95c5.733,0.6,10.8,1.3,15.2,2.1
	c2.2,0.434,3.967,1.2,5.3,2.3c0.567,0.467,1.05,1.033,1.45,1.7c-1.1,0.4-1.85,0.733-2.25,1c-0.733,0.5-1.467,1.55-2.2,3.15
	c-0.7,1.6-1.05,2.966-1.05,4.1c0,1.5,0.167,4.083,0.5,7.75c0,0.633-0.317,1.633-0.95,3c-0.8,1.667-1.816,3.167-3.05,4.5
	c-1.434,1.567-3.05,3.7-4.85,6.4c-1.867,2.833-2.917,4.783-3.15,5.85c-0.267,1.233-0.2,2.667,0.2,4.3
	c0.467,1.8,1.233,3.283,2.3,4.45c3.4,3.8,4.816,8.217,4.25,13.25l-14,70.75l-0.25,2.65c-0.1,2.133,0,4.217,0.3,6.25l-4-0.45
	l-3.1,0.25c-8.9,2.7-13.883,4.167-14.95,4.4c-1.7,0.267-4.833,0.199-9.4-0.2c-3.8-0.334-6.333-0.634-7.6-0.9
	c-2.934-0.533-5.267-1.5-7-2.899c-1.367-1.5-2.233-2.434-2.6-2.801c-0.467-0.466-0.85-1.767-1.15-3.899c-0.267-1.7-0.4-3-0.4-3.9
	c0-0.399,0.05-0.733,0.15-1l0.15-0.3c-0.233-0.134-0.45-0.667-0.65-1.6L1.1,139.8c-1.467-20.2-1.483-42.517-0.05-66.95
	C1.75,60.65,2.6,50.467,3.6,42.3l1-0.75L4.35,40.3c0.2-1.233,0.867-3.3,2-6.2c1.433-3.7,2.85-6.467,4.25-8.3
	c4.467-5.533,10.183-9.767,17.15-12.7c3.5-1.5,6.533-2.434,9.1-2.8C40.45,9.867,46.217,10.083,54.15,10.95z"/>
<linearGradient id="SVGID_3_" gradientUnits="userSpaceOnUse" x1="81.6494" y1="8.8999" x2="119.9502" y2="8.8999">
	<stop  offset="0" style="stop-color:#FFFFFF"/>
	<stop  offset="1" style="stop-color:#CCCCCC"/>
</linearGradient>
<path fill-rule="evenodd" clip-rule="evenodd" fill="url(#SVGID_3_)" d="M114.4,8.25c3.7,0.467,5.55,0.933,5.55,1.4
	c-0.033,0.467-1.917,0.783-5.65,0.95c-3.767,0.167-8.283,0.15-13.55-0.05C95.417,10.317,90.9,9.967,87.2,9.5
	c-3.733-0.467-5.583-0.917-5.55-1.35c0.033-0.433,1.917-0.75,5.65-0.95c3.767-0.167,8.284-0.15,13.55,0.05
	C106.183,7.45,110.7,7.783,114.4,8.25z"/>
<path fill-rule="evenodd" clip-rule="evenodd" d="M114.2,13.5c3.833,0.533,5.733,1.067,5.7,1.6c-0.034,0.566-1.984,0.967-5.851,1.2
	c-3.867,0.233-8.533,0.233-14,0c-5.466-0.2-10.117-0.566-13.95-1.1c-3.867-0.534-5.783-1.083-5.75-1.65
	c0-0.533,1.933-0.917,5.8-1.15c3.934-0.233,8.617-0.233,14.05,0C105.667,12.6,110.333,12.967,114.2,13.5z"/>
<linearGradient id="SVGID_4_" gradientUnits="userSpaceOnUse" x1="56.0498" y1="5.8701" x2="79.5498" y2="5.8701">
	<stop  offset="0" style="stop-color:#B1B1B1"/>
	<stop  offset="0.4902" style="stop-color:#FFFFFF"/>
	<stop  offset="0.5333" style="stop-color:#FFFFFF"/>
	<stop  offset="0.7137" style="stop-color:#666666"/>
	<stop  offset="0.8039" style="stop-color:#666666"/>
	<stop  offset="0.9882" style="stop-color:#B2B2B2"/>
</linearGradient>
<path fill-rule="evenodd" clip-rule="evenodd" fill="url(#SVGID_4_)" d="M82.65,10.85c-2.367,0.4-5.267,0.667-8.7,0.8
	c-6.833,0.3-12.85-0.15-18.05-1.35l0.15-5.6l1.7-2.05c1.6-1.4,3.55-2.283,5.85-2.65l12.6,0.4l2.3,0.9c1.7,0.833,3.033,1.867,4,3.1
	L82.65,10.85z"/>
<radialGradient id="SVGID_5_" cx="68.75" cy="6.2998" r="11.5" gradientTransform="matrix(1 0 0 -1 0 12.5996)" gradientUnits="userSpaceOnUse">
	<stop  offset="0.3451" style="stop-color:#FFFFFF"/>
	<stop  offset="0.7569" style="stop-color:#CCCCCC"/>
	<stop  offset="0.9843" style="stop-color:#999999"/>
</radialGradient>
<path fill-rule="evenodd" clip-rule="evenodd" fill="url(#SVGID_5_)" d="M78.5,1.3c1.7,0.833,3.033,1.867,4,3.1v1.2
	c-3.067,0.433-6.467,0.7-10.2,0.8c-6.066,0.133-11.483-0.3-16.25-1.3V4.7l1.7-2.05c1.6-1.4,3.55-2.283,5.85-2.65l12.6,0.4L78.5,1.3z
	"/>
<linearGradient id="SVGID_6_" gradientUnits="userSpaceOnUse" x1="60.5" y1="1.1499" x2="78.5" y2="1.1499">
	<stop  offset="0.0235" style="stop-color:#999999"/>
	<stop  offset="0.9843" style="stop-color:#333333"/>
</linearGradient>
<path fill-rule="evenodd" clip-rule="evenodd" fill="url(#SVGID_6_)" d="M60.5,0.9c1.067-0.467,2.1-0.767,3.1-0.9l12.6,0.4l0.65,0.2
	c0.566,0.2,1.117,0.433,1.65,0.7c-2.333,0.667-5.117,1-8.35,1C66.017,2.3,62.8,1.833,60.5,0.9z"/>
<linearGradient id="SVGID_7_" gradientUnits="userSpaceOnUse" x1="81" y1="12.0996" x2="120.4561" y2="12.0996">
	<stop  offset="0" style="stop-color:#B1B1B1"/>
	<stop  offset="0.4902" style="stop-color:#FFFFFF"/>
	<stop  offset="0.5333" style="stop-color:#FFFFFF"/>
	<stop  offset="0.7137" style="stop-color:#666666"/>
	<stop  offset="0.8039" style="stop-color:#666666"/>
	<stop  offset="0.9882" style="stop-color:#B2B2B2"/>
</linearGradient>
<path fill-rule="evenodd" clip-rule="evenodd" fill="url(#SVGID_7_)" d="M119.95,9.65c0.6,0.167,0.666,1.967,0.2,5.4L119.9,15
	c0,0.533-1.934,0.9-5.8,1.1c-3.833,0.2-8.517,0.2-14.05,0c-4.533-0.167-8.583-0.45-12.15-0.85c-3.5-0.4-5.8-0.833-6.9-1.3
	c0.233-2.9,0.35-4.7,0.35-5.4c0-0.333,0.167-0.533,0.5-0.6c-0.133,0.066-0.2,0.133-0.2,0.2c-0.033,0.434,1.817,0.883,5.55,1.35
	c3.7,0.467,8.216,0.817,13.55,1.05c5.267,0.2,9.783,0.217,13.55,0.05C118.033,10.433,119.917,10.117,119.95,9.65z"/>
<path fill-rule="evenodd" clip-rule="evenodd" d="M55,19.2c0,2.6-1.883,5.183-5.65,7.75c-3.767,2.6-8.317,4.433-13.65,5.5
	c-5.333,1.066-9.883,1.05-13.65-0.05c-3.767-1.066-5.65-2.883-5.65-5.45c0-2.567,1.883-5.15,5.65-7.75
	c3.767-2.6,8.317-4.434,13.65-5.5c5.333-1.034,9.883-1.017,13.65,0.05S55,16.633,55,19.2z"/>
<linearGradient id="SVGID_8_" gradientUnits="userSpaceOnUse" x1="16.25" y1="24.021" x2="53.2041" y2="24.021">
	<stop  offset="0" style="stop-color:#B1B1B1"/>
	<stop  offset="0.4902" style="stop-color:#FFFFFF"/>
	<stop  offset="0.5333" style="stop-color:#FFFFFF"/>
	<stop  offset="0.7137" style="stop-color:#666666"/>
	<stop  offset="0.8039" style="stop-color:#666666"/>
	<stop  offset="0.9882" style="stop-color:#B2B2B2"/>
</linearGradient>
<path fill-rule="evenodd" clip-rule="evenodd" fill="url(#SVGID_8_)" d="M51.4,14.8l0.65,0.5c0.434,0.5,0.75,1.184,0.95,2.05
	c0.233,1.133,0.267,3.233,0.1,6.3c-1.6,1.9-3.934,3.65-7,5.25c-3.167,1.6-6.633,2.783-10.4,3.55c-4.434,0.9-8.4,1.033-11.9,0.4
	c-3.433-0.633-5.7-1.867-6.8-3.7l-0.75-3.65c0.033-0.167,0.133-0.3,0.3-0.4c0.2-0.133,0.333-0.283,0.4-0.45l2.65-1.15L51.4,14.8z"/>
<path fill-rule="evenodd" clip-rule="evenodd" fill="none" stroke="#000000" stroke-width="0.25" d="M43.9,16.4
	c0,1.167-0.933,2.35-2.8,3.55c-1.9,1.167-4.184,1.983-6.85,2.45s-4.95,0.467-6.85,0c-1.867-0.5-2.8-1.333-2.8-2.5
	c0-1.167,0.933-2.333,2.8-3.5c1.9-1.2,4.184-2.033,6.85-2.5c2.667-0.5,4.95-0.5,6.85,0C42.967,14.4,43.9,15.233,43.9,16.4z"/>
<radialGradient id="SVGID_9_" cx="34.625" cy="30.2998" r="17.4514" gradientTransform="matrix(1 0 0 -1 0 60.5996)" gradientUnits="userSpaceOnUse">
	<stop  offset="0.5059" style="stop-color:#FFFFFF"/>
	<stop  offset="1" style="stop-color:#CCCCCC"/>
</radialGradient>
<path fill-rule="evenodd" clip-rule="evenodd" fill="url(#SVGID_9_)" d="M53,17.35c0,2.533-1.8,5.066-5.4,7.6
	c-3.6,2.533-7.934,4.316-13,5.35c-5.067,1.067-9.4,1.067-13,0c-3.567-1.033-5.35-2.816-5.35-5.35c0-2.534,1.783-5.067,5.35-7.6
	c3.6-2.5,7.933-4.283,13-5.35c5.066-1.033,9.4-1.033,13,0S53,14.817,53,17.35z"/>
<path fill-rule="evenodd" clip-rule="evenodd" fill="#FFFFFF" d="M47.4,24.45c3.533-2.434,5.383-4.9,5.55-7.4l0.05,0.3
	c0,2.533-1.8,5.066-5.4,7.6c-3.6,2.533-7.934,4.316-13,5.35c-5.067,1.067-9.4,1.067-13,0c-3.567-1.033-5.35-2.816-5.35-5.35V24.6
	c0.167,2.433,2.033,4.133,5.6,5.1c3.566,1,7.816,0.983,12.75-0.05C39.567,28.617,43.833,26.883,47.4,24.45z"/>
<linearGradient id="SVGID_10_" gradientUnits="userSpaceOnUse" x1="23.0874" y1="28.4512" x2="38.5124" y2="28.4512">
	<stop  offset="0.0431" style="stop-color:#FFFFFF"/>
	<stop  offset="0.2588" style="stop-color:#4C4C4C"/>
	<stop  offset="0.451" style="stop-color:#4C4C4C"/>
	<stop  offset="0.8667" style="stop-color:#F2F2F2"/>
</linearGradient>
<path fill-rule="evenodd" clip-rule="evenodd" fill="url(#SVGID_10_)" d="M38.2,24.3l0.3,0.2c0.133,0.233-0.017,0.633-0.45,1.2
	c-0.667,0.966-0.917,2.3-0.75,4c-1.133,0.867-2.983,1.783-5.55,2.75c-2.433,0.233-4.45,0.2-6.05-0.1l-1.7-0.5
	c-0.633-1.067-0.95-2.6-0.95-4.6l0.25-2.65c0.4,0.267,1.35,0.6,2.85,1l4.3,0.25c1.733,0,2.833-0.05,3.3-0.15
	C34.217,25.633,35.7,25.167,38.2,24.3z"/>
<linearGradient id="SVGID_11_" gradientUnits="userSpaceOnUse" x1="16.3315" y1="19.2319" x2="51.8421" y2="19.2319" gradientTransform="matrix(0.9856 0.169 -0.169 0.9856 0 0)">
	<stop  offset="0.0235" style="stop-color:#999999"/>
	<stop  offset="0.9843" style="stop-color:#333333"/>
</linearGradient>
<path fill-rule="evenodd" clip-rule="evenodd" fill="url(#SVGID_11_)" d="M23.3,24.6l-0.1,0.65l-0.1-0.2
	c0-0.133,0.033-0.283,0.1-0.45c0.133-0.333,0.383-0.55,0.75-0.65c0.167-0.034,2.183,0.066,6.05,0.3c4,0.267,6.733,0.283,8.2,0.05
	c-2.5,0.867-3.983,1.333-4.45,1.4c-0.467,0.1-1.567,0.15-3.3,0.15l-4.3-0.25C24.65,25.2,23.7,24.867,23.3,24.6z"/>
<path fill-rule="evenodd" clip-rule="evenodd" d="M41.2,13.85c1.9,0.467,2.95,1.3,3.15,2.5c-0.367-1.1-1.467-1.85-3.3-2.25
	c-1.9-0.434-4.117-0.4-6.65,0.1c-2.767,0.566-5.15,1.5-7.15,2.8c-1.967,1.333-2.95,2.667-2.95,4l-0.05-0.3
	c0-1.333,0.983-2.667,2.95-4c1.966-1.3,4.333-2.233,7.1-2.8C36.967,13.367,39.267,13.35,41.2,13.85z"/>
<path fill-rule="evenodd" clip-rule="evenodd" fill="#FFFFFF" d="M41.6,13.05c2.133,0.567,3.2,1.517,3.2,2.85l-0.05,0.25
	c-0.133-1.233-1.217-2.1-3.25-2.6s-4.45-0.483-7.25,0.05c-2.933,0.566-5.433,1.5-7.5,2.8c-2.067,1.333-3.1,2.667-3.1,4
	c0,0.5,0.184,0.983,0.55,1.45c-0.767-0.567-1.15-1.233-1.15-2c0-1.333,1.067-2.667,3.2-4c2.1-1.3,4.65-2.233,7.65-2.8
	C36.9,12.517,39.467,12.517,41.6,13.05z"/>
<path fill-rule="evenodd" clip-rule="evenodd" d="M41.4,20.85c1.934-1.267,2.95-2.55,3.05-3.85l0.05,0.15
	c0,1.333-0.983,2.667-2.95,4c-2,1.333-4.383,2.267-7.15,2.8c-2.767,0.566-5.15,0.566-7.15,0c-1.967-0.534-2.95-1.467-2.95-2.8
	l0.05-0.2c0.1,1.267,1.117,2.167,3.05,2.7c1.934,0.5,4.267,0.483,7-0.05S39.467,22.15,41.4,20.85z"/>
<linearGradient id="SVGID_12_" gradientUnits="userSpaceOnUse" x1="18.2349" y1="29.6846" x2="35.3229" y2="29.6846" gradientTransform="matrix(0.9363 -0.3511 0.3511 0.9363 0 0)">
	<stop  offset="0" style="stop-color:#000000"/>
	<stop  offset="0.5059" style="stop-color:#FFFFFF"/>
	<stop  offset="1" style="stop-color:#000000"/>
</linearGradient>
<path fill-rule="evenodd" clip-rule="evenodd" fill="url(#SVGID_12_)" d="M44.1,15.1c0.5,1.367,0.483,2.5-0.05,3.4
	c-0.533,0.867-1.683,1.817-3.45,2.85C38.4,22.617,36,23.5,33.4,24c-1.5,0.233-3.017,0.267-4.55,0.1c-3-0.4-4.517-1.684-4.55-3.85
	c0.434-0.767,1.1-1.567,2-2.4c1.767-1.733,3.8-2.85,6.1-3.35c2.6-0.567,5.05-0.767,7.35-0.6C41.883,14.033,43.333,14.433,44.1,15.1z
	"/>
<radialGradient id="SVGID_13_" cx="41.6001" cy="36.5" r="27.425" gradientTransform="matrix(1 0 0 -1 0 73)" gradientUnits="userSpaceOnUse">
	<stop  offset="0" style="stop-color:#4C4C4C"/>
	<stop  offset="1" style="stop-color:#F2F2F2"/>
</radialGradient>
<path fill-rule="evenodd" clip-rule="evenodd" fill="url(#SVGID_13_)" d="M44.5,16.25c0,1.333-0.983,2.683-2.95,4.05
	c-1.966,1.3-4.35,2.233-7.15,2.8c-2.767,0.566-5.15,0.566-7.15,0c-1.967-0.567-2.95-1.517-2.95-2.85s0.983-2.667,2.95-4
	c2-1.3,4.383-2.233,7.15-2.8c2.767-0.534,5.15-0.534,7.15,0C43.517,13.983,44.5,14.917,44.5,16.25z"/>
<path fill-rule="evenodd" clip-rule="evenodd" fill="#FFFFFF" d="M44.1,15.1c0.267,0.367,0.4,0.75,0.4,1.15
	c0,1.333-0.983,2.683-2.95,4.05c-1.966,1.3-4.35,2.233-7.15,2.8c-2.5,0.467-4.683,0.5-6.55,0.1c-1.867-0.4-3-1.133-3.4-2.2
	c0.566,0.933,1.75,1.55,3.55,1.85c1.833,0.3,3.9,0.233,6.2-0.2c2.767-0.533,5.133-1.467,7.1-2.8c1.967-1.333,2.95-2.667,2.95-4
	C44.25,15.55,44.2,15.3,44.1,15.1z"/>
<linearGradient id="SVGID_14_" gradientUnits="userSpaceOnUse" x1="121.0234" y1="-3.5498" x2="180.3551" y2="-3.5498" gradientTransform="matrix(0.9776 0.2107 -0.2107 0.9776 0 0)">
	<stop  offset="0" style="stop-color:#B1B1B1"/>
	<stop  offset="0.4902" style="stop-color:#FFFFFF"/>
	<stop  offset="0.5333" style="stop-color:#FFFFFF"/>
	<stop  offset="0.7137" style="stop-color:#666666"/>
	<stop  offset="0.8039" style="stop-color:#666666"/>
	<stop  offset="0.9882" style="stop-color:#B2B2B2"/>
</linearGradient>
<path fill-rule="evenodd" clip-rule="evenodd" fill="url(#SVGID_14_)" d="M175.1,25.8l0.101,0.05l-0.65,1.2l-1.649,7
	c-1.967-1-4.317-1.833-7.051-2.5c-0.533-0.1-0.949,0.034-1.25,0.4c-0.133,0.167-0.3,0.533-0.5,1.1c-0.166,0.5-0.5,0.833-1,1
	c-0.833-0.3-2.783-0.683-5.85-1.15l-36.65-4.1c-3.033-0.3-5.566-0.35-7.6-0.15l-2.15,0.4l-0.75-1c0-1.767,0.3-4.167,0.9-7.2
	l0.85-4.05h0.25l-0.2,0.825c0.103-0.198,0.387-0.323,0.85-0.375c0.333-0.033,0.867-0.1,1.6-0.2c1.467-0.133,6.817,0.25,16.05,1.15
	c9.6,0.933,17.5,1.883,23.699,2.85C161.1,22.15,168.1,23.733,175.1,25.8z"/>
<radialGradient id="SVGID_15_" cx="156.9746" cy="13.833" r="32.9862" gradientTransform="matrix(1 0 0 -1 0 27.666)" gradientUnits="userSpaceOnUse">
	<stop  offset="0.5059" style="stop-color:#FFFFFF"/>
	<stop  offset="1" style="stop-color:#CCCCCC"/>
</radialGradient>
<path fill-rule="evenodd" clip-rule="evenodd" fill="url(#SVGID_15_)" d="M200.9,17.5c0.466,0.467,0.783,0.9,0.949,1.3l0.2,0.8
	l-1.2-0.8c-1.399-0.867-3.216-1.483-5.449-1.85c-4.4-0.767-8.584,0.1-12.551,2.6c-1,0.633-2.017,1.367-3.05,2.2
	c-0.467-0.1-1.3,0.45-2.5,1.65c-1.033,1.033-1.717,1.85-2.05,2.45l-0.25-0.1c-1.8-0.533-2.45-0.717-1.95-0.55
	c-5.434-1.6-11.75-2.983-18.95-4.15C147.9,20.083,140,19.133,130.4,18.2c-9.233-0.9-14.583-1.284-16.05-1.15
	c-0.733,0.1-1.267,0.167-1.6,0.2c-0.463,0.052-0.747,0.177-0.85,0.375l0.3-1.225v-0.05l0.25-0.85l0.05-0.1l0.15-0.45l0.05-0.1
	l0.2-0.5l0.15-0.3l0.05-0.15l0.4-0.65l0.35-0.45c1.133-1.133,4.483-2.783,10.05-4.95c7.267-2.833,14.5-4.684,21.699-5.55
	c8.434-1,17.7-0.45,27.801,1.65C183.6,6.083,191.75,9.2,197.85,13.3c0.334,0.434,0.634,0.784,0.9,1.05
	c0.134,0.2,0.417,0.683,0.85,1.45C199.934,16.4,200.366,16.967,200.9,17.5z"/>
<radialGradient id="SVGID_16_" cx="134.75" cy="41.7998" r="76.025" gradientTransform="matrix(1 0 0 -1 0 83.5996)" gradientUnits="userSpaceOnUse">
	<stop  offset="0.3451" style="stop-color:#FFFFFF"/>
	<stop  offset="0.7569" style="stop-color:#CCCCCC"/>
	<stop  offset="0.9843" style="stop-color:#999999"/>
</radialGradient>
<path fill-rule="evenodd" clip-rule="evenodd" fill="url(#SVGID_16_)" d="M173.4,4c10.199,2.1,18.333,5.2,24.399,9.3
	c-5.733-0.433-11.083,0.233-16.05,2c-6.566,2.367-10.667,3.717-12.3,4.05c-2.101,0.433-4.834,0.417-8.2-0.05
	c-18.866-2.566-35.05-4.033-48.55-4.4v-0.05l0.2-0.5l0.15-0.3l0.05-0.15l0.4-0.65l0.35-0.45c1.133-1.133,4.483-2.783,10.05-4.95
	c7.267-2.833,14.5-4.684,21.699-5.55C154.033,1.333,163.3,1.9,173.4,4z"/>
<path fill-rule="evenodd" clip-rule="evenodd" fill="none" stroke="#000000" stroke-width="0.25" d="M22.7,43.7
	c-5.4-0.4-9.1-0.7-11.1-0.9c-3.333-0.333-5.7-0.8-7.1-1.4"/>
<path fill-rule="evenodd" clip-rule="evenodd" fill="none" stroke="#FFFFFF" stroke-width="0.25" d="M22.7,43.4
	c-5.4-0.4-9.1-0.7-11.1-0.9c-3.333-0.3-5.7-0.75-7.1-1.35"/>
<linearGradient id="SVGID_17_" gradientUnits="userSpaceOnUse" x1="0.771" y1="84.7642" x2="115.7487" y2="84.7642" gradientTransform="matrix(0.9971 0.0754 -0.0754 0.9971 0 0)">
	<stop  offset="0.1647" style="stop-color:#A4A6A9"/>
	<stop  offset="0.2157" style="stop-color:#9D9FA1"/>
	<stop  offset="0.2902" style="stop-color:#898A8C"/>
	<stop  offset="0.3843" style="stop-color:#68696A"/>
	<stop  offset="0.451" style="stop-color:#4C4C4C"/>
	<stop  offset="0.4902" style="stop-color:#4C4C4C"/>
	<stop  offset="0.9961" style="stop-color:#B2B2B2"/>
</linearGradient>
<path fill-rule="evenodd" clip-rule="evenodd" fill="url(#SVGID_17_)" d="M70.75,26.75c0,1.5,0.117,3.6,0.35,6.3
	c0,0.633-0.317,1.633-0.95,3c-0.8,1.667-1.816,3.167-3.05,4.5c-1.434,1.567-3.05,3.7-4.85,6.4c-1.867,2.833-2.917,4.783-3.15,5.85
	c-0.267,1.233-0.2,2.667,0.2,4.3c0.467,1.8,1.233,3.283,2.3,4.45c3.4,3.8,4.816,8.217,4.25,13.25l-14,70.75l-8.25,1.75
	c-2.033,0.533-4.3,1.066-6.8,1.601c-5,1.033-8.65,1.5-10.95,1.399c-2.7,0.101-4.883-0.017-6.55-0.35
	c-3.033-0.566-5.017-2.117-5.95-4.65c-1.633-4.333-2.684-12.95-3.15-25.85c-0.633-17.367,0.25-37.417,2.65-60.15
	c0.233-3.133,2.017-6.816,5.35-11.05c3.033-3.833,5.75-6.317,8.15-7.45c1.9-0.9,6.133-2.466,12.7-4.7c5.6-1.9,10.034-3.333,13.3-4.3
	c2.767-0.833,6.15-1.8,10.15-2.9C66.833,27.7,69.583,26.983,70.75,26.75z"/>
<radialGradient id="SVGID_18_" cx="34.6001" cy="22.25" r="12.65" gradientTransform="matrix(1 0 0 -1 0 44.5)" gradientUnits="userSpaceOnUse">
	<stop  offset="0" style="stop-color:#FFFFFF"/>
	<stop  offset="0.2392" style="stop-color:#FDFDFD"/>
	<stop  offset="0.3765" style="stop-color:#F4F4F4"/>
	<stop  offset="0.4863" style="stop-color:#E6E6E6"/>
	<stop  offset="0.5843" style="stop-color:#D3D3D3"/>
	<stop  offset="0.6745" style="stop-color:#B9B9B9"/>
	<stop  offset="0.7529" style="stop-color:#999999"/>
	<stop  offset="0.8314" style="stop-color:#747474"/>
	<stop  offset="0.902" style="stop-color:#484848"/>
	<stop  offset="0.9686" style="stop-color:#181818"/>
	<stop  offset="1" style="stop-color:#000000"/>
</radialGradient>
<path fill-rule="evenodd" clip-rule="evenodd" fill="url(#SVGID_18_)" d="M44.3,15.35c0.133,0.4,0.2,0.7,0.2,0.9
	c0,1.333-0.983,2.683-2.95,4.05c-1.966,1.3-4.35,2.233-7.15,2.8c-2.767,0.566-5.15,0.566-7.15,0c-1.967-0.567-2.95-1.517-2.95-2.85
	v-0.1c0.467,1.033,1.617,1.733,3.45,2.1c1.867,0.367,4.017,0.3,6.45-0.2c2.733-0.533,5.083-1.45,7.05-2.75
	C43.217,18,44.233,16.683,44.3,15.35z"/>
<radialGradient id="SVGID_19_" cx="214.25" cy="55.2998" r="43.775" gradientTransform="matrix(1 0 0 -1 0 110.5996)" gradientUnits="userSpaceOnUse">
	<stop  offset="0" style="stop-color:#000000"/>
	<stop  offset="1" style="stop-color:#FFFFFF"/>
</radialGradient>
<path fill-rule="evenodd" clip-rule="evenodd" fill="url(#SVGID_19_)" d="M179.95,22.55l0.3-0.4l0.15,0.15l-0.2,0.25
	c3.066,2.133,7.684,5.55,13.85,10.25c8.4,6.4,13.667,10.717,15.8,12.95c2.367,2.467,3.934,5.417,4.7,8.85
	c0.4,1.867,0.834,6.217,1.3,13.05c0.334,6.233,0.5,12.8,0.5,19.7c0,15.3-0.783,30.55-2.35,45.75c-0.634,6-1.333,11.267-2.1,15.801
	c-0.7,4.233-1.301,6.899-1.801,8c-1.1,2.533-2.517,4.566-4.25,6.1c1.233-1.333,2.267-2.884,3.101-4.65l0.75-1.55
	c0.5-1.1,1.1-3.767,1.8-8c0.733-4.5,1.417-9.767,2.05-15.8c1.601-14.934,2.4-30.184,2.4-45.75c0-7.133-0.184-13.7-0.55-19.7
	c-0.467-6.833-0.9-11.183-1.301-13.05c-0.767-3.433-2.316-6.383-4.649-8.85C206.017,42.083,196.184,34.383,179.95,22.55z"/>
<radialGradient id="SVGID_20_" cx="215.3496" cy="57" r="21.3875" gradientTransform="matrix(1 0 0 -1 0 114)" gradientUnits="userSpaceOnUse">
	<stop  offset="0" style="stop-color:#4F4F4F"/>
	<stop  offset="1" style="stop-color:#FFFFFF"/>
</radialGradient>
<path fill-rule="evenodd" clip-rule="evenodd" fill="url(#SVGID_20_)" d="M194.3,32.9c-5.7-4.333-10.366-7.8-14-10.4l0.3-0.4
	l0.15,0.1l-0.15,0.25h-0.05c4.334,3.133,8.95,6.566,13.851,10.3c8.433,6.4,13.716,10.717,15.85,12.95
	c2.333,2.466,3.884,5.4,4.65,8.8c0.399,1.867,0.833,6.217,1.3,13.05c0.333,6.233,0.5,12.817,0.5,19.75
	c0,15.267-0.783,30.5-2.351,45.7c-0.6,5.967-1.283,11.25-2.05,15.85c-0.7,4.2-1.3,6.867-1.8,8c-1.134,2.5-2.566,4.534-4.3,6.101
	c1.233-1.334,2.267-2.884,3.1-4.65l0.75-1.55c0.5-1.1,1.101-3.767,1.8-8c0.767-4.533,1.467-9.8,2.101-15.8
	c1.566-15.233,2.35-30.483,2.35-45.75c0-6.934-0.166-13.517-0.5-19.75c-0.5-6.867-0.95-11.217-1.35-13.05
	c-0.767-3.4-2.316-6.333-4.65-8.8C207.7,43.4,202.533,39.167,194.3,32.9z"/>
<linearGradient id="SVGID_21_" gradientUnits="userSpaceOnUse" x1="67.2515" y1="-166.3013" x2="137.699" y2="-166.3013" gradientTransform="matrix(0.2626 0.9649 -0.9649 0.2626 4.882813e-004 0)">
	<stop  offset="0.1647" style="stop-color:#FFFFFF"/>
	<stop  offset="0.5843" style="stop-color:#919191"/>
	<stop  offset="1" style="stop-color:#FFFFFF"/>
</linearGradient>
<path fill-rule="evenodd" clip-rule="evenodd" fill="url(#SVGID_21_)" d="M175.1,26.3l-0.1-0.1l0.2-0.35l-0.45-0.15l0.5,0.15
	c0.333-0.6,1.017-1.417,2.05-2.45c1.2-1.2,2.033-1.75,2.5-1.65c0.267,0.033,2.084,1.317,5.45,3.85c1.7,1.3,3.366,2.583,5,3.85
	c10.267,7.7,16.717,12.9,19.35,15.6c2.467,2.6,4.101,5.7,4.9,9.3c0.434,1.9,0.884,6.3,1.35,13.2c1,18.067,0.634,37.367-1.1,57.9
	c-1.5,17.434-3.066,28.05-4.7,31.85c-2.1,4.9-5.633,8.25-10.6,10.05c-1.834,0.667-4.667,1.2-8.5,1.601l1.649-7.65l2.45-2.05
	c1.733-2.1,2.917-4.917,3.55-8.45c0.667-3.833,1.517-18.649,2.551-44.45c0.966-23.933,1.449-39.616,1.449-47.05
	c0-5-1.25-9.583-3.75-13.75l-3.75-4.75L175.1,26.3z"/>
<g>
	<path fill-rule="evenodd" clip-rule="evenodd" fill="#666666" d="M85.2,30c0,0.433-0.167,0.817-0.5,1.15
		c-0.434,0.434-0.85,0.75-1.25,0.95c-0.367,0.2-0.817,0.367-1.35,0.5c-0.133,0-0.2-0.017-0.2-0.05h-0.05l0.15-0.6l0.25-0.25
		c0.467-0.1,1.017-0.35,1.65-0.75c0.6-0.4,0.9-0.767,0.9-1.1c0-0.167-0.066-0.3-0.2-0.4c-0.1-0.1-0.317-0.184-0.65-0.25
		c-0.633-0.067-1.317,0.1-2.05,0.5c-0.733,0.433-1.417,0.983-2.05,1.65c-0.7,0.9-1.2,1.717-1.5,2.45c-0.4,0.9-0.6,1.817-0.6,2.75
		c0,0.267,0.05,0.567,0.15,0.9c0.067,0.3,0.2,0.583,0.4,0.85c0.233,0.333,0.483,0.567,0.75,0.7c0.267,0.2,0.6,0.317,1,0.35
		c0.333,0.033,0.65,0.033,0.95,0l1.75-0.65l0.15-0.1l0.15-0.05c0-0.033,0.017-0.033,0.05,0c0.1,0,0.15,0.083,0.15,0.25l-0.15,0.15
		c-0.3,0.267-0.717,0.466-1.25,0.6c-0.567,0.2-1.25,0.25-2.05,0.15c-0.867-0.1-1.533-0.45-2-1.05c-0.433-0.533-0.65-1.3-0.65-2.3
		c0-1.033,0.217-2,0.65-2.9c0.467-0.934,1.05-1.767,1.75-2.5c0.7-0.7,1.467-1.233,2.3-1.6c0.767-0.4,1.517-0.567,2.25-0.5
		c0.433,0.066,0.717,0.217,0.85,0.45C85.117,29.533,85.2,29.767,85.2,30z"/>
	<path fill-rule="evenodd" clip-rule="evenodd" fill="#666666" d="M86.75,36.65l0.15,0.1l-0.15,0.35c-0.033-0.1-0.1-0.15-0.2-0.15
		c-0.066-0.067-0.167-0.1-0.3-0.1c-0.267-0.033-0.517,0.083-0.75,0.35c-0.167,0.167-0.35,0.483-0.55,0.95
		c-0.133,0.533-0.2,0.85-0.2,0.95l0.1,0.35l0.2,0.05c0.3,0.067,0.633-0.183,1-0.75l1-1.85l0.1-0.1l0.15-0.05l0.3,0.05l0.05,0.1v0.15
		l-0.8,2.45c0,0.133,0.05,0.217,0.15,0.25c0.167,0,0.45-0.2,0.85-0.6l0.1-0.05L88,39.2l-0.1,0.15c-0.233,0.3-0.467,0.533-0.7,0.7
		l-0.45,0.15c-0.167,0-0.283-0.067-0.35-0.2c-0.1-0.1-0.15-0.233-0.15-0.4l0.05-0.55l0.1-0.45c-0.267,0.367-0.583,0.733-0.95,1.1
		c-0.2,0.2-0.434,0.3-0.7,0.3c-0.167,0-0.333-0.1-0.5-0.3c-0.133-0.2-0.2-0.4-0.2-0.6c0-0.3,0.1-0.65,0.3-1.05
		c0.2-0.433,0.467-0.8,0.8-1.1c0.367-0.3,0.8-0.434,1.3-0.4L86.75,36.65z"/>
	<path fill-rule="evenodd" clip-rule="evenodd" fill="#666666" d="M90,36.95v0.1l-0.05,0.1L89.45,39c0.5-0.8,0.833-1.3,1-1.5
		c0.267-0.3,0.517-0.45,0.75-0.45c0.2,0.034,0.316,0.117,0.35,0.25c0.067,0.067,0.1,0.2,0.1,0.4l-0.05,0.8l-0.35,1.05l1.15-1.8
		c0.233-0.333,0.467-0.5,0.7-0.5c0.2,0.067,0.35,0.183,0.45,0.35c0.1,0.167,0.15,0.35,0.15,0.55l-0.5,2.1c0,0.1,0.033,0.15,0.1,0.15
		c0.167,0,0.467-0.233,0.9-0.7h0.05v-0.05l0.1,0.05l0.05,0.05l-0.05,0.15l-0.65,0.6c-0.333,0.233-0.567,0.35-0.7,0.35
		s-0.25-0.05-0.35-0.15c-0.1-0.1-0.15-0.217-0.15-0.35l0.1-0.65l0.55-1.95c0-0.1-0.05-0.15-0.15-0.15
		c-0.033-0.033-0.083-0.017-0.15,0.05L92.7,37.7l-1.65,2.8c-0.033,0.1-0.117,0.15-0.25,0.15l-0.35-0.05l-0.1-0.05l-0.05-0.1
		l0.25-0.65c0.233-0.566,0.383-1,0.45-1.3c0.133-0.367,0.2-0.667,0.2-0.9c0-0.133-0.067-0.217-0.2-0.25c-0.267,0-0.9,0.983-1.9,2.95
		c-0.033,0.1-0.1,0.15-0.2,0.15l-0.3-0.05l-0.05-0.1l0.7-3c0.033-0.167,0.1-0.267,0.2-0.3l0.4-0.05H90z"/>
	<path fill-rule="evenodd" clip-rule="evenodd" fill="#666666" d="M97.4,37.9c0.133,0.133,0.2,0.317,0.2,0.55
		c0,0.267-0.05,0.466-0.15,0.6c-0.1,0.167-0.3,0.317-0.6,0.45c-0.333,0.233-0.85,0.483-1.55,0.75l0.1,0.35
		c0.1,0.133,0.233,0.2,0.4,0.2c0.1,0.067,0.2,0.067,0.3,0l0.4-0.2l0.75-0.55L97.4,40l0.05,0.05l0.05,0.1
		c-0.267,0.267-0.6,0.55-1,0.85c-0.267,0.1-0.583,0.133-0.95,0.1c-0.6-0.033-0.9-0.367-0.9-1c0-0.333,0.067-0.633,0.2-0.9
		c0.2-0.4,0.383-0.667,0.55-0.8l0.75-0.6l0.75-0.15C97.167,37.717,97.333,37.8,97.4,37.9z M96.85,38.05l-0.2-0.1
		c-0.2-0.034-0.45,0.216-0.75,0.75c-0.267,0.433-0.483,0.883-0.65,1.35l1-0.75c0.433-0.333,0.667-0.667,0.7-1L96.85,38.05z"/>
	<path fill-rule="evenodd" clip-rule="evenodd" fill="#666666" d="M100.55,38.05c0.233,0,0.35,0.267,0.35,0.8
		c0,0.3-0.033,0.517-0.1,0.65l-0.6,0.3v-0.05l-0.05-0.05l0.25-0.8l-0.05-0.05l-0.05-0.1c-0.1,0-0.183,0.05-0.25,0.15l-0.4,0.6
		l-0.85,1.75c0,0.067-0.033,0.1-0.1,0.1l-0.45-0.05l-0.05-0.2l0.65-2.75V38.2l0.35-0.15l0.4-0.1V38l0.05,0.05L99.6,38.1l-0.5,1.8
		l0.5-0.85c0.3-0.5,0.483-0.783,0.55-0.85C100.25,38.033,100.383,37.983,100.55,38.05z"/>
	<path fill-rule="evenodd" clip-rule="evenodd" fill="#666666" d="M104.85,38.85l-0.75,2.45c0,0.133,0.05,0.2,0.15,0.2
		c0.167,0.067,0.45-0.117,0.85-0.55l0.1-0.05l0.05,0.1l-0.1,0.15c-0.333,0.4-0.583,0.633-0.75,0.7c-0.133,0.1-0.283,0.15-0.45,0.15
		c-0.133,0-0.233-0.067-0.3-0.2c-0.1-0.1-0.15-0.233-0.15-0.4l0.05-0.55l0.1-0.45c-0.333,0.467-0.667,0.833-1,1.1
		c-0.2,0.2-0.417,0.3-0.65,0.3c-0.233-0.066-0.4-0.167-0.5-0.3c-0.133-0.2-0.2-0.4-0.2-0.6c0-0.267,0.1-0.633,0.3-1.1
		c0.2-0.433,0.467-0.783,0.8-1.05c0.367-0.3,0.8-0.433,1.3-0.4l0.3,0.1l0.15,0.1L104,38.9l-0.2-0.2l-0.3-0.05
		c-0.267-0.033-0.517,0.083-0.75,0.35c-0.167,0.167-0.35,0.483-0.55,0.95c-0.133,0.367-0.2,0.683-0.2,0.95l0.1,0.3l0.2,0.1
		c0.333,0.067,0.667-0.2,1-0.8c0.4-0.633,0.733-1.233,1-1.8l0.1-0.1l0.15-0.05l0.25,0.05l0.05,0.1V38.85z"/>
</g>
<g>
	<path fill-rule="evenodd" clip-rule="evenodd" fill="none" stroke="#000000" stroke-width="0.25" d="M177.8,48.65
		c1.834-2.167,4.101-3.417,6.8-3.75c2.7-0.333,5.067,0.35,7.101,2.05c2.033,1.7,3.116,3.917,3.25,6.65
		c0.166,2.733-0.65,5.183-2.45,7.35c-1.833,2.167-4.1,3.4-6.8,3.7c-2.7,0.333-5.066-0.35-7.101-2.05
		c-2.033-1.667-3.116-3.867-3.25-6.6C175.184,53.267,176,50.817,177.8,48.65z"/>
	
		<linearGradient id="SVGID_22_" gradientUnits="userSpaceOnUse" x1="101.2266" y1="-158.4697" x2="119.8685" y2="-158.4697" gradientTransform="matrix(0.3219 0.9468 -0.9468 0.3219 0 0)">
		<stop  offset="0.0039" style="stop-color:#000000"/>
		<stop  offset="0.549" style="stop-color:#696969"/>
		<stop  offset="0.5882" style="stop-color:#696969"/>
		<stop  offset="0.9255" style="stop-color:#000000"/>
	</linearGradient>
	<path fill-rule="evenodd" clip-rule="evenodd" fill="url(#SVGID_22_)" d="M191.7,46.95c2.033,1.7,3.116,3.917,3.25,6.65
		c0.166,2.733-0.65,5.183-2.45,7.35l-0.55,0.55c-1.834,1.367-3.867,2.05-6.101,2.05c-2.267,0-4.25-0.7-5.949-2.1
		c-2.034-1.7-3.117-3.917-3.25-6.65c-0.167-2.733,0.666-5.167,2.5-7.3c0.066-0.067,0.25-0.267,0.55-0.6
		c1.833-1.367,3.866-2.05,6.1-2.05C188.066,44.85,190.033,45.55,191.7,46.95z"/>
	<path fill-rule="evenodd" clip-rule="evenodd" fill="none" stroke="#000000" stroke-width="0.25" d="M177.8,48.65
		c1.834-2.167,4.101-3.417,6.8-3.75c2.7-0.333,5.067,0.35,7.101,2.05c2.033,1.7,3.116,3.917,3.25,6.65
		c0.166,2.733-0.65,5.183-2.45,7.35c-1.833,2.167-4.1,3.4-6.8,3.7c-2.7,0.333-5.066-0.35-7.101-2.05
		c-2.033-1.667-3.116-3.867-3.25-6.6C175.184,53.267,176,50.817,177.8,48.65z"/>
	<path fill-rule="evenodd" clip-rule="evenodd" fill="none" stroke="#000000" stroke-width="0.15" d="M181.15,49.05
		c1.399-1.667,3.166-2.6,5.3-2.8c2.1-0.233,3.967,0.317,5.6,1.65c1.601,1.367,2.483,3.117,2.65,5.25c0.133,2.133-0.5,4.033-1.9,5.7
		c-1.366,1.667-3.116,2.617-5.25,2.85c-2.133,0.233-4-0.333-5.6-1.7c-1.634-1.333-2.517-3.083-2.65-5.25
		C179.134,52.617,179.75,50.717,181.15,49.05z"/>
	
		<radialGradient id="SVGID_23_" cx="189.5996" cy="59.6499" r="15.95" gradientTransform="matrix(1 0 0 -1 0 119.2998)" gradientUnits="userSpaceOnUse">
		<stop  offset="0" style="stop-color:#FFFFFF"/>
		<stop  offset="0.7882" style="stop-color:#000000"/>
	</radialGradient>
	<path fill-rule="evenodd" clip-rule="evenodd" fill="url(#SVGID_23_)" d="M182.15,48.25l0.5-0.6c1.433-1,3.017-1.483,4.75-1.45
		c1.767,0.033,3.316,0.6,4.649,1.7c1.601,1.367,2.483,3.117,2.65,5.25c0.133,2.133-0.5,4.033-1.9,5.7l-0.5,0.55
		c-1.399,1-2.983,1.483-4.75,1.45s-3.3-0.6-4.6-1.7c-1.634-1.333-2.517-3.066-2.65-5.2C180.134,51.817,180.75,49.917,182.15,48.25z"
		/>
	<path fill-rule="evenodd" clip-rule="evenodd" fill="#333333" d="M182.95,59.15c1.3,1.1,2.833,1.667,4.6,1.7s3.351-0.45,4.75-1.45
		c-1.434,1.434-3.133,2.217-5.1,2.35c-2,0.1-3.75-0.483-5.25-1.75c-1.634-1.333-2.517-3.083-2.65-5.25
		c-0.166-2.133,0.45-4.033,1.851-5.7c0.433-0.5,0.933-0.966,1.5-1.4l-0.5,0.6c-1.4,1.667-2.017,3.567-1.851,5.7
		C180.434,56.083,181.316,57.817,182.95,59.15z"/>
	<path fill-rule="evenodd" clip-rule="evenodd" d="M179.15,47.5c-1.834,2.133-2.667,4.567-2.5,7.3c0.133,2.733,1.216,4.95,3.25,6.65
		c1.699,1.4,3.683,2.1,5.949,2.1c2.233,0,4.267-0.683,6.101-2.05c-1.834,1.9-4.033,2.967-6.601,3.2
		c-2.566,0.233-4.816-0.467-6.75-2.1c-2.033-1.667-3.116-3.867-3.25-6.6c-0.166-2.733,0.65-5.183,2.45-7.35
		c0.566-0.667,1.2-1.25,1.9-1.75C179.4,47.233,179.217,47.433,179.15,47.5z"/>
	<path fill-rule="evenodd" clip-rule="evenodd" fill="none" stroke="#000000" stroke-width="0.25" d="M177.8,48.65
		c1.834-2.167,4.101-3.417,6.8-3.75c2.7-0.333,5.067,0.35,7.101,2.05c2.033,1.7,3.116,3.917,3.25,6.65
		c0.166,2.733-0.65,5.183-2.45,7.35c-1.833,2.167-4.1,3.4-6.8,3.7c-2.7,0.333-5.066-0.35-7.101-2.05
		c-2.033-1.667-3.116-3.867-3.25-6.6C175.184,53.267,176,50.817,177.8,48.65z"/>
	<path fill-rule="evenodd" clip-rule="evenodd" fill="#FFFFFF" d="M192.1,46.925c-0.08-0.074-0.163-0.148-0.25-0.225
		c-2.066-1.767-4.5-2.467-7.3-2.1c-2.8,0.333-5.116,1.633-6.95,3.9c-1.866,2.267-2.733,4.817-2.6,7.65
		c0.167,2.833,1.3,5.133,3.4,6.9c2.066,1.767,4.5,2.483,7.3,2.15c2.767-0.333,5.083-1.633,6.95-3.9c1.199-1.45,1.983-3.05,2.35-4.8
		c-0.345,1.85-1.161,3.583-2.45,5.2c-1.934,2.333-4.35,3.683-7.25,4.05c-2.899,0.333-5.416-0.417-7.55-2.25
		c-2.167-1.833-3.333-4.217-3.5-7.15c-0.167-2.967,0.717-5.617,2.65-7.95c1.933-2.333,4.35-3.683,7.25-4.05
		c2.866-0.367,5.383,0.367,7.55,2.2C191.842,46.677,191.975,46.802,192.1,46.925z"/>
	
		<radialGradient id="SVGID_24_" cx="162.5996" cy="59.6499" r="33.4" gradientTransform="matrix(1 0 0 -1 0 119.2998)" gradientUnits="userSpaceOnUse">
		<stop  offset="0" style="stop-color:#FFFFFF"/>
		<stop  offset="0.1059" style="stop-color:#FAFAFA"/>
		<stop  offset="0.2314" style="stop-color:#ECECEC"/>
		<stop  offset="0.3608" style="stop-color:#D5D5D5"/>
		<stop  offset="0.502" style="stop-color:#B4B4B4"/>
		<stop  offset="0.6431" style="stop-color:#8A8A8A"/>
		<stop  offset="0.7922" style="stop-color:#565656"/>
		<stop  offset="0.9412" style="stop-color:#1B1B1B"/>
		<stop  offset="1" style="stop-color:#000000"/>
	</radialGradient>
	<path fill-rule="evenodd" clip-rule="evenodd" fill="url(#SVGID_24_)" d="M194.7,53.8c-1.9,0.333-4.017,0.5-6.351,0.5
		c-2.966,0-5.666-0.267-8.1-0.8c0-2,0.634-3.75,1.9-5.25l0.5-0.6c1.433-1,3.017-1.483,4.75-1.45c1.767,0.033,3.316,0.6,4.649,1.7
		C193.884,49.433,194.767,51.4,194.7,53.8z"/>
	<g>
		
			<radialGradient id="SVGID_25_" cx="181.5996" cy="58.1499" r="16.0625" gradientTransform="matrix(1 0 0 -1 0 116.2998)" gradientUnits="userSpaceOnUse">
			<stop  offset="0" style="stop-color:#FFFFFF"/>
			<stop  offset="0.1059" style="stop-color:#FAFAFA"/>
			<stop  offset="0.2314" style="stop-color:#ECECEC"/>
			<stop  offset="0.3608" style="stop-color:#D5D5D5"/>
			<stop  offset="0.502" style="stop-color:#B4B4B4"/>
			<stop  offset="0.6431" style="stop-color:#8A8A8A"/>
			<stop  offset="0.7922" style="stop-color:#565656"/>
			<stop  offset="0.9412" style="stop-color:#1B1B1B"/>
			<stop  offset="1" style="stop-color:#000000"/>
		</radialGradient>
		<path fill-rule="evenodd" clip-rule="evenodd" fill="url(#SVGID_25_)" d="M182.15,48.25l0.5-0.6c1.433-1,3.017-1.483,4.75-1.45
			c1.767,0.033,3.316,0.6,4.649,1.7c1.601,1.367,2.483,3.117,2.65,5.25c0.133,2.133-0.5,4.033-1.9,5.7l-0.5,0.55
			c-1.399,1-2.983,1.483-4.75,1.45s-3.3-0.6-4.6-1.7c-1.634-1.333-2.517-3.066-2.65-5.2C180.134,51.817,180.75,49.917,182.15,48.25z
			"/>
		<path fill-rule="evenodd" clip-rule="evenodd" fill="none" stroke="#000000" stroke-width="0.15" d="M182.15,48.25
			c-1.4,1.667-2.017,3.567-1.851,5.7c0.134,2.133,1.017,3.867,2.65,5.2c1.3,1.1,2.833,1.667,4.6,1.7s3.351-0.45,4.75-1.45l0.5-0.55
			c1.4-1.667,2.033-3.567,1.9-5.7c-0.167-2.133-1.05-3.883-2.65-5.25c-1.333-1.1-2.883-1.667-4.649-1.7
			c-1.733-0.034-3.317,0.45-4.75,1.45L182.15,48.25z"/>
	</g>
	
		<radialGradient id="SVGID_26_" cx="180.9502" cy="42.1499" r="12.6125" gradientTransform="matrix(1 0 0 -1 0 84.2998)" gradientUnits="userSpaceOnUse">
		<stop  offset="0" style="stop-color:#FFFFFF"/>
		<stop  offset="0.1216" style="stop-color:#E7E7E7"/>
		<stop  offset="0.3804" style="stop-color:#A9A9A9"/>
		<stop  offset="0.7451" style="stop-color:#474747"/>
		<stop  offset="1" style="stop-color:#000000"/>
	</radialGradient>
	<path fill-rule="evenodd" clip-rule="evenodd" fill="url(#SVGID_26_)" d="M184.6,48.8l0.4-0.4c1-0.7,2.116-1.033,3.35-1
		c1.267,0,2.367,0.4,3.301,1.2c1.166,0.967,1.8,2.2,1.899,3.7c0.101,1.534-0.35,2.9-1.35,4.1l-0.351,0.4
		c-1,0.7-2.116,1.05-3.35,1.05c-1.267-0.033-2.384-0.45-3.35-1.25c-1.134-0.934-1.767-2.167-1.9-3.7
		C183.15,51.367,183.6,50,184.6,48.8z"/>
	<g>
		
			<radialGradient id="SVGID_27_" cx="187.75" cy="52.6499" r="7" gradientTransform="matrix(1 0 0 -1 0 105.2998)" gradientUnits="userSpaceOnUse">
			<stop  offset="0" style="stop-color:#FFFFFF"/>
			<stop  offset="0.1059" style="stop-color:#FAFAFA"/>
			<stop  offset="0.2314" style="stop-color:#ECECEC"/>
			<stop  offset="0.3608" style="stop-color:#D5D5D5"/>
			<stop  offset="0.502" style="stop-color:#B4B4B4"/>
			<stop  offset="0.6431" style="stop-color:#8A8A8A"/>
			<stop  offset="0.7922" style="stop-color:#565656"/>
			<stop  offset="0.9412" style="stop-color:#1B1B1B"/>
			<stop  offset="1" style="stop-color:#000000"/>
		</radialGradient>
		<path fill-rule="evenodd" clip-rule="evenodd" fill="url(#SVGID_27_)" d="M182.15,48.25l0.5-0.6c1.433-1,3.017-1.483,4.75-1.45
			c1.767,0.033,3.316,0.6,4.649,1.7c1.601,1.367,2.483,3.117,2.65,5.25c0.133,2.133-0.5,4.033-1.9,5.7l-0.5,0.55
			c-1.399,1-2.983,1.483-4.75,1.45s-3.3-0.6-4.6-1.7c-1.634-1.333-2.517-3.066-2.65-5.2C180.134,51.817,180.75,49.917,182.15,48.25z
			"/>
		<path fill-rule="evenodd" clip-rule="evenodd" fill="none" stroke="#000000" stroke-width="0.15" d="M182.15,48.25
			c-1.4,1.667-2.017,3.567-1.851,5.7c0.134,2.133,1.017,3.867,2.65,5.2c1.3,1.1,2.833,1.667,4.6,1.7s3.351-0.45,4.75-1.45l0.5-0.55
			c1.4-1.667,2.033-3.567,1.9-5.7c-0.167-2.133-1.05-3.883-2.65-5.25c-1.333-1.1-2.883-1.667-4.649-1.7
			c-1.733-0.034-3.317,0.45-4.75,1.45L182.15,48.25z"/>
	</g>
	
		<radialGradient id="SVGID_28_" cx="127.0518" cy="142.2568" r="1.0654" gradientTransform="matrix(0.8565 -0.5162 -0.5162 -0.8565 146.8717 243.6734)" gradientUnits="userSpaceOnUse">
		<stop  offset="0" style="stop-color:#FFFFFF"/>
		<stop  offset="0.5412" style="stop-color:#777777"/>
		<stop  offset="1" style="stop-color:#000000"/>
	</radialGradient>
	<path fill-rule="evenodd" clip-rule="evenodd" fill="url(#SVGID_28_)" d="M182.95,55.85c0.233,0.433,0.383,0.833,0.45,1.2
		c0.033,0.367-0.034,0.6-0.2,0.7c-0.167,0.1-0.4,0.05-0.7-0.15c-0.3-0.233-0.583-0.55-0.85-0.95c-0.233-0.433-0.384-0.833-0.45-1.2
		c-0.033-0.367,0.033-0.6,0.2-0.7c0.166-0.1,0.399-0.033,0.699,0.2C182.434,55.15,182.717,55.45,182.95,55.85z"/>
	
		<radialGradient id="SVGID_29_" cx="137.7725" cy="143.0947" r="1.6314" gradientTransform="matrix(0.8561 -0.5168 -0.4034 -0.6682 131.68 218.1246)" gradientUnits="userSpaceOnUse">
		<stop  offset="0" style="stop-color:#FFFFFF"/>
		<stop  offset="0.5412" style="stop-color:#777777"/>
		<stop  offset="1" style="stop-color:#000000"/>
	</radialGradient>
	<path fill-rule="evenodd" clip-rule="evenodd" fill="url(#SVGID_29_)" d="M192.95,50.7c0.3,0.5,0.45,0.983,0.45,1.45
		c0.033,0.467-0.084,0.783-0.351,0.95c-0.267,0.167-0.616,0.133-1.05-0.1c-0.4-0.233-0.75-0.6-1.05-1.1s-0.45-0.983-0.45-1.45
		c-0.033-0.467,0.083-0.784,0.35-0.95c0.267-0.133,0.617-0.083,1.051,0.15C192.3,49.883,192.65,50.233,192.95,50.7z"/>
</g>
<linearGradient id="SVGID_30_" gradientUnits="userSpaceOnUse" x1="70.4336" y1="-93.9316" x2="184.4828" y2="-93.9316" gradientTransform="matrix(0.1337 0.991 -0.991 0.1337 -4.882813e-004 0)">
	<stop  offset="0.0118" style="stop-color:#CCCCCC"/>
	<stop  offset="0.1608" style="stop-color:#F7F8F8"/>
	<stop  offset="0.1647" style="stop-color:#9C9EA1"/>
	<stop  offset="0.3137" style="stop-color:#4C4C4C"/>
	<stop  offset="0.5216" style="stop-color:#4C4C4C"/>
	<stop  offset="0.5294" style="stop-color:#EEF0F1"/>
	<stop  offset="1" style="stop-color:#FFFFFF"/>
</linearGradient>
<path fill-rule="evenodd" clip-rule="evenodd" fill="url(#SVGID_30_)" d="M144.15,75.95c10.366,11.566,15.916,25.149,16.649,40.75
	c0.733,15.566-3.6,28.6-13,39.1c-9.399,10.467-21.083,15.316-35.05,14.55c-14-0.767-26.2-6.933-36.6-18.5
	c-10.367-11.6-15.917-25.183-16.65-40.75c-0.733-15.6,3.6-28.633,13-39.1s21.083-15.317,35.05-14.55
	C121.55,58.217,133.75,64.383,144.15,75.95z"/>
<linearGradient id="SVGID_31_" gradientUnits="userSpaceOnUse" x1="65.1187" y1="-125.7085" x2="205.1638" y2="-125.7085" gradientTransform="matrix(0.2189 0.9758 -0.9758 0.2189 0 0)">
	<stop  offset="0.0431" style="stop-color:#FFFFFF"/>
	<stop  offset="0.2588" style="stop-color:#4C4C4C"/>
	<stop  offset="0.451" style="stop-color:#4C4C4C"/>
	<stop  offset="0.8667" style="stop-color:#F2F2F2"/>
</linearGradient>
<path fill-rule="evenodd" clip-rule="evenodd" fill="url(#SVGID_31_)" d="M168.75,78.25l0.6,0.85c0.5,0.6,1,1,1.5,1.2l5.75,2.5
	c1.834,1,3.051,2.317,3.65,3.95c0.9,2.4,1.7,5.134,2.4,8.2c1.399,6.2,2.033,12.35,1.899,18.45
	c-0.434,19.233-8.25,34.866-23.45,46.899c-0.966,0.8-2.533,1.15-4.699,1.05c-1.733-0.066-3.067-0.3-4-0.699v-0.2
	c7.566-4.634,13.449-11.233,17.649-19.8c4.3-8.801,6.217-18.517,5.75-29.15c-0.733-16-6.283-29.933-16.649-41.8
	c-10.4-11.867-22.601-18.2-36.601-19c-4.867-0.3-9.583,0.216-14.15,1.55l-0.45-0.35c5.5-1.967,11.2-2.783,17.1-2.45
	c8.767,0.5,17.05,3.383,24.851,8.65C157.5,63.167,163.783,69.883,168.75,78.25z"/>
<linearGradient id="SVGID_32_" gradientUnits="userSpaceOnUse" x1="108.9541" y1="-73.4277" x2="188.5101" y2="-73.4277" gradientTransform="matrix(0.6159 0.7878 -0.7878 0.6159 0 0)">
	<stop  offset="0.0275" style="stop-color:#4C4C4C"/>
	<stop  offset="0.5373" style="stop-color:#B1B1B1"/>
	<stop  offset="0.6" style="stop-color:#B1B1B1"/>
	<stop  offset="1" style="stop-color:#4C4C4C"/>
</linearGradient>
<path fill-rule="evenodd" clip-rule="evenodd" fill="url(#SVGID_32_)" d="M172.95,63.6c4.633,4.9,7.883,9.55,9.75,13.95l-4,0.3
	c-0.533,0-0.9-0.067-1.101-0.2l-1-1.2c-5.133-8.467-11.666-15.3-19.6-20.5c-8.167-5.333-16.85-8.25-26.05-8.75
	c-8.233-0.434-15.9,1.133-23,4.7l0.7,0.25c-1.4,0.4-2.75,0.85-4.05,1.35l2.2-2.2c2.467-2.533,7.3-4.483,14.5-5.85
	c6.867-1.3,12.467-1.5,16.8-0.6C152.033,47.483,163.65,53.733,172.95,63.6z"/>
<linearGradient id="SVGID_33_" gradientUnits="userSpaceOnUse" x1="79.2446" y1="-91.6406" x2="224.1444" y2="-91.6406" gradientTransform="matrix(0.2667 0.9638 -0.9638 0.2667 0 0)">
	<stop  offset="0" style="stop-color:#FAF7E8"/>
	<stop  offset="0.2627" style="stop-color:#CCCCCC"/>
	<stop  offset="0.498" style="stop-color:#FAFFFF"/>
	<stop  offset="0.549" style="stop-color:#FAFFFF"/>
	<stop  offset="0.7647" style="stop-color:#E5E5E5"/>
	<stop  offset="1" style="stop-color:#FAF7E8"/>
</linearGradient>
<path fill-rule="evenodd" clip-rule="evenodd" fill="url(#SVGID_33_)" d="M162.8,151.65c-9.399,10.733-21.083,15.716-35.05,14.949
	c-14-0.8-26.2-7.133-36.6-19C80.783,135.7,75.233,121.75,74.5,105.75s3.6-29.367,13-40.1c9.4-10.767,21.083-15.75,35.05-14.95
	c14,0.8,26.2,7.133,36.601,19c10.366,11.867,15.916,25.8,16.649,41.8S172.2,140.884,162.8,151.65z"/>
<linearGradient id="SVGID_34_" gradientUnits="userSpaceOnUse" x1="68.1162" y1="-97.6797" x2="197.3235" y2="-97.6797" gradientTransform="matrix(0.1548 0.9879 -0.9879 0.1548 0 0)">
	<stop  offset="0.0824" style="stop-color:#CCCCCC"/>
	<stop  offset="0.4784" style="stop-color:#EFF3F4"/>
	<stop  offset="0.6157" style="stop-color:#EEF0F1"/>
	<stop  offset="1" style="stop-color:#E5E5E5"/>
</linearGradient>
<path fill-rule="evenodd" clip-rule="evenodd" fill="url(#SVGID_34_)" d="M113.8,53.95c14,0.8,26.2,7.133,36.601,19
	c10.366,11.867,15.916,25.8,16.649,41.8s-3.6,29.384-13,40.15c-9.399,10.733-21.083,15.716-35.05,14.949c-14-0.8-26.2-7.133-36.6-19
	C72.033,138.95,66.483,125,65.75,109s3.6-29.367,13-40.1C88.15,58.133,99.833,53.15,113.8,53.95z"/>
<linearGradient id="SVGID_35_" gradientUnits="userSpaceOnUse" x1="68.1162" y1="-97.6797" x2="197.3235" y2="-97.6797" gradientTransform="matrix(0.1548 0.9879 -0.9879 0.1548 0 0)">
	<stop  offset="0.0824" style="stop-color:#CCCCCC"/>
	<stop  offset="0.4784" style="stop-color:#FAFAEB"/>
	<stop  offset="0.6157" style="stop-color:#EEF0F1"/>
	<stop  offset="1" style="stop-color:#E5E5E5"/>
</linearGradient>
<path fill-rule="evenodd" clip-rule="evenodd" fill="url(#SVGID_35_)" d="M113.8,53.95c14,0.8,26.2,7.133,36.601,19
	c10.366,11.867,15.916,25.8,16.649,41.8s-3.6,29.384-13,40.15c-9.399,10.733-21.083,15.716-35.05,14.949c-14-0.8-26.2-7.133-36.6-19
	C72.033,138.95,66.483,125,65.75,109s3.6-29.367,13-40.1C88.15,58.133,99.833,53.15,113.8,53.95z"/>
<path fill-rule="evenodd" clip-rule="evenodd" fill="#CCCCCC" d="M167.05,114.75c0.467,10.434-1.366,20-5.5,28.7
	c-3.033,6.342-7.008,11.625-11.925,15.85c4.759-4.283,8.6-9.55,11.525-15.8c4.066-8.634,5.866-18.1,5.399-28.4
	c-0.733-16-6.283-29.933-16.649-41.8C139.5,61.4,127.3,55.05,113.3,54.25c-6.925-0.4-13.441,0.733-19.55,3.4
	c6.22-2.869,12.903-4.103,20.05-3.7c14,0.8,26.2,7.133,36.601,19C160.767,84.817,166.316,98.75,167.05,114.75z"/>
<linearGradient id="SVGID_36_" gradientUnits="userSpaceOnUse" x1="200.667" y1="-78.207" x2="233.9462" y2="-78.207" gradientTransform="matrix(0.4905 0.8714 -0.8714 0.4905 2.441406e-004 0)">
	<stop  offset="0.0431" style="stop-color:#B1B1B1"/>
	<stop  offset="0.1216" style="stop-color:#B1B1B1"/>
	<stop  offset="0.2588" style="stop-color:#4C4C4C"/>
	<stop  offset="0.5647" style="stop-color:#4C4C4C"/>
	<stop  offset="0.8667" style="stop-color:#F2F2F2"/>
</linearGradient>
<path fill-rule="evenodd" clip-rule="evenodd" fill="url(#SVGID_36_)" d="M184.85,141c3.667,5.8,5.784,9.616,6.351,11.45
	c0.6,1.833,0.467,3.883-0.4,6.149c-1.066,2.7-2.967,4.817-5.7,6.351c-2.6,1.467-5.233,2.116-7.899,1.95
	c-1.533-0.101-3.283-0.551-5.25-1.351c-0.967-0.399-2.55-1.434-4.75-3.1c-1.533-1.167-2.767-2.167-3.7-3
	c4.233-2.2,8.05-5.184,11.45-8.95c1.066-1.2,2.533-3.134,4.399-5.8c0.534-0.834,1.284-1.667,2.25-2.5
	c0.134-0.167,0.7-0.384,1.7-0.65c0.467-0.133,0.934-0.25,1.4-0.35L184.85,141z"/>
<linearGradient id="SVGID_37_" gradientUnits="userSpaceOnUse" x1="159.0547" y1="-128.1753" x2="213.6187" y2="-128.1753" gradientTransform="matrix(0.2625 0.9649 -0.9649 0.2625 0 0)">
	<stop  offset="0" style="stop-color:#4C4C4C"/>
	<stop  offset="0.8902" style="stop-color:#FAFFFF"/>
</linearGradient>
<path fill-rule="evenodd" clip-rule="evenodd" fill="url(#SVGID_37_)" d="M187.2,153.1c0.6,1.867,0.467,3.934-0.4,6.2
	c-1.066,2.667-2.967,4.767-5.7,6.3c-0.8,0.467-1.8,0.917-3,1.351c-1.833,0-3.883-0.467-6.149-1.4c-0.967-0.399-2.55-1.434-4.75-3.1
	c-1.533-1.167-2.767-2.167-3.7-3c4.233-2.2,8.05-5.184,11.45-8.95c1.066-1.2,2.533-3.134,4.399-5.8c0.434-0.7,1.101-1.45,2-2.25
	C184.717,147.884,186.667,151.434,187.2,153.1z"/>
<linearGradient id="SVGID_38_" gradientUnits="userSpaceOnUse" x1="96.8413" y1="-133.2705" x2="206.1396" y2="-133.2705" gradientTransform="matrix(0.1892 0.9819 -0.9819 0.1892 0 0)">
	<stop  offset="0.0431" style="stop-color:#B1B1B1"/>
	<stop  offset="0.1216" style="stop-color:#B1B1B1"/>
	<stop  offset="0.2588" style="stop-color:#4C4C4C"/>
	<stop  offset="0.5647" style="stop-color:#4C4C4C"/>
	<stop  offset="0.8667" style="stop-color:#F2F2F2"/>
</linearGradient>
<path fill-rule="evenodd" clip-rule="evenodd" fill="url(#SVGID_38_)" d="M176.6,76.45l1,1.2c0.2,0.133,0.567,0.2,1.101,0.2l4-0.3
	l2.2,1.65c1.566,1.367,2.699,2.667,3.399,3.9c1.434,2.6,2.717,7.25,3.851,13.95c1.533,8.967,1.6,17.101,0.199,24.4
	c-0.533,2.934-1.449,6.184-2.75,9.75c-1.566,4.333-3.199,7.666-4.899,10c-0.467,0.1-0.934,0.217-1.4,0.35
	c-1,0.267-1.566,0.483-1.7,0.65c-0.966,0.833-1.716,1.666-2.25,2.5c-1.933,2.866-3.699,5.116-5.3,6.75
	c-4.166,4.366-8.866,7.566-14.1,9.6l-0.2-0.05c0.566-0.167,1.017-0.4,1.35-0.7c15.2-12.033,23.017-27.666,23.45-46.899
	c0.134-6.101-0.5-12.25-1.899-18.45c-0.7-3.066-1.5-5.8-2.4-8.2c-0.6-1.633-1.816-2.95-3.65-3.95l-5.75-2.5c-0.5-0.2-1-0.6-1.5-1.2
	l-0.6-0.85c-4.967-8.367-11.25-15.083-18.85-20.15c-7.801-5.267-16.084-8.15-24.851-8.65c-5.899-0.333-11.583,0.483-17.05,2.45
	h-0.05c7.1-3.566,14.767-5.133,23-4.7c9.2,0.5,17.883,3.417,26.05,8.75C164.934,61.15,171.467,67.983,176.6,76.45z"/>
<path fill-rule="evenodd" clip-rule="evenodd" fill="none" stroke="#000000" stroke-width="0.5" d="M107.55,57.45
	C93.583,56.683,81.9,61.533,72.5,72s-13.733,23.5-13,39.1c0.733,15.567,6.283,29.15,16.65,40.75c10.4,11.567,22.6,17.733,36.6,18.5
	c13.967,0.767,25.65-4.083,35.05-14.55c9.4-10.5,13.733-23.533,13-39.1c-0.733-15.601-6.283-29.184-16.649-40.75
	C133.75,64.383,121.55,58.217,107.55,57.45z"/>
<linearGradient id="SVGID_39_" gradientUnits="userSpaceOnUse" x1="68.1494" y1="-94.7354" x2="185.957" y2="-94.7354" gradientTransform="matrix(0.1337 0.991 -0.991 0.1337 4.882813e-004 0)">
	<stop  offset="0.0118" style="stop-color:#CCCCCC"/>
	<stop  offset="0.1608" style="stop-color:#F7F8F8"/>
	<stop  offset="0.1647" style="stop-color:#9C9EA1"/>
	<stop  offset="0.3137" style="stop-color:#4C4C4C"/>
	<stop  offset="0.5216" style="stop-color:#4C4C4C"/>
	<stop  offset="0.5294" style="stop-color:#EEF0F1"/>
	<stop  offset="1" style="stop-color:#FFFFFF"/>
</linearGradient>
<path fill-rule="evenodd" clip-rule="evenodd" fill="url(#SVGID_39_)" d="M108.25,55.2c14.366,0.8,26.884,7.183,37.55,19.15
	c10.667,11.933,16.367,25.95,17.101,42.05c0.733,16.1-3.717,29.566-13.351,40.399c-9.633,10.834-21.633,15.851-36,15.05
	c-14.367-0.8-26.867-7.183-37.5-19.149C65.383,140.767,59.667,126.733,58.9,110.6c-0.733-16.1,3.717-29.55,13.35-40.35
	C81.883,59.417,93.883,54.4,108.25,55.2z M144.15,75.95c-10.4-11.567-22.601-17.733-36.601-18.5C93.583,56.683,81.9,61.533,72.5,72
	s-13.733,23.5-13,39.1c0.733,15.567,6.283,29.15,16.65,40.75c10.4,11.567,22.6,17.733,36.6,18.5
	c13.967,0.767,25.65-4.083,35.05-14.55c9.4-10.5,13.733-23.533,13-39.1C160.066,101.1,154.517,87.517,144.15,75.95z"/>
<path fill-rule="evenodd" clip-rule="evenodd" fill="#999999" d="M106.8,57.45l-2.2-0.1c1.3,0,2.283,0.033,2.95,0.1
	c14,0.767,26.2,6.933,36.601,18.5c10.366,11.566,15.916,25.149,16.649,40.75c0.7,15.133-3.399,27.899-12.3,38.3
	c-6.698,7.802-14.698,12.61-24,14.425c9.108-2.059,16.925-6.95,23.45-14.675c8.767-10.4,12.8-23.083,12.1-38.05
	c-0.733-15.601-6.283-29.184-16.649-40.75C133,64.383,120.8,58.217,106.8,57.45z"/>
<path fill-rule="evenodd" clip-rule="evenodd" fill="#E5E5E5" d="M107.75,61.8c12.9,0.733,24.15,6.434,33.75,17.1
	s14.733,23.183,15.4,37.55c0.666,14.399-3.334,26.434-12,36.1c-8.667,9.667-19.45,14.134-32.351,13.4
	c-12.9-0.7-24.15-6.384-33.75-17.05c-9.566-10.7-14.683-23.233-15.35-37.601c-0.667-14.366,3.316-26.383,11.95-36.05
	C84.067,65.55,94.85,61.067,107.75,61.8z M140.45,80.15c-9.267-10.367-20.134-15.9-32.6-16.6C95.383,62.85,84.967,67.2,76.6,76.6
	c-8.367,9.367-12.233,21.034-11.6,35c0.667,13.967,5.633,26.134,14.9,36.5c9.267,10.367,20.117,15.884,32.55,16.551
	c12.467,0.699,22.883-3.634,31.25-13c8.399-9.4,12.267-21.084,11.6-35.051C154.667,102.667,149.717,90.517,140.45,80.15z"/>
<path fill-rule="evenodd" clip-rule="evenodd" fill="#B2B2B2" d="M106.65,61.775l1.1,0.025c12.9,0.733,24.15,6.434,33.75,17.1
	s14.733,23.183,15.4,37.55c0.633,13.967-3.15,25.75-11.351,35.35c-6.138,7.19-13.479,11.641-22.024,13.351
	c8.425-1.884,15.649-6.4,21.675-13.551c8.1-9.566,11.833-21.283,11.2-35.149c-0.667-14.367-5.801-26.884-15.4-37.55
	s-20.85-16.367-33.75-17.1L106.65,61.775z"/>
<linearGradient id="SVGID_40_" gradientUnits="userSpaceOnUse" x1="88.6416" y1="-57.3911" x2="197.6734" y2="-57.3911" gradientTransform="matrix(0.3453 0.9385 -0.9385 0.3453 0 0)">
	<stop  offset="0" style="stop-color:#FAF7E8"/>
	<stop  offset="0.2627" style="stop-color:#CCCCCC"/>
	<stop  offset="0.5333" style="stop-color:#EFF3F4"/>
	<stop  offset="0.7216" style="stop-color:#EEF0F1"/>
	<stop  offset="1" style="stop-color:#E5E5E5"/>
</linearGradient>
<path fill-rule="evenodd" clip-rule="evenodd" fill="url(#SVGID_40_)" d="M98.6,64.1c3.033-0.567,6.117-0.75,9.25-0.55
	c12.466,0.7,23.333,6.233,32.6,16.6s14.217,22.517,14.85,36.45c0.367,7.967-0.866,15.417-3.7,22.351
	c-2.767,6.666-6.75,12.217-11.949,16.649l-43.9,18.75l-30.2-14.85l-17.6-52l17-32.9L98.6,64.1z"/>
<path fill-rule="evenodd" clip-rule="evenodd" fill="#B2B2B2" d="M105.35,63.55c-0.434,0-0.767-0.017-1-0.05l3.5,0.05
	c12.466,0.7,23.333,6.233,32.6,16.6s14.217,22.517,14.85,36.45c0.367,7.967-0.866,15.417-3.7,22.351
	c-2.767,6.666-6.75,12.217-11.949,16.649L94.55,173.8l42.601-18.2c5.199-4.433,9.183-9.983,11.949-16.649
	c2.834-6.934,4.067-14.384,3.7-22.351c-0.633-13.933-5.583-26.083-14.85-36.45S117.817,64.25,105.35,63.55z"/>
<linearGradient id="SVGID_41_" gradientUnits="userSpaceOnUse" x1="118.1338" y1="-54.1895" x2="182.7171" y2="-54.1895" gradientTransform="matrix(0.7173 0.6968 -0.6968 0.7173 0 0)">
	<stop  offset="0.0275" style="stop-color:#4C4C4C"/>
	<stop  offset="0.5373" style="stop-color:#B1B1B1"/>
	<stop  offset="0.6" style="stop-color:#B1B1B1"/>
	<stop  offset="1" style="stop-color:#4C4C4C"/>
</linearGradient>
<path fill-rule="evenodd" clip-rule="evenodd" fill="url(#SVGID_41_)" d="M177.6,77.65l-6.75,2.65c-0.5-0.2-1-0.6-1.5-1.2l-0.6-0.85
	c-4.967-8.367-11.25-15.083-18.85-20.15c-7.801-5.267-16.084-8.15-24.851-8.65c-5.899-0.333-11.583,0.483-17.05,2.45h-0.05
	c7.1-3.566,14.767-5.133,23-4.7c9.2,0.5,17.883,3.417,26.05,8.75c7.934,5.2,14.467,12.033,19.6,20.5L177.6,77.65z"/>
<path fill-rule="evenodd" clip-rule="evenodd" fill="#FFFFFF" d="M185.9,154.45c0.466,1.5,0.433,3.184-0.101,5.05
	c-0.6,2.2-1.783,4.083-3.55,5.65c1.366-1.534,2.267-3.267,2.7-5.2c0.366-1.667,0.35-3.167-0.05-4.5c-0.601-1.9-2.567-5.45-5.9-10.65
	l1-1C183.366,149.134,185.333,152.684,185.9,154.45z"/>
<radialGradient id="SVGID_42_" cx="154.4502" cy="92.1504" r="52.025" gradientTransform="matrix(1 0 0 -1 0 184.3008)" gradientUnits="userSpaceOnUse">
	<stop  offset="0" style="stop-color:#000000"/>
	<stop  offset="1" style="stop-color:#FFFFFF"/>
</radialGradient>
<path fill-rule="evenodd" clip-rule="evenodd" fill="url(#SVGID_42_)" d="M105.35,63.55c-0.434,0-0.767-0.017-1-0.05l3.5,0.05
	c12.466,0.7,23.333,6.233,32.6,16.6s14.217,22.517,14.85,36.45c0.367,7.967-0.866,15.417-3.7,22.351
	c-2.767,6.666-6.75,12.217-11.949,16.649h-2.5c5.199-4.433,9.183-9.983,11.949-16.649c2.834-6.934,4.067-14.384,3.7-22.351
	c-0.633-13.933-5.583-26.083-14.85-36.45S117.817,64.25,105.35,63.55z"/>
<path fill-rule="evenodd" clip-rule="evenodd" fill="none" stroke="#FFFFFF" stroke-width="6" d="M175.1,26.3l20,14.5l3.75,4.75
	c2.5,4.167,3.75,8.75,3.75,13.75c0,7.434-0.483,23.117-1.449,47.05c-1.034,25.801-1.884,40.617-2.551,44.45
	c-0.633,3.533-1.816,6.351-3.55,8.45l-2.45,2.05"/>
<g>
	<g>
		<path fill-rule="evenodd" clip-rule="evenodd" fill="#191919" d="M54.65,121.5c-0.4-9.134,2.05-16.767,7.35-22.9
			c5.3-6.1,11.883-8.933,19.75-8.5c7.867,0.467,14.733,4.067,20.6,10.801c5.867,6.767,9,14.716,9.4,23.85
			c0.433,9.134-2,16.767-7.3,22.9c-5.3,6.133-11.883,8.966-19.75,8.5c-7.9-0.434-14.784-4.051-20.65-10.851
			C58.183,138.533,55.05,130.6,54.65,121.5z"/>
		<path fill-rule="evenodd" clip-rule="evenodd" fill="none" stroke="#000000" d="M54.65,121.5c0.4,9.1,3.533,17.033,9.4,23.8
			c5.867,6.8,12.75,10.417,20.65,10.851c7.867,0.466,14.45-2.367,19.75-8.5c5.3-6.134,7.733-13.767,7.3-22.9
			c-0.4-9.134-3.533-17.083-9.4-23.85c-5.867-6.733-12.733-10.334-20.6-10.801C73.883,89.667,67.3,92.5,62,98.6
			C56.7,104.733,54.25,112.366,54.65,121.5z"/>
	</g>
	<path fill-rule="evenodd" clip-rule="evenodd" fill="none" stroke="#000000" stroke-width="0.1" d="M46.2,87.6
		c8.2-9.2,18.433-13.467,30.7-12.8c12.267,0.667,22.95,6.1,32.05,16.3c9.1,10.167,13.983,22.101,14.649,35.801
		c0.634,13.699-3.166,25.149-11.399,34.35s-18.483,13.467-30.75,12.8c-12.267-0.666-22.95-6.083-32.05-16.25
		c-9.1-10.166-13.967-22.1-14.6-35.8C34.167,108.267,37.967,96.8,46.2,87.6z"/>
	
		<linearGradient id="SVGID_43_" gradientUnits="userSpaceOnUse" x1="77.4072" y1="-16.2275" x2="275.4495" y2="-16.2275" gradientTransform="matrix(0.4409 0.8975 -0.8975 0.4409 0 0)">
		<stop  offset="0" style="stop-color:#B1B1B1"/>
		<stop  offset="0.3843" style="stop-color:#EAEAEA"/>
		<stop  offset="0.6157" style="stop-color:#E8E8E8"/>
		<stop  offset="0.9882" style="stop-color:#B1B1B1"/>
	</linearGradient>
	<path fill-rule="evenodd" clip-rule="evenodd" fill="url(#SVGID_43_)" d="M46.2,87.6c-8.233,9.2-12.034,20.667-11.4,34.4
		c0.633,13.7,5.5,25.634,14.6,35.8c9.1,10.167,19.783,15.584,32.05,16.25c12.267,0.667,22.517-3.6,30.75-12.8
		s12.033-20.65,11.399-34.35c-0.666-13.7-5.55-25.634-14.649-35.801c-9.1-10.2-19.784-15.633-32.05-16.3
		C64.633,74.133,54.4,78.4,46.2,87.6z M45.15,86.4c8.5-9.5,19.067-13.883,31.7-13.15c12.667,0.7,23.7,6.3,33.1,16.8
		c9.399,10.5,14.416,22.816,15.05,36.95c0.667,14.134-3.25,25.95-11.75,35.45s-19.067,13.899-31.7,13.2
		c-12.633-0.7-23.65-6.301-33.05-16.801S34.067,136.033,33.4,121.9C32.767,107.733,36.683,95.9,45.15,86.4z"/>
	
		<linearGradient id="SVGID_44_" gradientUnits="userSpaceOnUse" x1="91.3457" y1="-21.3457" x2="197.2621" y2="-21.3457" gradientTransform="matrix(0.409 0.9125 -0.9125 0.409 2.441406e-004 0)">
		<stop  offset="0" style="stop-color:#B1B1B1"/>
		<stop  offset="0.4902" style="stop-color:#FFFFFF"/>
		<stop  offset="0.5333" style="stop-color:#FFFFFF"/>
		<stop  offset="0.9882" style="stop-color:#B1B1B1"/>
	</linearGradient>
	<path fill-rule="evenodd" clip-rule="evenodd" fill="url(#SVGID_44_)" d="M49.4,157.8c-9.1-10.166-13.967-22.1-14.6-35.8
		c-0.633-13.733,3.167-25.2,11.4-34.4c8.2-9.2,18.433-13.467,30.7-12.8c12.267,0.667,22.95,6.1,32.05,16.3
		c9.1,10.167,13.983,22.101,14.649,35.801c0.634,13.699-3.166,25.149-11.399,34.35s-18.483,13.467-30.75,12.8
		C69.183,173.384,58.5,167.967,49.4,157.8z M50.75,92.7c-7.067,7.934-10.333,17.8-9.8,29.6c0.566,11.834,4.767,22.117,12.6,30.851
		c7.833,8.767,17.034,13.449,27.6,14.05c10.567,0.566,19.383-3.117,26.45-11.05c7.1-7.934,10.383-17.801,9.85-29.601
		c-0.534-11.8-4.733-22.083-12.6-30.85c-7.867-8.767-17.067-13.434-27.6-14C66.683,81.1,57.85,84.767,50.75,92.7z"/>
	<path fill-rule="evenodd" clip-rule="evenodd" fill="none" stroke="#000000" d="M62,98.6c5.3-6.1,11.883-8.933,19.75-8.5
		c3.967,0.233,7.783,1.351,11.45,3.351c3.091,1.691,5.892,3.899,8.4,6.625c-3.045-3.493-6.512-6.302-10.4-8.425
		c-4.5-2.5-9.184-3.884-14.05-4.15c-9.233-0.5-16.933,2.684-23.1,9.55c-6.2,6.834-9.066,15.351-8.6,25.55
		c0.466,10.2,4.133,19.084,11,26.65c6.833,7.566,14.867,11.616,24.1,12.15c9.233,0.5,16.95-2.684,23.15-9.551
		c6.167-6.866,9.017-15.399,8.55-25.6c-0.208-4.449-1.108-8.749-2.7-12.9c1.292,3.634,2.025,7.434,2.2,11.4
		c0.433,9.134-2,16.767-7.3,22.9c-5.3,6.133-11.883,8.966-19.75,8.5c-7.9-0.434-14.784-4.051-20.65-10.851
		c-5.867-6.767-9-14.7-9.4-23.8C54.25,112.366,56.7,104.733,62,98.6z M102.65,101.3l-1.05-1.225 M109.55,113.35l-0.6-1.55"/>
	<linearGradient id="SVGID_45_" gradientUnits="userSpaceOnUse" x1="40.894" y1="124.4473" x2="117.5059" y2="124.4473">
		<stop  offset="0" style="stop-color:#979797"/>
		<stop  offset="1" style="stop-color:#191919"/>
	</linearGradient>
	<path fill-rule="evenodd" clip-rule="evenodd" fill="url(#SVGID_45_)" d="M40.95,122.3c-0.534-11.8,2.733-21.666,9.8-29.6
		c7.1-7.934,15.933-11.6,26.5-11c10.533,0.566,19.733,5.233,27.6,14c7.867,8.767,12.066,19.05,12.6,30.85
		c0.533,11.8-2.75,21.667-9.85,29.601c-7.067,7.933-15.883,11.616-26.45,11.05c-10.566-0.601-19.767-5.283-27.6-14.05
		C45.717,144.417,41.517,134.134,40.95,122.3z M77.15,87.5c-9.233-0.5-16.933,2.684-23.1,9.55c-6.2,6.834-9.066,15.351-8.6,25.55
		c0.466,10.2,4.133,19.084,11,26.65c6.833,7.566,14.867,11.616,24.1,12.15c9.233,0.5,16.95-2.684,23.15-9.551
		c6.167-6.866,9.017-15.399,8.55-25.6s-4.133-19.083-11-26.65C94.383,92.033,86.35,88,77.15,87.5z"/>
	<path fill-rule="evenodd" clip-rule="evenodd" fill="none" stroke="#000000" d="M73.25,105.85c3.667-3.866,8.233-5.649,13.7-5.35
		c5.466,0.267,10.233,2.55,14.3,6.85c4.067,4.267,6.233,9.284,6.5,15.051s-1.433,10.566-5.1,14.399
		c-3.667,3.867-8.233,5.667-13.7,5.4c-5.467-0.267-10.233-2.533-14.3-6.8c-4.066-4.301-6.233-9.334-6.5-15.101
		S69.583,109.717,73.25,105.85z M54.65,121.5c0.4,9.1,3.533,17.033,9.4,23.8c5.867,6.8,12.75,10.417,20.65,10.851
		c7.867,0.466,14.45-2.367,19.75-8.5c5.3-6.134,7.733-13.767,7.3-22.9c-0.4-9.134-3.533-17.083-9.4-23.85
		c-5.867-6.733-12.733-10.334-20.6-10.801C73.883,89.667,67.3,92.5,62,98.6C56.7,104.733,54.25,112.366,54.65,121.5z"/>
	<path fill-rule="evenodd" clip-rule="evenodd" fill="#191919" d="M74.65,135.4c-4.066-4.301-6.233-9.334-6.5-15.101
		s1.434-10.583,5.1-14.45c3.667-3.866,8.233-5.649,13.7-5.35c3.367,0.167,6.566,1.184,9.6,3.05c2.934,1.8,5.367,4.167,7.3,7.101
		c-1.7-2.267-3.767-4.084-6.2-5.45c-2.533-1.434-5.183-2.217-7.95-2.351c-4.733-0.233-8.7,1.267-11.9,4.5
		c-3.2,3.233-4.683,7.25-4.45,12.051c0.267,4.833,2.167,9.033,5.7,12.6c3.534,3.566,7.667,5.467,12.4,5.7
		c4.433,0.233,8.2-1.066,11.3-3.9c3.1-2.833,4.767-6.434,5-10.8c0.133,5.6-1.617,10.267-5.25,14c-3.667,3.733-8.183,5.467-13.55,5.2
		C83.483,141.934,78.717,139.667,74.65,135.4z"/>
	<path fill-rule="evenodd" clip-rule="evenodd" d="M95.05,106.85c-3-0.133-5.517,0.867-7.55,3c-2,2.134-2.933,4.784-2.8,7.95
		c0.167,3.2,1.367,5.983,3.6,8.351c2.233,2.366,4.85,3.616,7.85,3.75c3.033,0.166,5.55-0.817,7.55-2.95c2.033-2.134,2.966-4.8,2.8-8
		c-0.133-3.167-1.333-5.934-3.6-8.3C100.667,108.283,98.05,107.017,95.05,106.85z M73.35,119.4c-0.233-4.801,1.25-8.817,4.45-12.051
		c3.2-3.233,7.167-4.733,11.9-4.5c4.767,0.233,8.9,2.134,12.4,5.7c3.533,3.566,5.417,7.767,5.65,12.601
		c0.267,4.8-1.2,8.816-4.4,12.05c-3.2,3.267-7.167,4.767-11.9,4.5c-4.733-0.233-8.867-2.134-12.4-5.7
		C75.517,128.434,73.617,124.233,73.35,119.4z"/>
	<path fill-rule="evenodd" clip-rule="evenodd" fill="#FFFFFF" d="M75.325,74.775L76.9,74.8c12.267,0.667,22.95,6.1,32.05,16.3
		c9.1,10.167,13.983,22.101,14.649,35.801c0.601,13.333-3.017,24.583-10.85,33.75c-7.833,9.1-17.667,13.583-29.5,13.449
		c11.6-0.133,21.217-4.733,28.85-13.8c7.633-9.1,11.15-20.233,10.55-33.399c-0.634-13.7-5.5-25.634-14.601-35.801
		C98.917,80.9,88.233,75.467,76,74.8L75.325,74.775z"/>
	<g>
		<path fill-rule="evenodd" clip-rule="evenodd" fill="#191919" d="M62,98.6c-5.3,6.134-7.75,13.767-7.35,22.9
			c0.4,9.1,3.533,17.033,9.4,23.8c5.867,6.8,12.75,10.417,20.65,10.851c7.867,0.466,14.45-2.367,19.75-8.5
			c5.3-6.134,7.733-13.767,7.3-22.9c-0.175-3.967-0.908-7.767-2.2-11.4c1.592,4.151,2.493,8.451,2.7,12.9
			c0.467,10.2-2.383,18.733-8.55,25.6c-6.2,6.867-13.917,10.051-23.15,9.551c-9.233-0.534-17.267-4.584-24.1-12.15
			c-6.867-7.566-10.534-16.45-11-26.65c-0.467-10.199,2.4-18.716,8.6-25.55c6.167-6.866,13.867-10.05,23.1-9.55
			c4.867,0.267,9.55,1.65,14.05,4.15c3.888,2.123,7.355,4.932,10.4,8.425c-2.508-2.726-5.309-4.934-8.4-6.625
			c-3.667-2-7.483-3.117-11.45-3.351C73.883,89.667,67.3,92.5,62,98.6z"/>
		<path fill-rule="evenodd" clip-rule="evenodd" fill="none" stroke="#191919" d="M62,98.6c5.3-6.1,11.883-8.933,19.75-8.5
			c3.967,0.233,7.783,1.351,11.45,3.351c3.091,1.691,5.892,3.899,8.4,6.625c-3.045-3.493-6.512-6.302-10.4-8.425
			c-4.5-2.5-9.184-3.884-14.05-4.15c-9.233-0.5-16.933,2.684-23.1,9.55c-6.2,6.834-9.066,15.351-8.6,25.55
			c0.466,10.2,4.133,19.084,11,26.65c6.833,7.566,14.867,11.616,24.1,12.15c9.233,0.5,16.95-2.684,23.15-9.551
			c6.167-6.866,9.017-15.399,8.55-25.6c-0.208-4.449-1.108-8.749-2.7-12.9c1.292,3.634,2.025,7.434,2.2,11.4
			c0.433,9.134-2,16.767-7.3,22.9c-5.3,6.133-11.883,8.966-19.75,8.5c-7.9-0.434-14.784-4.051-20.65-10.851
			c-5.867-6.767-9-14.7-9.4-23.8C54.25,112.366,56.7,104.733,62,98.6z M109.55,113.35l-0.6-1.55 M101.6,100.075l1.05,1.225"/>
	</g>
	
		<radialGradient id="SVGID_46_" cx="97.8501" cy="117.6465" r="7.877" gradientTransform="matrix(1 0 0 -1 0 235.293)" gradientUnits="userSpaceOnUse">
		<stop  offset="0" style="stop-color:#FFFFFF"/>
		<stop  offset="1" style="stop-color:#000000"/>
	</radialGradient>
	<path fill-rule="evenodd" clip-rule="evenodd" fill="url(#SVGID_46_)" d="M98.25,125.75c-2.1-0.1-3.933-0.983-5.5-2.65
		c-1.567-1.666-2.4-3.616-2.5-5.85c-0.133-2.233,0.517-4.116,1.95-5.65c1.4-1.5,3.15-2.183,5.25-2.05
		c2.133,0.101,3.983,0.983,5.55,2.65c1.567,1.666,2.4,3.616,2.5,5.85s-0.55,4.101-1.95,5.601
		C102.117,125.15,100.35,125.85,98.25,125.75z"/>
	
		<radialGradient id="SVGID_47_" cx="97.8501" cy="117.6465" r="7.877" gradientTransform="matrix(1 0 0 -1 0 235.293)" gradientUnits="userSpaceOnUse">
		<stop  offset="0" style="stop-color:#FFFFFF"/>
		<stop  offset="1" style="stop-color:#000000"/>
	</radialGradient>
	<path fill-rule="evenodd" clip-rule="evenodd" fill="url(#SVGID_47_)" d="M98.25,125.75c-2.1-0.1-3.933-0.983-5.5-2.65
		c-1.567-1.666-2.4-3.616-2.5-5.85c-0.133-2.233,0.517-4.116,1.95-5.65c1.4-1.5,3.15-2.183,5.25-2.05
		c2.133,0.101,3.983,0.983,5.55,2.65c1.567,1.666,2.4,3.616,2.5,5.85s-0.55,4.101-1.95,5.601
		C102.117,125.15,100.35,125.85,98.25,125.75z"/>
	
		<radialGradient id="SVGID_48_" cx="87.8501" cy="122.6504" r="1.775" gradientTransform="matrix(1 0 0 -1 0 245.3008)" gradientUnits="userSpaceOnUse">
		<stop  offset="0" style="stop-color:#FFFFFF"/>
		<stop  offset="1" style="stop-color:#000000"/>
	</radialGradient>
	<path fill-rule="evenodd" clip-rule="evenodd" fill="url(#SVGID_48_)" d="M87.95,124.45c-0.467-0.033-0.883-0.233-1.25-0.601
		c-0.333-0.366-0.517-0.8-0.55-1.3s0.117-0.916,0.45-1.25c0.3-0.366,0.7-0.533,1.2-0.5c0.467,0.033,0.883,0.233,1.25,0.601
		c0.333,0.366,0.517,0.816,0.55,1.35c0.033,0.5-0.117,0.917-0.45,1.25C88.817,124.333,88.417,124.483,87.95,124.45z"/>
	<g>
		<linearGradient id="SVGID_49_" gradientUnits="userSpaceOnUse" x1="54.6079" y1="123.1279" x2="111.7988" y2="123.1279">
			<stop  offset="0" style="stop-color:#3333CC"/>
			<stop  offset="1" style="stop-color:#66CCFF"/>
			<stop  offset="1" style="stop-color:#3399CC"/>
			<stop  offset="1" style="stop-color:#3399CC"/>
			<stop  offset="1" style="stop-color:#3399CC"/>
			<stop  offset="1" style="stop-color:#3399CC"/>
			<stop  offset="1" style="stop-color:#3399CC"/>
			<stop  offset="1" style="stop-color:#3399CC"/>
		</linearGradient>
		<path fill-rule="evenodd" clip-rule="evenodd" fill="url(#SVGID_49_)" d="M54.65,121.5c-0.4-9.134,2.05-16.767,7.35-22.9
			c5.3-6.1,11.883-8.933,19.75-8.5c7.867,0.467,14.733,4.067,20.6,10.801c5.867,6.767,9,14.716,9.4,23.85
			c0.433,9.134-2,16.767-7.3,22.9c-5.3,6.133-11.883,8.966-19.75,8.5c-7.9-0.434-14.784-4.051-20.65-10.851
			C58.183,138.533,55.05,130.6,54.65,121.5z"/>
		<path fill-rule="evenodd" clip-rule="evenodd" fill="none" stroke="#000000" d="M54.65,121.5c0.4,9.1,3.533,17.033,9.4,23.8
			c5.867,6.8,12.75,10.417,20.65,10.851c7.867,0.466,14.45-2.367,19.75-8.5c5.3-6.134,7.733-13.767,7.3-22.9
			c-0.4-9.134-3.533-17.083-9.4-23.85c-5.867-6.733-12.733-10.334-20.6-10.801C73.883,89.667,67.3,92.5,62,98.6
			C56.7,104.733,54.25,112.366,54.65,121.5z"/>
	</g>
	<path fill-rule="evenodd" clip-rule="evenodd" fill="none" stroke="#000000" d="M41.9,122.35
		c0.533,11.534,4.617,21.567,12.25,30.101c7.667,8.566,16.65,13.133,26.95,13.7c10.3,0.566,18.9-3.017,25.8-10.75
		c6.934-7.733,10.133-17.367,9.6-28.9c-0.533-11.5-4.617-21.517-12.25-30.05c-7.667-8.567-16.65-13.133-26.95-13.7
		C67,82.183,58.4,85.767,51.5,93.5C44.567,101.233,41.367,110.85,41.9,122.35z"/>
	<path fill-rule="evenodd" clip-rule="evenodd" fill="none" stroke="#000000" d="M43.3,122.55c0.534,11.066,4.5,20.7,11.9,28.9
		c7.433,8.233,16.133,12.616,26.1,13.149c9.967,0.567,18.284-2.866,24.95-10.3c6.7-7.434,9.8-16.684,9.3-27.75
		c-0.533-11.066-4.5-20.7-11.9-28.899c-7.4-8.2-16.083-12.583-26.05-13.15c-9.967-0.533-18.3,2.917-25,10.35
		C45.9,102.25,42.8,111.483,43.3,122.55z"/>
	<path fill-rule="evenodd" clip-rule="evenodd" fill="none" stroke="#000000" d="M43.8,122.4c0.5,10.733,4.434,20.066,11.8,28
		c7.367,7.933,16,12.166,25.9,12.699c9.9,0.534,18.183-2.8,24.85-10c6.633-7.199,9.7-16.149,9.2-26.85s-4.433-20.017-11.8-27.95
		s-16-12.183-25.9-12.75c-9.934-0.533-18.217,2.8-24.85,10C46.333,102.75,43.267,111.7,43.8,122.4z"/>
</g>
</svg>
