<?xml version="1.0" encoding="utf-8"?>
<!-- Generator: Adobe Illustrator 16.0.0, SVG Export Plug-In . SVG Version: 6.00 Build 0)  -->
<!DOCTYPE svg PUBLIC "-//W3C//DTD SVG 1.1//EN" "http://www.w3.org/Graphics/SVG/1.1/DTD/svg11.dtd">
<svg version="1.1" id="Layer_1" xmlns="http://www.w3.org/2000/svg" xmlns:xlink="http://www.w3.org/1999/xlink" x="0px" y="0px"
	 width="76px" height="95px" viewBox="0 0 76 95" enable-background="new 0 0 76 95" xml:space="preserve">
<g>
	<polygon fill-rule="evenodd" clip-rule="evenodd" fill="#7F4F19" points="75.6,17.85 75.85,19.3 75.85,21.4 63.1,87.95 
		61.85,90.75 60.45,92.7 58.7,93.95 57.05,94.65 55.55,94.9 54.25,94.9 7.1,86.75 4.95,85.8 3.35,84.65 2.45,83.35 1.85,82.05 
		1.55,80.95 1.5,79.95 16.5,13.25 17.45,11.45 18.75,10.15 20.25,9.2 21.8,8.55 23.25,8.2 25.4,8 25.7,8 69.5,12.9 72,13.75 
		73.7,14.9 74.85,16.35 	"/>
</g>
<g>
	<polygon fill-rule="evenodd" clip-rule="evenodd" fill="#A0703A" points="74.45,17.8 74.45,19.9 74.35,20.2 61.6,86.45 
		60.35,89.25 58.95,91.25 57.3,92.5 55.65,93.15 54.05,93.45 52.85,93.45 51.9,93.3 51.6,93.2 5.65,85.3 3.45,84.35 1.95,83.2 
		0.9,81.9 0.35,80.6 0.05,79.5 0,78.5 15.05,11.8 16,10 17.2,8.65 18.75,7.7 20.3,7.05 21.75,6.7 24.2,6.5 68.05,11.4 70.55,12.25 
		72.3,13.45 73.45,14.9 74.15,16.45 	"/>
</g>
<g>
	<polygon fill-rule="evenodd" clip-rule="evenodd" fill="#7F4F19" points="68.1,18.5 66.2,37.9 59.45,71.65 54.55,89.25 4.65,79.5 
		12.7,51.05 20.95,12.7 	"/>
</g>
<g>
	<polygon fill-rule="evenodd" clip-rule="evenodd" fill="#FFFFFF" points="67.45,17.8 65.3,37 59,64.95 51.95,86.25 2.05,76.5 
		6.95,65.25 14.35,38.85 20.25,11.95 	"/>
</g>
<g>
	<polygon fill-rule="evenodd" clip-rule="evenodd" fill="#ADADAD" points="55.35,11.75 53.7,15.5 53.35,17.15 53.2,18.95 
		53.4,20.75 31.65,17.5 31.5,17.3 31.2,16.65 30.95,15.7 30.8,14.5 30.95,13.05 31.45,11.5 32.6,9.95 34.4,8.35 55.9,10.85 	"/>
</g>
<g>
	<polygon fill-rule="evenodd" clip-rule="evenodd" fill="#ADADAD" points="57.05,5.05 57.85,5.6 58.3,6.4 58.45,7.25 58.2,8.3 
		57.8,9.2 57,10.1 55.9,10.85 34.4,8.35 34,7.55 33.65,5.75 33.8,4.8 34.3,3.9 35.3,3.25 36.9,2.85 36.95,2.95 37.75,3.1 38.4,3.1 
		39.2,3 40.05,2.75 43.4,0.65 44.85,0.15 46.2,0 47.6,0.15 48.9,0.65 50.05,1.3 51.05,2.1 51.8,3.1 51.9,3.15 52.05,3.3 52.7,3.75 
		54,4.25 55.9,4.65 	"/>
</g>
<g>
	<polygon fill-rule="evenodd" clip-rule="evenodd" fill="#D8D8D8" points="54,4.95 57,5.9 57.65,6.35 57.95,6.9 57.95,7.65 
		57.65,8.35 57.15,9.15 55.25,10.45 34.8,7.85 34.75,7.7 34.45,7.2 34.25,6.55 34.15,5.75 34.25,4.95 34.75,4.25 35.65,3.65 
		37.25,3.4 37.3,3.4 38.1,3.5 39.4,3.45 40.25,3.25 43.5,1.5 44.8,1 46,0.8 47.1,0.8 48.15,1.05 49.1,1.5 49.95,2.1 50.65,2.85 
		50.8,2.95 51.1,3.25 53.05,4.55 	"/>
</g>
<g>
	<polygon fill-rule="evenodd" clip-rule="evenodd" fill="#D8D8D8" points="52.75,14.6 52.35,15.85 52.25,17.1 32.1,14.35 31.95,14 
		31.7,13.05 31.85,11.9 32.75,10.85 53.4,13.4 	"/>
</g>
<g>
	<polygon fill-rule="evenodd" clip-rule="evenodd" fill="#D8D8D8" points="54.1,12.1 52.95,14.25 52.55,15.7 52.4,17.35 52.6,19 
		53.4,20.75 53.25,20.55 52.85,19.9 52.4,18.9 52.05,17.6 51.95,16.15 52.25,14.55 53.1,12.9 54.75,11.3 	"/>
</g>
<g>
	<polygon fill-rule="evenodd" clip-rule="evenodd" fill="#FFFFFF" points="51.8,15.9 32.75,13.4 32.65,13.25 32.6,12.9 32.65,12.55 
		33,12.25 52.05,14.55 	"/>
</g>
<g>
	<polygon fill-rule="evenodd" clip-rule="evenodd" fill="#FFFFFF" points="48.65,2.5 47.65,2.2 46.6,2.1 45.35,2.15 44.05,2.65 
		43.95,2.75 43,3.4 39.7,4.9 38.9,4.95 37.45,4.45 36.3,4.4 35.9,4.45 35.55,4.65 35.55,4.6 35.6,4.45 35.75,4.3 36.3,3.95 
		36.75,3.9 37.3,4 38.05,4.25 38.2,4.25 38.6,4.15 40,3.95 40.85,3.65 42.7,2.75 43.85,1.8 44.35,1.55 45.1,1.3 46.1,1.15 
		47.15,1.2 48.3,1.55 49.55,2.45 50.5,3.65 50.1,3.4 49.55,2.95 	"/>
</g>
<g>
	<polygon fill-rule="evenodd" clip-rule="evenodd" fill="#A0143A" points="46.95,3.45 47.5,3.9 47.95,4.45 48.1,5.2 47.95,5.9 
		47.5,6.5 46.95,6.85 46.15,7 45.35,6.85 44.8,6.5 44.35,5.9 44.2,5.2 44.35,4.45 44.8,3.9 45.35,3.45 46.15,3.3 	"/>
</g>
<g>
	<polygon fill-rule="evenodd" clip-rule="evenodd" points="63.25,28.25 22.95,22.4 22.95,20.9 63.25,26.75 	"/>
</g>
<g>
	<polygon fill-rule="evenodd" clip-rule="evenodd" points="61.65,37.25 21.45,31.35 21.45,29.85 61.65,35.7 	"/>
</g>
<g>
	<polygon fill-rule="evenodd" clip-rule="evenodd" points="60.15,46.2 19.9,40.35 19.9,38.8 60.15,44.6 	"/>
</g>
<g>
	<polygon fill-rule="evenodd" clip-rule="evenodd" points="17.15,47.7 57.4,53.55 57.4,55.15 17.15,49.3 	"/>
</g>
<g>
	<polygon fill-rule="evenodd" clip-rule="evenodd" points="15.2,56.3 55.5,62.15 55.5,63.75 15.2,57.9 	"/>
</g>
<g>
	<polygon fill-rule="evenodd" clip-rule="evenodd" points="11,64.8 51.1,71.3 51.1,72.9 11,66.4 	"/>
</g>
</svg>
