<?xml version="1.0" encoding="utf-8"?>
<!-- Generator: Adobe Illustrator 16.0.0, SVG Export Plug-In . SVG Version: 6.00 Build 0)  -->
<!DOCTYPE svg PUBLIC "-//W3C//DTD SVG 1.1//EN" "http://www.w3.org/Graphics/SVG/1.1/DTD/svg11.dtd">
<svg version="1.1" id="Layer_1" xmlns="http://www.w3.org/2000/svg" xmlns:xlink="http://www.w3.org/1999/xlink" x="0px" y="0px"
	 width="76.54px" height="68.03px" viewBox="0 0 76.54 68.03" enable-background="new 0 0 76.54 68.03" xml:space="preserve">
<radialGradient id="path3449_1_" cx="220.0215" cy="-345.3086" r="61.8105" gradientTransform="matrix(0.6115 0 0 -0.4888 -96.2905 -130.0061)" gradientUnits="userSpaceOnUse">
	<stop  offset="0" style="stop-color:#010101"/>
	<stop  offset="1" style="stop-color:#010101;stop-opacity:0"/>
</radialGradient>
<path id="path3449" fill="url(#path3449_1_)" d="M76.057,38.797c0,16.688-16.923,30.216-37.798,30.216S0.459,55.484,0.459,38.797
	c0-16.688,16.923-30.216,37.799-30.216S76.057,22.109,76.057,38.797z"/>
<g>
	<g id="g2945" transform="translate(42.8921,49.8276)">
		<path id="path2947" fill="#333332" d="M10.723-40.112c-14.471-7.925-33.514-4.043-42.536,8.667
			c-2.899,4.099-4.392,8.611-4.623,13.118c-1.334,10.099,3.833,20.449,14.3,26.179c14.473,7.921,33.513,4.039,42.525-8.664
			c2.91-4.1,4.401-8.619,4.633-13.125C26.356-24.035,21.19-34.381,10.723-40.112"/>
	</g>
	<g id="g2949" transform="translate(42.8921,49.8276)">
		<path id="path2951" fill="none" stroke="#333332" stroke-width="2.324" d="M10.723-40.112
			c-14.471-7.925-33.514-4.043-42.536,8.667c-2.899,4.099-4.392,8.611-4.623,13.118c-1.334,10.099,3.833,20.449,14.3,26.179
			c14.473,7.921,33.513,4.039,42.525-8.664c2.91-4.1,4.401-8.619,4.633-13.125C26.356-24.035,21.19-34.381,10.723-40.112z"/>
	</g>
</g>
<g id="g2961">
	<g id="g2963">
		
			<radialGradient id="path2971_1_" cx="-253.3398" cy="452.377" r="0.9997" gradientTransform="matrix(66.4234 36.3697 41.3943 -58.3543 -1846.5 35622.125)" gradientUnits="userSpaceOnUse">
			<stop  offset="0" style="stop-color:#C8C8C8"/>
			<stop  offset="1" style="stop-color:#F1F0E6"/>
		</radialGradient>
		<path id="path2971" fill="url(#path2971_1_)" d="M11.284,16.254C2.26,28.965,6.688,45.692,21.156,53.609l0,0
			c14.46,7.922,33.502,4.041,42.525-8.663l0,0c9.011-12.719,4.595-29.445-9.873-37.365l0,0C48.728,4.797,43.084,3.47,37.506,3.47
			l0,0C27.203,3.471,17.13,8.004,11.284,16.254"/>
	</g>
</g>
<g>
	<g id="g2981" transform="translate(50.9448,21.6436)">
		<path id="path2983" fill="none" stroke="#797979" stroke-width="2.324" d="M12.737,23.302
			c-9.023,12.705-28.065,16.586-42.526,8.665C-44.258,24.05-48.685,7.322-39.66-5.391c9.011-12.716,28.055-16.598,42.524-8.671
			C17.331-6.142,21.748,10.584,12.737,23.302z"/>
	</g>
</g>
<g id="g2993">
	<g id="g2995">
		
			<radialGradient id="path3003_1_" cx="-232.4941" cy="473.0146" r="1" gradientTransform="matrix(14.1838 7.767 -6.0285 8.4975 6181.1875 -2178.6719)" gradientUnits="userSpaceOnUse">
			<stop  offset="0" style="stop-color:#FFFFFF"/>
			<stop  offset="1" style="stop-color:#C8C8C8"/>
		</radialGradient>
		<path id="path3003" fill="url(#path3003_1_)" d="M14.982,36.922c-0.606,4.076,1.784,6.17,5.107,7.988l0,0l11.099,6.074
			c3.141,1.716,6.975,2.406,10.15,0.152l0,0c3.032-2.146,5.836-7.859,1.808-15.926l0,0l-13.123-7.192
			C20.235,28.074,15.576,32.931,14.982,36.922"/>
	</g>
</g>
<g>
	<path id="path3015" fill="none" stroke="#797979" stroke-width="0.748" stroke-linecap="round" stroke-linejoin="round" d="
		M20.09,44.91l11.099,6.074c3.143,1.715,6.975,2.407,10.151,0.15c3.031-2.144,5.834-7.857,1.807-15.924l-13.123-7.192
		c-9.789,0.054-14.446,4.913-15.041,8.903C14.376,40.998,16.766,43.092,20.09,44.91z"/>
	<g id="g3019">
	</g>
	<g id="g3017">
		<g id="g3025">
			<defs>
				<rect id="SVGID_1_" x="15.854" y="28.837" width="28.377" height="22.921"/>
			</defs>
			<clipPath id="SVGID_2_">
				<use xlink:href="#SVGID_1_"  overflow="visible"/>
			</clipPath>
			<g id="g3027" opacity="0.2152" clip-path="url(#SVGID_2_)">
				<g id="g3029" transform="translate(16.7217,22.4043)">
					<path id="path3031" fill="none" stroke="#FFFFFF" stroke-width="0.748" stroke-linecap="round" stroke-linejoin="round" d="
						M4.181,21.59l10.784,5.904c2.765,1.51,6.126,2.116,8.926,0.134c2.656-1.883,4.851-7.045,1.309-14.13L13.157,6.9
						c-8.6,0.049-12.955,4.16-13.476,7.672C-0.842,18.151,1.258,19.989,4.181,21.59z"/>
				</g>
			</g>
		</g>
	</g>
	<g id="g3041">
		<g id="g3043">
			
				<radialGradient id="path3051_1_" cx="-209.2036" cy="478.0811" r="1.0002" gradientTransform="matrix(7.5499 4.1341 -4.7052 6.6324 3868.5625 -2281.7266)" gradientUnits="userSpaceOnUse">
				<stop  offset="0" style="stop-color:#FFFFFF"/>
				<stop  offset="1" style="stop-color:#C8C8C8"/>
			</radialGradient>
			<path id="path3051" fill="url(#path3051_1_)" d="M31.14,22.101v0.004c-3.119,4.397-1.589,10.184,3.421,12.92l0,0
				c4.997,2.733,11.582,1.387,14.699-3.009l0,0V32.01c3.117-4.397,1.589-10.177-3.421-12.917l0,0
				c-1.751-0.958-3.698-1.414-5.624-1.414l0,0C36.651,17.679,33.164,19.245,31.14,22.101"/>
		</g>
	</g>
	<g>
		<g id="g3061" transform="translate(39.4082,31.9873)">
			<path id="path3063" fill="none" stroke="#797979" stroke-width="0.748" stroke-linecap="round" stroke-linejoin="round" d="
				M9.852,0.028C6.734,4.427,0.148,5.771-4.847,3.037c-5.01-2.736-6.54-8.521-3.421-12.918v-0.006
				c3.118-4.397,9.702-5.737,14.699-3.007c5.011,2.741,6.539,8.521,3.421,12.917V0.028z"/>
		</g>
		<g id="g3067">
		</g>
		<g id="g3065">
			<g id="g3073">
				<defs>
					<rect id="SVGID_3_" x="30.303" y="18.296" width="19.799" height="17.524"/>
				</defs>
				<clipPath id="SVGID_4_">
					<use xlink:href="#SVGID_3_"  overflow="visible"/>
				</clipPath>
				<g id="g3075" opacity="0.1266" clip-path="url(#SVGID_4_)">
					<g id="g3077" transform="translate(38.5151,32.4722)">
						<path id="path3079" fill="none" stroke="#FFFFFF" stroke-width="0.853" stroke-linecap="round" stroke-linejoin="round" d="
							M9.629-1.063C6.9,2.793,1.127,3.969-3.263,1.575C-7.654-0.831-9-5.904-6.259-9.76v-0.006c2.741-3.856,8.5-5.034,12.892-2.631
							c4.391,2.401,5.736,7.471,3.008,11.329C9.641-1.069,9.629-1.069,9.629-1.063z"/>
					</g>
				</g>
			</g>
		</g>
		<g id="g3083">
		</g>
		<g id="g3081">
			<g id="g3099">
				<defs>
					<rect id="SVGID_5_" x="15.542" y="34.405" width="8.526" height="7.091"/>
				</defs>
				<clipPath id="SVGID_6_">
					<use xlink:href="#SVGID_5_"  overflow="visible"/>
				</clipPath>
				<g id="g3101" opacity="0.2278" clip-path="url(#SVGID_6_)">
					<g id="g3103">
						<g id="g3105">
							<g id="g3107">
								<g id="g3109">
									
										<linearGradient id="path3111_1_" gradientUnits="userSpaceOnUse" x1="-47.564" y1="452.8809" x2="-46.5643" y2="452.8809" gradientTransform="matrix(1.2473 1.7102 -1.7102 1.2473 852.2461 -447.998)">
										<stop  offset="0" style="stop-color:#010101"/>
										<stop  offset="1" style="stop-color:#010101"/>
									</linearGradient>
									<path id="path3111" fill="url(#path3111_1_)" d="M16.256,41.496c-0.945-1.213-0.68-2.745-0.68-2.745
										c3.53-3.26,8.491-4.346,8.491-4.346S17.494,38.996,16.256,41.496"/>
								</g>
							</g>
						</g>
					</g>
				</g>
			</g>
		</g>
		<g id="g3115">
		</g>
		<g id="g3113">
			<g id="g3131">
				<defs>
					<rect id="SVGID_7_" x="36.586" y="42.157" width="4.004" height="9.388"/>
				</defs>
				<clipPath id="SVGID_8_">
					<use xlink:href="#SVGID_7_"  overflow="visible"/>
				</clipPath>
				<g id="g3133" opacity="0.2278" clip-path="url(#SVGID_8_)">
					<g id="g3135">
						<g id="g3137">
							<g id="g3139">
								<g id="g3141">
									
										<linearGradient id="path3143_1_" gradientUnits="userSpaceOnUse" x1="-130.8452" y1="228.5488" x2="-129.8452" y2="228.5488" gradientTransform="matrix(1.7067 -0.2148 -0.2148 -1.7067 310.9121 408.8193)">
										<stop  offset="0" style="stop-color:#010101"/>
										<stop  offset="1" style="stop-color:#010101"/>
									</linearGradient>
									<path id="path3143" fill="url(#path3143_1_)" d="M36.586,51.523c1.662,0.177,3.189-0.805,3.189-0.805
										c1.636-4.262,0.303-8.562,0.303-8.562S38.527,49.397,36.586,51.523"/>
								</g>
							</g>
						</g>
					</g>
				</g>
			</g>
		</g>
		<g id="g3183">
		</g>
		<g id="g3181">
			<g id="g3189">
				<defs>
					<rect id="SVGID_9_" x="8.166" y="4.846" width="58.622" height="51.505"/>
				</defs>
				<clipPath id="SVGID_10_">
					<use xlink:href="#SVGID_9_"  overflow="visible"/>
				</clipPath>
				<g id="g3191" opacity="0.3" clip-path="url(#SVGID_10_)">
					<g id="g3193" transform="translate(30.0166,51.5444)">
						<path id="path3195" fill="#FFFFFF" d="M7.504-43.975L7.504-43.975c-9.146,0-17.479,4.05-22.295,10.843
							c-7.64,10.777-3.88,25.012,8.394,31.728C-2.249,0.876,2.53,2.078,7.419,2.078c9.145,0,17.478-4.049,22.291-10.841
							c3.699-5.212,4.864-11.383,3.275-17.389c-1.576-5.997-5.725-11.093-11.654-14.343C17.169-42.774,12.391-43.975,7.504-43.975
							 M7.504-46.699c5.299,0,10.647,1.256,15.463,3.895c13.716,7.513,17.927,23.428,9.376,35.485
							C26.8,0.501,17.206,4.807,7.419,4.807c-5.289,0-10.65-1.261-15.466-3.894c-13.718-7.519-17.926-23.432-9.376-35.483
							C-11.868-42.399-2.286-46.699,7.504-46.699"/>
					</g>
				</g>
			</g>
		</g>
	</g>
</g>
</svg>
