<?xml version="1.0" encoding="utf-8"?>
<!-- Generator: Adobe Illustrator 16.0.0, SVG Export Plug-In . SVG Version: 6.00 Build 0)  -->
<!DOCTYPE svg PUBLIC "-//W3C//DTD SVG 1.1//EN" "http://www.w3.org/Graphics/SVG/1.1/DTD/svg11.dtd">
<svg version="1.1" id="Layer_1" xmlns="http://www.w3.org/2000/svg" xmlns:xlink="http://www.w3.org/1999/xlink" x="0px" y="0px"
	 width="207px" height="117px" viewBox="0 0 207 117" enable-background="new 0 0 207 117" xml:space="preserve">
<g>
	<path fill-rule="evenodd" clip-rule="evenodd" fill="#FFFFFF" d="M149,46.85c0,0.967-0.05,1.95-0.15,2.95L147.9,60.65
		c-0.101,1.267-0.317,2.25-0.65,2.949c-0.333,0.7-0.884,1.051-1.65,1.051c-0.8,0-1.35-0.334-1.649-1
		c-0.334-0.667-0.55-1.684-0.65-3.051l-0.75-10.55c-0.133-2.033-0.2-3.5-0.2-4.4c0-1.2,0.334-2.15,1-2.85c0.634-0.667,1.467-1,2.5-1
		c1.267,0,2.101,0.434,2.5,1.3C148.783,43.967,149,45.217,149,46.85z M84.95,44.05c0.267-0.6,0.7-1.033,1.3-1.3s1.35-0.4,2.25-0.4
		h17.25c1.033,0,1.8,0.233,2.3,0.7c0.5,0.434,0.75,1.034,0.75,1.8s-0.25,1.383-0.75,1.85c-0.5,0.433-1.267,0.65-2.3,0.65h-14.7v7.95
		h13.55c0.967,0,1.7,0.217,2.2,0.65c0.5,0.433,0.75,1.017,0.75,1.75c0,0.733-0.25,1.333-0.75,1.8c-0.467,0.467-1.2,0.7-2.2,0.7
		H91.05v9.149h15.2c1.033,0,1.816,0.25,2.35,0.75c0.5,0.467,0.75,1.101,0.75,1.9c0,0.733-0.25,1.35-0.75,1.85
		c-0.533,0.467-1.316,0.7-2.35,0.7H88.5c-1.4,0-2.417-0.316-3.05-0.95c-0.633-0.633-0.95-1.649-0.95-3.05v-24.2
		C84.5,45.417,84.65,44.65,84.95,44.05z M120.9,45.75V69.2h13.25c1.033,0,1.85,0.25,2.449,0.75c0.534,0.533,0.801,1.184,0.801,1.95
		c0,0.8-0.267,1.433-0.801,1.899c-0.566,0.5-1.383,0.75-2.449,0.75H118.4c-1.434,0-2.45-0.316-3.051-0.95
		c-0.633-0.633-0.949-1.649-0.949-3.05v-24.8c0-1.333,0.3-2.317,0.899-2.95c0.566-0.667,1.334-1,2.3-1c1,0,1.801,0.333,2.4,1
		C120.6,43.433,120.9,44.417,120.9,45.75z M108.15,3l95.25,55.05L108.15,113V91.1H3V24.9h105.15V3z M115.45,16.25V32.9H11.5v50.2
		h103.95v16.7l69.5-41.75L115.45,16.25z M148,74.2c-0.634,0.566-1.4,0.85-2.3,0.85c-0.9,0-1.667-0.283-2.3-0.85
		c-0.7-0.601-1.051-1.417-1.051-2.45c0-0.9,0.334-1.667,1-2.3c0.634-0.634,1.4-0.95,2.301-0.95c0.933,0,1.733,0.316,2.399,0.95
		c0.634,0.633,0.95,1.399,0.95,2.3C149,72.783,148.667,73.6,148,74.2z M77.45,45.75v15.5c0,2.5-0.233,4.6-0.7,6.3
		c-0.5,1.667-1.433,3.15-2.8,4.45c-1.167,1.066-2.534,1.85-4.1,2.35c-1.567,0.5-3.383,0.75-5.45,0.75c-2.467,0-4.6-0.267-6.4-0.8
		c-1.767-0.533-3.217-1.35-4.35-2.45c-1.133-1.133-1.967-2.583-2.5-4.35c-0.533-1.733-0.8-3.816-0.8-6.25v-15.5
		c0-1.333,0.3-2.317,0.9-2.95c0.6-0.667,1.383-1,2.35-1c1,0,1.8,0.333,2.4,1c0.6,0.633,0.9,1.617,0.9,2.95V61.6
		c0,1.801,0.2,3.301,0.6,4.5c0.4,1.2,1.117,2.15,2.15,2.851c1,0.633,2.434,0.95,4.3,0.95c2.533,0,4.333-0.667,5.4-2
		c1.066-1.367,1.6-3.434,1.6-6.2V45.75c0-1.333,0.283-2.317,0.85-2.95c0.6-0.667,1.383-1,2.35-1c1,0,1.8,0.333,2.4,1
		C77.15,43.433,77.45,44.417,77.45,45.75z M23.6,47.5v21.85h4.95c1.067,0,1.917-0.017,2.55-0.05c0.6-0.066,1.233-0.217,1.9-0.45
		s1.233-0.566,1.7-1c2.2-1.833,3.3-5.017,3.3-9.55c0-3.167-0.483-5.55-1.45-7.15c-0.966-1.566-2.15-2.566-3.55-3
		c-1.4-0.433-3.1-0.65-5.1-0.65H23.6z M21.05,42.35h8.5c2.233,0,4.133,0.2,5.7,0.6c1.6,0.4,3.033,1.167,4.3,2.3
		c3.367,2.867,5.05,7.233,5.05,13.1c0,1.933-0.167,3.7-0.5,5.3c-0.333,1.6-0.85,3.05-1.55,4.35c-0.733,1.267-1.65,2.4-2.75,3.4
		C38.967,72.167,38.033,72.8,37,73.3c-1.033,0.467-2.133,0.783-3.3,0.95c-1.2,0.2-2.534,0.3-4,0.3h-8.5c-1.2,0-2.1-0.184-2.7-0.55
		s-0.983-0.866-1.15-1.5c-0.2-0.667-0.3-1.517-0.3-2.55v-23.6c0-1.4,0.317-2.417,0.95-3.05S19.65,42.35,21.05,42.35z"/>
	<path fill-rule="evenodd" clip-rule="evenodd" fill="#FF9900" d="M120.9,45.75c0-1.333-0.301-2.317-0.9-2.95
		c-0.6-0.667-1.4-1-2.4-1c-0.966,0-1.733,0.333-2.3,1c-0.6,0.633-0.899,1.617-0.899,2.95v24.8c0,1.4,0.316,2.417,0.949,3.05
		c0.601,0.634,1.617,0.95,3.051,0.95h15.75c1.066,0,1.883-0.25,2.449-0.75c0.534-0.467,0.801-1.1,0.801-1.899
		c0-0.767-0.267-1.417-0.801-1.95c-0.6-0.5-1.416-0.75-2.449-0.75H120.9V45.75z M84.95,44.05c-0.3,0.6-0.45,1.367-0.45,2.3v24.2
		c0,1.4,0.317,2.417,0.95,3.05c0.633,0.634,1.65,0.95,3.05,0.95h17.75c1.033,0,1.816-0.233,2.35-0.7c0.5-0.5,0.75-1.116,0.75-1.85
		c0-0.8-0.25-1.434-0.75-1.9c-0.533-0.5-1.316-0.75-2.35-0.75h-15.2V60.2h13.55c1,0,1.733-0.233,2.2-0.7
		c0.5-0.467,0.75-1.067,0.75-1.8c0-0.733-0.25-1.317-0.75-1.75c-0.5-0.434-1.233-0.65-2.2-0.65H91.05v-7.95h14.7
		c1.033,0,1.8-0.217,2.3-0.65c0.5-0.467,0.75-1.083,0.75-1.85s-0.25-1.367-0.75-1.8c-0.5-0.466-1.267-0.7-2.3-0.7H88.5
		c-0.9,0-1.65,0.133-2.25,0.4S85.217,43.45,84.95,44.05z M149,46.85c0-1.633-0.217-2.883-0.65-3.75c-0.399-0.867-1.233-1.3-2.5-1.3
		c-1.033,0-1.866,0.333-2.5,1c-0.666,0.7-1,1.65-1,2.85c0,0.9,0.067,2.367,0.2,4.4l0.75,10.55c0.101,1.367,0.316,2.384,0.65,3.051
		c0.3,0.666,0.85,1,1.649,1c0.767,0,1.317-0.351,1.65-1.051c0.333-0.699,0.55-1.683,0.65-2.949L148.85,49.8
		C148.95,48.8,149,47.817,149,46.85z M115.45,16.25l69.5,41.8l-69.5,41.75V83.1H11.5V32.9h103.95V16.25z M21.05,42.35
		c-1.4,0-2.417,0.316-3.05,0.95s-0.95,1.65-0.95,3.05v23.6c0,1.033,0.1,1.883,0.3,2.55c0.167,0.634,0.55,1.134,1.15,1.5
		s1.5,0.55,2.7,0.55h8.5c1.466,0,2.8-0.1,4-0.3c1.167-0.167,2.267-0.483,3.3-0.95c1.033-0.5,1.967-1.133,2.8-1.899
		c1.1-1,2.017-2.134,2.75-3.4c0.7-1.3,1.217-2.75,1.55-4.35c0.333-1.601,0.5-3.367,0.5-5.3c0-5.867-1.684-10.233-5.05-13.1
		c-1.267-1.133-2.7-1.9-4.3-2.3c-1.567-0.4-3.467-0.6-5.7-0.6H21.05z M23.6,47.5h4.3c2,0,3.7,0.217,5.1,0.65
		c1.4,0.434,2.583,1.434,3.55,3c0.967,1.6,1.45,3.983,1.45,7.15c0,4.533-1.1,7.717-3.3,9.55c-0.467,0.434-1.034,0.767-1.7,1
		s-1.3,0.384-1.9,0.45c-0.633,0.033-1.483,0.05-2.55,0.05H23.6V47.5z M77.45,45.75c0-1.333-0.3-2.317-0.9-2.95
		c-0.6-0.667-1.4-1-2.4-1c-0.967,0-1.75,0.333-2.35,1c-0.566,0.633-0.85,1.617-0.85,2.95V61.7c0,2.767-0.534,4.833-1.6,6.2
		c-1.067,1.333-2.867,2-5.4,2c-1.867,0-3.3-0.317-4.3-0.95c-1.033-0.7-1.75-1.65-2.15-2.851c-0.4-1.199-0.6-2.699-0.6-4.5V45.75
		c0-1.333-0.3-2.317-0.9-2.95c-0.6-0.667-1.4-1-2.4-1c-0.967,0-1.75,0.333-2.35,1c-0.6,0.633-0.9,1.617-0.9,2.95v15.5
		c0,2.434,0.267,4.517,0.8,6.25c0.533,1.767,1.367,3.217,2.5,4.35c1.133,1.101,2.583,1.917,4.35,2.45c1.8,0.533,3.933,0.8,6.4,0.8
		c2.067,0,3.883-0.25,5.45-0.75c1.566-0.5,2.933-1.283,4.1-2.35c1.367-1.3,2.3-2.783,2.8-4.45c0.467-1.7,0.7-3.8,0.7-6.3V45.75z
		 M148,74.2c0.667-0.601,1-1.417,1-2.45c0-0.9-0.316-1.667-0.95-2.3c-0.666-0.634-1.467-0.95-2.399-0.95
		c-0.9,0-1.667,0.316-2.301,0.95c-0.666,0.633-1,1.399-1,2.3c0,1.033,0.351,1.85,1.051,2.45c0.633,0.566,1.399,0.85,2.3,0.85
		C146.6,75.05,147.366,74.767,148,74.2z"/>
	
		<path fill-rule="evenodd" clip-rule="evenodd" fill="none" stroke="#FF6501" stroke-width="5" stroke-linecap="round" stroke-linejoin="round" stroke-miterlimit="3" d="
		M108.15,3l95.25,55.05L108.15,113V91.1H3V24.9h105.15V3z M115.45,16.25l69.5,41.8l-69.5,41.75V83.1H11.5V32.9h103.95V16.25z"/>
</g>
</svg>
