<?xml version="1.0" encoding="utf-8"?>
<!-- Generator: Adobe Illustrator 16.0.0, SVG Export Plug-In . SVG Version: 6.00 Build 0)  -->
<!DOCTYPE svg PUBLIC "-//W3C//DTD SVG 1.1//EN" "http://www.w3.org/Graphics/SVG/1.1/DTD/svg11.dtd">
<svg version="1.1" id="Layer_1" xmlns="http://www.w3.org/2000/svg" xmlns:xlink="http://www.w3.org/1999/xlink" x="0px" y="0px"
	 width="386px" height="386px" viewBox="0 0 386 386" enable-background="new 0 0 386 386" xml:space="preserve">
<g>
	<path fill-rule="evenodd" clip-rule="evenodd" fill="#5B78B2" d="M377.5,136.75V75.5c0-18.5-6.55-34.3-19.65-47.4
		C344.783,15.033,329,8.5,310.5,8.5h-235c-18.5,0-34.3,6.533-47.4,19.6C15.033,41.2,8.5,57,8.5,75.5v58.85
		c-2.933-0.867-5.767-1.733-8.5-2.6V70c0-19.333,6.833-35.833,20.5-49.5S50.667,0,70,0h246c19.333,0,35.833,6.833,49.5,20.5
		S386,50.667,386,70v64.35c-1.9,0.566-3.833,1.117-5.8,1.65C379.3,136.233,378.4,136.483,377.5,136.75z"/>
	<path fill-rule="evenodd" clip-rule="evenodd" fill="#84A3D2" d="M22,138.1c-2.6-0.7-5.183-1.4-7.75-2.1
		c-1.967-0.533-3.883-1.083-5.75-1.65V75.5c0-18.5,6.533-34.3,19.6-47.4C41.2,15.033,57,8.5,75.5,8.5h235
		c18.5,0,34.283,6.533,47.35,19.6C370.95,41.2,377.5,57,377.5,75.5v61.25c-4.434,1.2-8.934,2.35-13.5,3.45V81
		c0-16.3-5.767-30.217-17.3-41.75C335.2,27.75,321.3,22,305,22H81c-16.3,0-30.217,5.75-41.75,17.25C27.75,50.783,22,64.7,22,81
		V138.1z"/>
	<path fill-rule="evenodd" clip-rule="evenodd" fill="#5D7BB9" d="M322,148.35V143h-47.3v-15.5c0-6.367,2.233-11.8,6.7-16.3
		c4.5-4.467,9.933-6.7,16.3-6.7h23.75V54h-53.5c-16.566,0-30.717,5.85-42.45,17.55c-11.7,11.733-17.55,25.883-17.55,42.45v29H166
		v13.525c-54.717-1.661-102.717-7.802-144-18.425V81c0-16.3,5.75-30.217,17.25-41.75C50.783,27.75,64.7,22,81,22h224
		c16.3,0,30.2,5.75,41.7,17.25C358.233,50.783,364,64.7,364,81v59.2C350.672,143.365,336.672,146.082,322,148.35z"/>
	<path fill-rule="evenodd" clip-rule="evenodd" fill="#3762A7" d="M386,134.35V316c0,19.333-6.833,35.833-20.5,49.5
		S335.333,386,316,386H70c-19.333,0-35.833-6.833-49.5-20.5S0,335.333,0,316V131.75c2.733,0.867,5.567,1.733,8.5,2.6V310.5
		c0,18.5,6.533,34.283,19.6,47.35C41.2,370.95,57,377.5,75.5,377.5h235c18.5,0,34.283-6.55,47.35-19.65
		C370.95,344.783,377.5,329,377.5,310.5V136.75c0.9-0.267,1.8-0.517,2.7-0.75C382.167,135.467,384.1,134.917,386,134.35z M22,138.1
		c41.283,10.623,89.283,16.764,144,18.425V194h41.95v153h66.75V194H322v-45.65c14.672-2.269,28.672-4.985,42-8.15V305
		c0,16.3-5.767,30.2-17.3,41.7C335.2,358.233,321.3,364,305,364H81c-16.3,0-30.217-5.767-41.75-17.3C27.75,335.2,22,321.3,22,305
		V138.1z"/>
	<path fill-rule="evenodd" clip-rule="evenodd" fill="#7695CB" d="M377.5,136.75V310.5c0,18.5-6.55,34.283-19.65,47.35
		C344.783,370.95,329,377.5,310.5,377.5h-235c-18.5,0-34.3-6.55-47.4-19.65C15.033,344.783,8.5,329,8.5,310.5V134.35
		c1.867,0.566,3.783,1.117,5.75,1.65c2.567,0.7,5.15,1.4,7.75,2.1V305c0,16.3,5.75,30.2,17.25,41.7C50.783,358.233,64.7,364,81,364
		h224c16.3,0,30.2-5.767,41.7-17.3c11.533-11.5,17.3-25.4,17.3-41.7V140.2C368.566,139.1,373.066,137.95,377.5,136.75z"/>
	<path fill-rule="evenodd" clip-rule="evenodd" fill="#FFFFFF" d="M166,156.525V143h41.95v-29c0-16.567,5.85-30.717,17.55-42.45
		C237.233,59.85,251.384,54,267.95,54h53.5v50.5H297.7c-6.367,0-11.8,2.233-16.3,6.7c-4.467,4.5-6.7,9.933-6.7,16.3V143H322v5.35
		V194h-47.3v153h-66.75V194H166V156.525z"/>
</g>
</svg>
