<?xml version="1.0" encoding="utf-8"?>
<!-- Generator: Adobe Illustrator 16.0.0, SVG Export Plug-In . SVG Version: 6.00 Build 0)  -->
<!DOCTYPE svg PUBLIC "-//W3C//DTD SVG 1.1//EN" "http://www.w3.org/Graphics/SVG/1.1/DTD/svg11.dtd">
<svg version="1.1" id="Layer_1" xmlns="http://www.w3.org/2000/svg" xmlns:xlink="http://www.w3.org/1999/xlink" x="0px" y="0px"
	 width="40px" height="36px" viewBox="0 0 40 36" enable-background="new 0 0 40 36" xml:space="preserve">
<g>
	<path fill-rule="evenodd" clip-rule="evenodd" fill="#FFFFFF" d="M37.15,10.75c0.267,1.567,0.183,2.95-0.25,4.15
		c-0.167,0.567-0.584,1.317-1.25,2.25c-0.101,0.2-0.317,0.434-0.65,0.7c-0.333,0.3-0.55,0.533-0.65,0.7
		c-0.333,0.5-0.25,1.184,0.25,2.05c0.167,0.233,0.617,0.551,1.351,0.95c0.666,0.3,0.983,0.55,0.95,0.75
		c-0.134,0.334-0.784,0.517-1.95,0.55c-1.167,0.034-2.101-0.1-2.8-0.399l-1.601-0.8c-0.467-0.134-0.833-0.184-1.1-0.15
		c-0.367,0.066-0.7,0.134-1,0.2c-1.434,0.267-2.55,0.416-3.351,0.45c-3,0.133-5.616-0.367-7.85-1.5c-2.433-1.2-4.1-2.767-5-4.7
		c-0.567-1.133-0.8-2.317-0.7-3.55c0.034-0.8,0.2-1.617,0.5-2.45c0.067-0.2,0.15-0.417,0.25-0.65C14,5.333,17.533,3,22.9,2.3
		c1.366-0.2,2.816-0.167,4.35,0.1c1.6,0.3,3.083,0.783,4.45,1.45C34.833,5.45,36.65,7.75,37.15,10.75z M25.3,24.1
		c0.667-0.033,1.566-0.149,2.7-0.35c-0.634,1.733-1.866,3.333-3.7,4.8c-2,1.566-4.483,2.566-7.45,3c-0.934,0.167-2.4,0.25-4.4,0.25
		c-0.267,0-0.6,0.134-1,0.4L10,33.25C9.367,33.684,8.483,34,7.35,34.2s-1.8,0.166-2-0.101c-0.1-0.199,0.133-0.517,0.7-0.949
		c0.667-0.534,1.067-0.95,1.2-1.25c0.333-0.934,0.267-1.617-0.2-2.051c-0.133-0.133-0.383-0.316-0.75-0.55
		c-0.367-0.2-0.617-0.366-0.75-0.5c-0.833-0.8-1.4-1.45-1.7-1.95c-0.633-1.1-1-2.466-1.1-4.1c-0.1-3,1.233-5.6,4-7.8
		c0.667-0.534,1.383-1,2.15-1.4c0.067,1.034,0.333,2.05,0.8,3.05c1.1,2.333,3.1,4.233,6,5.7c0.3,0.167,0.617,0.3,0.95,0.4
		C19.15,23.8,22.033,24.267,25.3,24.1z"/>
	<path fill-rule="evenodd" clip-rule="evenodd" d="M37.15,10.75c-0.5-3-2.317-5.3-5.45-6.9C30.333,3.183,28.85,2.7,27.25,2.4
		c-1.533-0.267-2.983-0.3-4.35-0.1C17.533,3,14,5.333,12.3,9.3c-0.1,0.233-0.183,0.45-0.25,0.65c-0.3,0.833-0.466,1.65-0.5,2.45
		c-0.1,1.233,0.133,2.417,0.7,3.55c0.9,1.933,2.567,3.5,5,4.7c2.233,1.133,4.85,1.633,7.85,1.5c0.801-0.034,1.917-0.184,3.351-0.45
		c0.3-0.066,0.633-0.134,1-0.2c0.267-0.033,0.633,0.017,1.1,0.15l1.601,0.8c0.699,0.3,1.633,0.434,2.8,0.399
		c1.166-0.033,1.816-0.216,1.95-0.55c0.033-0.2-0.284-0.45-0.95-0.75c-0.733-0.399-1.184-0.717-1.351-0.95
		c-0.5-0.866-0.583-1.55-0.25-2.05c0.101-0.167,0.317-0.4,0.65-0.7c0.333-0.267,0.55-0.5,0.65-0.7
		c0.666-0.933,1.083-1.683,1.25-2.25C37.333,13.7,37.417,12.317,37.15,10.75z M39.85,10.3c0.301,1.934,0.2,3.617-0.3,5.05
		c-0.2,0.633-0.717,1.55-1.55,2.75c-0.134,0.167-0.366,0.433-0.7,0.8c-0.033,0-0.05,0.017-0.05,0.05
		c-0.333,0.333-0.6,0.583-0.8,0.75c0,0.033-0.017,0.1-0.05,0.2c0.066,0.133,0.133,0.267,0.199,0.399c0.2,0.233,0.667,0.55,1.4,0.95
		c0.167,0.066,0.283,0.15,0.35,0.25c0.067-0.033,0.15-0.017,0.25,0.05c0.667,0.167,1,0.351,1,0.55c0,0.101-0.05,0.184-0.149,0.25
		c-0.033,0.301-0.517,0.717-1.45,1.25c-0.967,0.5-1.85,0.784-2.65,0.851l-1.8,0.149l-0.45-0.1c-0.366-0.033-0.683-0.116-0.949-0.25
		l-1.5-0.45c-0.733,2.2-2.267,4.217-4.601,6.05c-0.233,0.2-0.483,0.4-0.75,0.601c-2.267,1.533-5,2.55-8.2,3.05
		c-0.967,0.167-2.383,0.25-4.25,0.25l-0.15,0.1h-0.1c-0.033,0-0.05,0.017-0.05,0.051c-0.033,0-0.083,0.017-0.15,0.05
		c-0.033,0-0.066,0.017-0.1,0.05c-0.133,0.066-0.267,0.116-0.4,0.15l-1.5,0.899c-0.267,0.167-0.566,0.3-0.9,0.4l-0.45,0.2L7.3,35.85
		c-0.8,0.101-1.733,0-2.8-0.3c-1.033-0.333-1.583-0.633-1.65-0.899c-0.1-0.101-0.167-0.167-0.2-0.2c-0.066-0.2,0.217-0.467,0.85-0.8
		c0.067-0.034,0.15-0.067,0.25-0.101c0.033-0.1,0.133-0.2,0.3-0.3c0.633-0.533,1.017-0.934,1.15-1.2
		c0.066-0.166,0.117-0.316,0.15-0.45C5.317,31.533,5.267,31.467,5.2,31.4c-0.167-0.134-0.467-0.317-0.9-0.551V30.8
		c-0.433-0.267-0.733-0.483-0.9-0.649c-1.033-1-1.717-1.784-2.05-2.351C0.55,26.467,0.1,24.833,0,22.9
		c-0.133-3.667,1.483-6.833,4.85-9.5c1.233-0.967,2.633-1.767,4.2-2.4c0.133-0.767,0.367-1.55,0.7-2.35
		C11.817,3.783,16.1,0.933,22.6,0.1c1.7-0.2,3.483-0.133,5.351,0.2C29.85,0.6,31.6,1.15,33.2,1.95
		C37.033,3.917,39.25,6.7,39.85,10.3z M25.3,24.1c-3.267,0.167-6.15-0.3-8.65-1.399C16.317,22.6,16,22.467,15.7,22.3
		c-2.9-1.467-4.9-3.367-6-5.7c-0.467-1-0.733-2.017-0.8-3.05c-0.767,0.4-1.483,0.867-2.15,1.4c-2.767,2.2-4.1,4.8-4,7.8
		c0.1,1.634,0.467,3,1.1,4.1c0.3,0.5,0.867,1.15,1.7,1.95c0.133,0.134,0.383,0.3,0.75,0.5c0.367,0.233,0.617,0.417,0.75,0.55
		c0.467,0.434,0.534,1.117,0.2,2.051c-0.133,0.3-0.533,0.716-1.2,1.25c-0.566,0.433-0.8,0.75-0.7,0.949
		c0.2,0.267,0.867,0.301,2,0.101s2.017-0.517,2.65-0.95l1.45-1.05c0.4-0.267,0.733-0.4,1-0.4c2,0,3.466-0.083,4.4-0.25
		c2.967-0.434,5.45-1.434,7.45-3c1.834-1.467,3.066-3.066,3.7-4.8C26.866,23.95,25.967,24.066,25.3,24.1z"/>
</g>
</svg>
