<?xml version="1.0" encoding="utf-8"?>
<!-- Generator: Adobe Illustrator 16.0.0, SVG Export Plug-In . SVG Version: 6.00 Build 0)  -->
<!DOCTYPE svg PUBLIC "-//W3C//DTD SVG 1.1//EN" "http://www.w3.org/Graphics/SVG/1.1/DTD/svg11.dtd">
<svg version="1.1" id="Layer_1" xmlns="http://www.w3.org/2000/svg" xmlns:xlink="http://www.w3.org/1999/xlink" x="0px" y="0px"
	 width="40px" height="35px" viewBox="0 0 40 35" enable-background="new 0 0 40 35" xml:space="preserve">
<g>
	<path fill-rule="evenodd" clip-rule="evenodd" fill="#FFFFFF" d="M36.25,17.5c-0.634,2.667-2.316,5.066-5.05,7.2
		c-2.566,2.033-5.75,3.333-9.55,3.899C20.45,28.8,18.567,28.9,16,28.9c-0.333,0-0.767,0.166-1.3,0.5l-1.85,1.35
		c-0.833,0.566-1.967,0.983-3.4,1.25c-1.467,0.267-2.333,0.217-2.6-0.15c-0.1-0.267,0.217-0.666,0.95-1.199
		c0.833-0.7,1.333-1.233,1.5-1.601c0.434-1.2,0.35-2.083-0.25-2.649C8.883,26.233,8.567,26,8.1,25.7c-0.467-0.267-0.8-0.5-1-0.7
		c-1.067-1.033-1.783-1.866-2.15-2.5c-0.833-1.4-1.3-3.15-1.4-5.25c-0.133-3.867,1.583-7.233,5.15-10.1
		c1.5-1.2,3.216-2.183,5.15-2.95c1.867-0.7,3.7-1.117,5.5-1.25c6.933-0.5,11.983,1.566,15.15,6.2
		C36.366,11.85,36.95,14.633,36.25,17.5z"/>
	<path fill-rule="evenodd" clip-rule="evenodd" d="M36.25,17.5c0.7-2.867,0.116-5.65-1.75-8.35c-3.167-4.633-8.217-6.7-15.15-6.2
		c-1.8,0.133-3.633,0.55-5.5,1.25C11.917,4.967,10.2,5.95,8.7,7.15c-3.567,2.867-5.284,6.233-5.15,10.1c0.1,2.1,0.567,3.85,1.4,5.25
		c0.367,0.634,1.083,1.467,2.15,2.5c0.2,0.2,0.533,0.434,1,0.7c0.467,0.3,0.783,0.533,0.95,0.7c0.6,0.566,0.684,1.449,0.25,2.649
		c-0.167,0.367-0.667,0.9-1.5,1.601c-0.733,0.533-1.05,0.933-0.95,1.199c0.267,0.367,1.133,0.417,2.6,0.15
		c1.433-0.267,2.566-0.684,3.4-1.25l1.85-1.35c0.533-0.334,0.966-0.5,1.3-0.5c2.567,0,4.45-0.101,5.65-0.301
		c3.8-0.566,6.983-1.866,9.55-3.899C33.934,22.566,35.616,20.167,36.25,17.5z M37.55,7.6c2.233,3.267,2.934,6.617,2.101,10.05
		C38.85,20.884,36.8,23.8,33.5,26.4c-0.333,0.267-0.667,0.517-1,0.75c-2.9,2-6.417,3.316-10.55,3.949
		C20.717,31.3,18.9,31.4,16.5,31.4l-0.15,0.149c-0.033,0-0.067,0-0.1,0H16.2c-0.034,0-0.05,0.017-0.05,0.05
		c-0.066,0-0.133,0.017-0.2,0.051c-0.067,0.033-0.117,0.066-0.15,0.1c-0.167,0.066-0.333,0.134-0.5,0.2L13.35,33.1
		c-0.333,0.2-0.717,0.367-1.15,0.5l-0.6,0.25L9.35,34.15c-1,0.133-2.184,0-3.55-0.4c-1.333-0.434-2.05-0.833-2.15-1.2
		c-0.133-0.1-0.217-0.184-0.25-0.25c-0.066-0.267,0.3-0.6,1.1-1c0.1-0.066,0.2-0.116,0.3-0.149C4.867,31.017,5,30.9,5.2,30.8
		c0.833-0.7,1.333-1.233,1.5-1.6c0.066-0.2,0.117-0.384,0.15-0.55C6.817,28.55,6.767,28.467,6.7,28.4
		c-0.233-0.167-0.617-0.417-1.15-0.75c0-0.034-0.017-0.051-0.05-0.051c-0.533-0.333-0.917-0.6-1.15-0.8
		c-1.333-1.3-2.2-2.316-2.6-3.05C0.717,22.017,0.133,19.9,0,17.4c-0.167-4.7,1.917-8.783,6.25-12.25c1.833-1.433,3.917-2.6,6.25-3.5
		c2.233-0.867,4.45-1.383,6.65-1.55C27.55-0.5,33.684,2,37.55,7.6z"/>
</g>
</svg>
