<?xml version="1.0" encoding="utf-8"?>
<!-- Generator: Adobe Illustrator 16.0.0, SVG Export Plug-In . SVG Version: 6.00 Build 0)  -->
<!DOCTYPE svg PUBLIC "-//W3C//DTD SVG 1.1//EN" "http://www.w3.org/Graphics/SVG/1.1/DTD/svg11.dtd">
<svg version="1.1" id="Layer_1" xmlns="http://www.w3.org/2000/svg" xmlns:xlink="http://www.w3.org/1999/xlink" x="0px" y="0px"
	 width="384px" height="390px" viewBox="0 0 384 390" enable-background="new 0 0 384 390" xml:space="preserve">
<g>
	<g>
		<linearGradient id="SVGID_1_" gradientUnits="userSpaceOnUse" x1="5.9316" y1="252.5527" x2="366.4049" y2="155.9659">
			<stop  offset="0" style="stop-color:#676767"/>
			<stop  offset="1" style="stop-color:#909090"/>
		</linearGradient>
		<path fill-rule="evenodd" clip-rule="evenodd" fill="url(#SVGID_1_)" d="M335.4,82c13.199,21.5,23.533,46.15,31,73.95
			c0.066,0.3,0.133,0.6,0.199,0.9l5.051,18.85c12.233,45.633,10.983,87.7-3.75,126.2c-14.667,38.566-38.534,62.267-71.601,71.1
			c-1.066,0.3-2.116,0.566-3.149,0.8L279.8,377.4c-40.6,10.866-80.116,2.083-118.55-26.351c-4.267-3.133-8.367-6.434-12.3-9.899
			L101.7,353.8c-17.733,4.767-35.833-2.3-54.3-21.2c-0.433-0.466-0.85-0.916-1.25-1.35c-17.767-18.733-30.767-43.45-39-74.15
			c-8.433-31.433-9.4-59.949-2.9-85.55c6.566-25.6,18.717-40.783,36.45-45.55l41.45-11.1c2.434-8.566,5.45-17.033,9.05-25.4
			c19.066-43.8,48.9-71.133,89.5-82l16.5-4.45c33.066-8.833,66.1,1.667,99.1,31.5C311.333,48.183,324.366,64,335.4,82z
			 M136.15,329.05c-24.867-25.767-42.517-58.166-52.95-97.2c-9.333-34.8-11.083-67.899-5.25-99.3c0.3-1.566,0.6-3.1,0.9-4.6l0.6-2.5
			c0.1-0.5,0.216-1,0.35-1.5l-36.4,9.75c-15.533,4.167-26.033,18.083-31.5,41.75c-5.467,23.633-4.283,50.066,3.55,79.3
			c5.2,19.366,12.283,36.2,21.25,50.5c4.633,7.333,9.75,14,15.35,20c16.534,17.733,32.567,24.517,48.1,20.35l41.45-11.1
			C139.733,332.733,137.917,330.917,136.15,329.05z M201.8,11.7L200.65,12c0.267-0.1,0.566-0.2,0.899-0.3l-24.05,6.45
			c-36.667,9.833-63.367,35.4-80.1,76.7c-16.7,41.3-18.533,86.25-5.5,134.85c7.033,26.333,17.3,49.566,30.8,69.7
			c0.033,0,0.066,0.017,0.1,0.05c11.5,17.033,25.284,31.85,41.35,44.45c35.2,27.399,71.133,36.183,107.8,26.35l0.05,0.2l26.9-7.15
			l-0.101-0.25c6.3-1.7,12.167-4.166,17.601-7.399L331.05,344.6l15.65-20.85c5.133-8.934,9.434-19.333,12.899-31.2
			c0.5-1.733,0.983-3.467,1.45-5.2c11.267-35.666,11.3-74.416,0.101-116.25l-6-22.35c-0.067-0.267-0.134-0.517-0.2-0.75
			c-12.233-45.7-34-81.7-65.3-108c-28.5-26.967-56.9-36.65-85.2-29.05C203.55,11.183,202.667,11.433,201.8,11.7z"/>
		<linearGradient id="SVGID_2_" gradientUnits="userSpaceOnUse" x1="87.9941" y1="340.0215" x2="33.4303" y2="136.3714">
			<stop  offset="0.0039" style="stop-color:#C0C0C0"/>
			<stop  offset="1" style="stop-color:#DADADA"/>
		</linearGradient>
		<path fill-rule="evenodd" clip-rule="evenodd" fill="url(#SVGID_2_)" d="M77.95,132.55l-25.6,6.85
			c-15.1,4.033-25.317,17.2-30.65,39.5c-5.367,22.3-4.367,47.216,3,74.75c7.4,27.5,18.983,49.583,34.75,66.25
			c10.5,11.066,20.85,17.55,31.05,19.449c-1.567,0.034-2.934-0.017-4.1-0.149c-3.1-0.434-7.533-1.934-13.3-4.5
			c-5.167-2.334-9.4-4.584-12.7-6.75c-3.133-2.033-9.467-7.95-19-17.75c-1.667-1.733-3.233-3.384-4.7-4.95
			c-8.967-14.3-16.05-31.134-21.25-50.5c-7.833-29.233-9.017-55.667-3.55-79.3c5.467-23.667,15.967-37.583,31.5-41.75l36.4-9.75
			c-0.133,0.5-0.25,1-0.35,1.5l-0.6,2.5C78.55,129.45,78.25,130.983,77.95,132.55z"/>
		<linearGradient id="SVGID_3_" gradientUnits="userSpaceOnUse" x1="93.5898" y1="340.4854" x2="40.5594" y2="142.5583">
			<stop  offset="0" style="stop-color:#B2B2B2"/>
			<stop  offset="0.2941" style="stop-color:#B2B2B2"/>
			<stop  offset="1" style="stop-color:#F8F8F8"/>
		</linearGradient>
		<path fill-rule="evenodd" clip-rule="evenodd" fill="url(#SVGID_3_)" d="M77.95,132.55c-5.833,31.4-4.083,64.5,5.25,99.3
			c10.433,39.034,28.083,71.434,52.95,97.2l-27.5,7.4c-3.133,0.833-6.517,1.533-10.15,2.1c-3.067,0.5-5.733,0.767-8,0.8
			c-10.2-1.899-20.55-8.383-31.05-19.449c-15.767-16.667-27.35-38.75-34.75-66.25c-7.367-27.534-8.367-52.45-3-74.75
			c5.333-22.3,15.55-35.467,30.65-39.5L77.95,132.55z"/>
		<linearGradient id="SVGID_4_" gradientUnits="userSpaceOnUse" x1="215.5313" y1="377.5166" x2="123.1495" y2="32.705">
			<stop  offset="0" style="stop-color:#CDCDCD"/>
			<stop  offset="1" style="stop-color:#EAEAEA"/>
		</linearGradient>
		<path fill-rule="evenodd" clip-rule="evenodd" fill="url(#SVGID_4_)" d="M210.1,336.2L229.2,349.85l33.649,13.95
			c0.767,0.134,1.5,0.283,2.2,0.45H265c-4.167,0.833-8.884,1.45-14.15,1.85c-14.533,1.233-26.85,0.084-36.949-3.449
			c-0.136-0.027-0.286-0.069-0.45-0.125l-0.101-0.025l-27.25-10.7c-0.034,0-0.05-0.017-0.05-0.05l-24.75-15.6
			c-0.2-0.134-0.383-0.267-0.55-0.4c-10.2-7.533-17.434-13.35-21.7-17.45c-4.1-3.934-8.367-9.1-12.8-15.5
			c-0.7-0.967-1.85-2.083-3.45-3.35c-0.033-0.033-0.066-0.05-0.1-0.05c-13.5-20.134-23.767-43.367-30.8-69.7
			c-13.033-48.6-11.2-93.55,5.5-134.85c16.733-41.3,43.434-66.867,80.1-76.7l24.05-6.45c-0.333,0.1-0.633,0.2-0.899,0.3
			c-26.467,8.6-46.384,31.217-59.75,67.85c-11.133,37.633-10.583,79.3,1.65,125c1.067,3.934,2.184,7.767,3.35,11.5
			c0.867,3.834,1.817,7.7,2.85,11.601c12.1,45.133,32.333,81.033,60.7,107.7C209.65,335.816,209.866,336,210.1,336.2z"/>
		<path fill-rule="evenodd" clip-rule="evenodd" fill="#FFFFFF" d="M265.05,364.25c-0.7-0.167-1.434-0.316-2.2-0.45L229.2,349.85
			L210.1,336.2c-0.199-0.2-0.399-0.384-0.6-0.55c-28.367-26.634-48.6-62.517-60.7-107.65c-1.033-3.9-1.966-7.767-2.8-11.6
			c-1.2-3.733-2.333-7.567-3.4-11.5c-12.233-45.7-12.784-87.384-1.65-125.05C154.517,42.717,174.8,20,201.8,11.7
			c0.867-0.267,1.75-0.517,2.65-0.75c28.3-7.6,56.7,2.083,85.2,29.05c31.3,26.3,53.066,62.3,65.3,108
			c0.066,0.233,0.133,0.483,0.2,0.75l6,22.35c11.199,41.833,11.166,80.583-0.101,116.25c9.834-37.6,8.7-79.017-3.399-124.25
			c-12.667-47.3-33.667-84.967-63-113C265.35,22,236.316,11.817,207.55,19.55c-28.767,7.7-48.85,31.05-60.25,70.05
			c-11.333,38.933-10.667,82.05,2,129.35c12.667,47.333,33.65,85.033,62.95,113.1c29.366,28.033,58.434,38.2,87.2,30.5
			c6.033-1.633,11.684-3.934,16.95-6.899c-5.434,3.233-11.301,5.699-17.601,7.399c-11,2.934-22.217,3.334-33.649,1.2
			C265.116,364.25,265.083,364.25,265.05,364.25z"/>
		<linearGradient id="SVGID_5_" gradientUnits="userSpaceOnUse" x1="206.4482" y1="199.2441" x2="300.8225" y2="173.9664">
			<stop  offset="0" style="stop-color:#DDDDDD"/>
			<stop  offset="1" style="stop-color:#F5F5F5"/>
		</linearGradient>
		<path fill-rule="evenodd" clip-rule="evenodd" fill="url(#SVGID_5_)" d="M221.25,139.65c-0.733,1.7-1.384,3.517-1.95,5.45
			c-4.566,15.267-4.383,32.15,0.55,50.65c4.967,18.533,13.25,33.25,24.851,44.15c1.467,1.399,2.934,2.666,4.399,3.8
			c10.033,8,19.967,10.7,29.801,8.1c0.033,0,0.066,0,0.1,0c9.767-2.666,17-9.983,21.7-21.95c0.733-1.699,1.366-3.517,1.899-5.449
			c2.801-9.334,3.851-19.267,3.15-29.8c1.4,13.633,0.35,26.4-3.15,38.3c-5.199,17.866-14.383,28.566-27.55,32.1
			c-13.1,3.5-26.366-1.184-39.8-14.05c-13.4-12.8-23-30.033-28.8-51.7c-5.8-21.667-6.117-41.417-0.95-59.25
			c5.233-17.833,14.4-28.5,27.5-32c13.167-3.533,26.45,1.117,39.85,13.95c9.233,8.833,16.684,19.733,22.351,32.7
			c-0.566-1.1-1.134-2.183-1.7-3.25c-4.4-8.467-9.833-15.733-16.3-21.8c-1.434-1.4-2.884-2.667-4.351-3.8
			c-10.066-8-20-10.7-29.8-8.1c-0.033,0-0.066,0-0.1,0C233.15,120.367,225.917,127.683,221.25,139.65z"/>
		
			<radialGradient id="SVGID_6_" cx="268.5498" cy="157.9502" r="146.1818" gradientTransform="matrix(0.9659 -0.2588 0.3842 1.4341 -51.5413 0.9406)" gradientUnits="userSpaceOnUse">
			<stop  offset="0" style="stop-color:#FFFFFF"/>
			<stop  offset="1" style="stop-color:#333333"/>
		</radialGradient>
		<path fill-rule="evenodd" clip-rule="evenodd" fill="url(#SVGID_6_)" d="M297.85,160.75l0.4,1.25c0.167,0.333,0.333,0.7,0.5,1.1
			c0.033,0.2,0.1,0.4,0.2,0.6c0.133,0.4,0.283,0.8,0.45,1.2l2.649,8.85c0.066,0.167,0.117,0.333,0.15,0.5s0.083,0.333,0.149,0.5
			c0.034,0.167,0.067,0.333,0.101,0.5L304.9,187c0.066,0.567,0.133,1.133,0.199,1.7c0,0.167,0.034,0.333,0.101,0.5
			c0,0.1,0,0.2,0,0.3v0.2c0.066,0.433,0.116,0.867,0.149,1.3c0.034,0.3,0.084,0.6,0.15,0.9c0.066,0.9,0.15,1.8,0.25,2.7
			c0.7,10.534-0.35,20.466-3.15,29.8c-0.533,1.933-1.166,3.75-1.899,5.449c-4.7,11.967-11.934,19.284-21.7,21.95
			c-0.033,0-0.066,0-0.1,0c-9.834,2.601-19.768-0.1-29.801-8.1c-1.433-1.2-2.866-2.483-4.3-3.851
			c-11.6-10.899-19.883-25.616-24.85-44.149c-4.934-18.5-5.117-35.383-0.55-50.65c0.566-1.9,1.183-3.7,1.85-5.4
			c4.667-11.967,11.9-19.283,21.7-21.95c0.033,0,0.066,0,0.1,0c9.8-2.6,19.733,0.1,29.8,8.1c1.467,1.133,2.917,2.4,4.351,3.8
			c6.467,6.066,11.899,13.333,16.3,21.8c0.566,1.067,1.134,2.15,1.7,3.25c0.5,1.133,1,2.283,1.5,3.45c0.267,0.667,0.55,1.333,0.85,2
			L297.85,160.75z"/>
		<linearGradient id="SVGID_7_" gradientUnits="userSpaceOnUse" x1="199.3984" y1="200.4453" x2="301.3488" y2="173.1217">
			<stop  offset="0" style="stop-color:#878787"/>
			<stop  offset="1" style="stop-color:#C0C0C0"/>
		</linearGradient>
		<path fill-rule="evenodd" clip-rule="evenodd" fill="url(#SVGID_7_)" d="M297.85,160.75l-0.3-0.65c-0.3-0.667-0.583-1.333-0.85-2
			c-0.5-1.167-1-2.317-1.5-3.45c-5.667-12.967-13.117-23.867-22.351-32.7C259.45,109.117,246.167,104.467,233,108
			c-13.1,3.5-22.267,14.167-27.5,32c-5.167,17.833-4.85,37.583,0.95,59.25c5.8,21.667,15.399,38.9,28.8,51.7
			c13.434,12.866,26.7,17.55,39.8,14.05c13.167-3.533,22.351-14.233,27.55-32.1c3.5-11.9,4.551-24.667,3.15-38.3
			c-0.1-0.9-0.184-1.8-0.25-2.7c2.134,16.133,1.184,31.167-2.85,45.1c-5.534,19.2-15.351,30.7-29.45,34.5
			c-14.134,3.767-28.4-1.267-42.8-15.1c-14.4-13.9-24.733-32.551-31-55.95c-6.267-23.4-6.634-44.7-1.101-63.9
			c5.533-19.267,15.367-30.783,29.5-34.55c14.101-3.8,28.351,1.25,42.75,15.15C282.383,128.517,291.483,143.05,297.85,160.75z"/>
		<linearGradient id="SVGID_8_" gradientUnits="userSpaceOnUse" x1="152.7012" y1="213.5498" x2="344.1038" y2="162.2627">
			<stop  offset="0" style="stop-color:#C8C8C8"/>
			<stop  offset="1" style="stop-color:#626262"/>
		</linearGradient>
		<path fill-rule="evenodd" clip-rule="evenodd" fill="url(#SVGID_8_)" d="M305.5,191.9c-0.066-0.3-0.116-0.6-0.15-0.9
			c-0.033-0.433-0.083-0.867-0.149-1.3v-0.2c0-0.1,0-0.2,0-0.3c-0.066-0.167-0.101-0.333-0.101-0.5
			c-0.066-0.567-0.133-1.133-0.199-1.7l-2.45-11.75c-0.033-0.167-0.066-0.333-0.101-0.5c-0.066-0.167-0.116-0.333-0.149-0.5
			s-0.084-0.333-0.15-0.5l-2.649-8.85c-0.167-0.4-0.317-0.8-0.45-1.2c-0.101-0.2-0.167-0.4-0.2-0.6c-0.167-0.4-0.333-0.767-0.5-1.1
			l-0.4-1.25c-6.366-17.7-15.467-32.233-27.3-43.6C256.15,103.25,241.9,98.2,227.8,102c-14.133,3.767-23.967,15.283-29.5,34.55
			c-5.533,19.2-5.166,40.5,1.101,63.9c6.267,23.399,16.6,42.05,31,55.95c14.399,13.833,28.666,18.866,42.8,15.1
			c14.1-3.8,23.916-15.3,29.45-34.5C306.684,223.066,307.634,208.033,305.5,191.9z M204.55,24.15c26.4-7.066,53.233,2.867,80.5,29.8
			c27.267,27,46.95,63.1,59.05,108.3c12.134,45.2,13.134,86.3,3,123.3c-10.133,37-28.399,59.033-54.8,66.101
			c-26.467,7.1-53.316-2.834-80.55-29.801c-27.233-27-46.917-63.1-59.05-108.3c-12.1-45.2-13.1-86.3-3-123.3
			C159.8,53.283,178.083,31.25,204.55,24.15z"/>
		<linearGradient id="SVGID_9_" gradientUnits="userSpaceOnUse" x1="149.3047" y1="218.9668" x2="357.6618" y2="163.1421">
			<stop  offset="0" style="stop-color:#FFFFFF"/>
			<stop  offset="1" style="stop-color:#959595"/>
		</linearGradient>
		<path fill-rule="evenodd" clip-rule="evenodd" fill="url(#SVGID_9_)" d="M316.4,355.65c-5.267,2.966-10.917,5.267-16.95,6.899
			c-28.767,7.7-57.834-2.467-87.2-30.5c-29.3-28.066-50.283-65.767-62.95-113.1c-12.667-47.3-13.333-90.417-2-129.35
			c11.4-39,31.483-62.35,60.25-70.05c28.767-7.733,57.8,2.45,87.101,30.55c29.333,28.033,50.333,65.7,63,113
			c12.1,45.233,13.233,86.65,3.399,124.25c-0.467,1.733-0.95,3.467-1.45,5.2c-3.466,11.867-7.767,22.267-12.899,31.2l-15.65,20.85
			L316.4,355.65z M204.55,24.15c-26.466,7.1-44.75,29.133-54.85,66.1c-10.1,37-9.1,78.1,3,123.3
			c12.133,45.2,31.816,81.3,59.05,108.3c27.233,26.967,54.083,36.9,80.55,29.801c26.4-7.067,44.667-29.101,54.8-66.101
			c10.134-37,9.134-78.1-3-123.3c-12.1-45.2-31.783-81.3-59.05-108.3C257.783,27.017,230.95,17.083,204.55,24.15z"/>
		<path fill-rule="evenodd" clip-rule="evenodd" fill-opacity="0.2" d="M46.15,331.25c0.4,0.434,0.817,0.884,1.25,1.35
			c18.467,18.9,36.567,25.967,54.3,21.2l47.25-12.649c3.933,3.466,8.033,6.767,12.3,9.899c38.434,28.434,77.95,37.217,118.55,26.351
			l13.351-3.601c1.033-0.233,2.083-0.5,3.149-0.8c33.066-8.833,56.934-32.533,71.601-71.1c14.733-38.5,15.983-80.567,3.75-126.2
			l-5.051-18.85c-0.066-0.3-0.133-0.6-0.199-0.9c-7.467-27.8-17.801-52.45-31-73.95c16.399,23.933,28.983,52.3,37.75,85.1
			c13.333,49.667,13.983,94.95,1.949,135.85c-11.966,40.866-33.083,65.366-63.35,73.5c-6.8,2.5-15.384,4.934-25.75,7.3
			c-11.233,2.6-21.333,4.333-30.3,5.2c-8.434,0.8-18.25-0.033-29.45-2.5c-8.533-1.867-17.083-4.5-25.65-7.9
			c-6.366-2.467-14.633-6.95-24.8-13.45c-9.5-6-15.316-10.199-17.45-12.6c-1.767-1.434-3.367-2.783-4.8-4.05l-36.9,9.899
			c-8.867,2.367-13.617,3.617-14.25,3.75c-2.433,0.467-5.517,0.601-9.25,0.4c-3.633-0.2-8.383-1.733-14.25-4.6
			c-4.1-1.967-9.05-4.784-14.85-8.45c-3.733-2.367-9.533-8.233-17.4-17.601L46.15,331.25z"/>
		<linearGradient id="SVGID_10_" gradientUnits="userSpaceOnUse" x1="136.6729" y1="351.2441" x2="285.0268" y2="311.5056">
			<stop  offset="0" style="stop-color:#868686"/>
			<stop  offset="1" style="stop-color:#AFAFAF"/>
		</linearGradient>
		<path fill-rule="evenodd" clip-rule="evenodd" fill="url(#SVGID_10_)" d="M122.8,299.45c1.6,1.267,2.75,2.383,3.45,3.35
			c4.433,6.4,8.7,11.566,12.8,15.5c4.267,4.101,11.5,9.917,21.7,17.45c0.167,0.134,0.35,0.267,0.55,0.4l24.75,15.6
			c0,0.033,0.017,0.05,0.05,0.05l27.25,10.7l0.101,0.025c0.17,0.062,0.337,0.12,0.5,0.175c10.1,3.533,22.416,4.684,36.95,3.45
			c5.3-0.4,10.05-1.034,14.25-1.9c11.433,2.134,22.649,1.733,33.649-1.2l0.101,0.25l-26.9,7.15l-0.05-0.2
			c-36.667,9.833-72.601,1.05-107.8-26.35C148.083,331.3,134.3,316.483,122.8,299.45z"/>
		<linearGradient id="SVGID_11_" gradientUnits="userSpaceOnUse" x1="43.8652" y1="332.0039" x2="134.435" y2="307.7476">
			<stop  offset="0.0039" style="stop-color:#9E9E9E"/>
			<stop  offset="1" style="stop-color:#999999"/>
		</linearGradient>
		<path fill-rule="evenodd" clip-rule="evenodd" fill="url(#SVGID_11_)" d="M136.15,329.05c1.767,1.867,3.583,3.684,5.45,5.45
			l-41.45,11.1c-15.533,4.167-31.566-2.616-48.1-20.35c-5.6-6-10.716-12.667-15.35-20c1.466,1.566,3.033,3.217,4.7,4.95
			c9.533,9.8,15.867,15.717,19,17.75c3.3,2.166,7.533,4.416,12.7,6.75c5.767,2.566,10.2,4.066,13.3,4.5
			c1.167,0.133,2.533,0.184,4.1,0.149c2.267-0.033,4.933-0.3,8-0.8c3.633-0.566,7.017-1.267,10.15-2.1L136.15,329.05z"/>
	</g>
</g>
</svg>
