<?xml version="1.0" encoding="utf-8"?>
<!-- Generator: Adobe Illustrator 16.0.0, SVG Export Plug-In . SVG Version: 6.00 Build 0)  -->
<!DOCTYPE svg PUBLIC "-//W3C//DTD SVG 1.1//EN" "http://www.w3.org/Graphics/SVG/1.1/DTD/svg11.dtd">
<svg version="1.1" id="Layer_1" xmlns="http://www.w3.org/2000/svg" xmlns:xlink="http://www.w3.org/1999/xlink" x="0px" y="0px"
	 width="386px" height="386px" viewBox="0 0 386 386" enable-background="new 0 0 386 386" xml:space="preserve">
<g>
	<g>
		<linearGradient id="SVGID_1_" gradientUnits="userSpaceOnUse" x1="192.9995" y1="-20.2002" x2="192.9995" y2="156.9998">
			<stop  offset="0" style="stop-color:#6BCCEC"/>
			<stop  offset="1" style="stop-color:#5CC5E5"/>
		</linearGradient>
		<path fill-rule="evenodd" clip-rule="evenodd" fill="url(#SVGID_1_)" d="M386,134.35c-1.9,0.566-3.833,1.117-5.8,1.65
			c-0.9,0.233-1.8,0.483-2.7,0.75V75.5c0-18.5-6.55-34.3-19.65-47.4C344.783,15.033,329,8.5,310.5,8.5h-235
			c-18.5,0-34.3,6.533-47.4,19.6C15.033,41.2,8.5,57,8.5,75.5v58.85c-2.933-0.867-5.767-1.733-8.5-2.6V70
			c0-19.333,6.833-35.833,20.5-49.5S50.667,0,70,0h246c19.333,0,35.833,6.833,49.5,20.5S386,50.667,386,70V134.35z"/>
		<linearGradient id="SVGID_2_" gradientUnits="userSpaceOnUse" x1="192.9995" y1="-10" x2="192.9995" y2="158.7">
			<stop  offset="0" style="stop-color:#9FDCEE"/>
			<stop  offset="1" style="stop-color:#93DAEE"/>
		</linearGradient>
		<path fill-rule="evenodd" clip-rule="evenodd" fill="url(#SVGID_2_)" d="M377.5,136.75c-4.434,1.2-8.934,2.35-13.5,3.45V81
			c0-16.3-5.767-30.217-17.3-41.75C335.2,27.75,321.3,22,305,22H81c-16.3,0-30.217,5.75-41.75,17.25C27.75,50.783,22,64.7,22,81
			v57.1c-2.6-0.7-5.183-1.4-7.75-2.1c-1.967-0.533-3.883-1.083-5.75-1.65V75.5c0-18.5,6.533-34.3,19.6-47.4
			C41.2,15.033,57,8.5,75.5,8.5h235c18.5,0,34.283,6.533,47.35,19.6C370.95,41.2,377.5,57,377.5,75.5V136.75z"/>
		<linearGradient id="SVGID_3_" gradientUnits="userSpaceOnUse" x1="192.9995" y1="20.2876" x2="192.9995" y2="158.7126">
			<stop  offset="0" style="stop-color:#6ACBEC"/>
			<stop  offset="1" style="stop-color:#5CC7E7"/>
		</linearGradient>
		<path fill-rule="evenodd" clip-rule="evenodd" fill="url(#SVGID_3_)" d="M364,140.2C316.833,151.4,261.25,157,197.25,157
			c-67.867,0-126.283-6.3-175.25-18.9V81c0-16.3,5.75-30.217,17.25-41.75C50.783,27.75,64.7,22,81,22h224
			c16.3,0,30.2,5.75,41.7,17.25C358.233,50.783,364,64.7,364,81V140.2z"/>
		<linearGradient id="SVGID_4_" gradientUnits="userSpaceOnUse" x1="192.9995" y1="132.1499" x2="192.9995" y2="385.6499">
			<stop  offset="0" style="stop-color:#2CACD1"/>
			<stop  offset="1" style="stop-color:#59D0F0"/>
		</linearGradient>
		<path fill-rule="evenodd" clip-rule="evenodd" fill="url(#SVGID_4_)" d="M386,134.35V316c0,19.333-6.833,35.833-20.5,49.5
			S335.333,386,316,386H70c-19.333,0-35.833-6.833-49.5-20.5S0,335.333,0,316V131.75c2.733,0.867,5.567,1.733,8.5,2.6V310.5
			c0,18.5,6.533,34.283,19.6,47.35C41.2,370.95,57,377.5,75.5,377.5h235c18.5,0,34.283-6.55,47.35-19.65
			C370.95,344.783,377.5,329,377.5,310.5V136.75c0.9-0.267,1.8-0.517,2.7-0.75C382.167,135.467,384.1,134.917,386,134.35z"/>
		<linearGradient id="SVGID_5_" gradientUnits="userSpaceOnUse" x1="192.9995" y1="132.1499" x2="192.9995" y2="379.6499">
			<stop  offset="0" style="stop-color:#7ACCE2"/>
			<stop  offset="1" style="stop-color:#99E4F7"/>
		</linearGradient>
		<path fill-rule="evenodd" clip-rule="evenodd" fill="url(#SVGID_5_)" d="M22,138.1V305c0,16.3,5.75,30.2,17.25,41.7
			C50.783,358.233,64.7,364,81,364h224c16.3,0,30.2-5.767,41.7-17.3c11.533-11.5,17.3-25.4,17.3-41.7V140.2
			c4.566-1.1,9.066-2.25,13.5-3.45V310.5c0,18.5-6.55,34.283-19.65,47.35C344.783,370.95,329,377.5,310.5,377.5h-235
			c-18.5,0-34.3-6.55-47.4-19.65C15.033,344.783,8.5,329,8.5,310.5V134.35c1.867,0.566,3.783,1.117,5.75,1.65
			C16.817,136.7,19.4,137.4,22,138.1z"/>
		<linearGradient id="SVGID_6_" gradientUnits="userSpaceOnUse" x1="192.9995" y1="137.4502" x2="192.9995" y2="364.6502">
			<stop  offset="0" style="stop-color:#2BB3D9"/>
			<stop  offset="1" style="stop-color:#5CD5F4"/>
		</linearGradient>
		<path fill-rule="evenodd" clip-rule="evenodd" fill="url(#SVGID_6_)" d="M22,138.1C70.967,150.7,129.383,157,197.25,157
			c64,0,119.583-5.6,166.75-16.8V305c0,16.3-5.767,30.2-17.3,41.7C335.2,358.233,321.3,364,305,364H81
			c-16.3,0-30.217-5.767-41.75-17.3C27.75,335.2,22,321.3,22,305V138.1z"/>
	</g>
</g>
<g>
	<path fill-rule="evenodd" clip-rule="evenodd" fill="#FFFFFF" d="M191.7,109.65H251.6c0.067,0,0.117,0,0.15,0
		c15.767,0,29.2,5.583,40.3,16.75c11.134,11.2,16.7,24.7,16.7,40.5c0,15.8-5.566,29.284-16.7,40.45
		c-8.967,9.034-19.45,14.434-31.45,16.2c0.034,0.066,0.067,0.15,0.101,0.25c11.967,1.733,22.416,7.101,31.35,16.101
		c11.134,11.199,16.7,24.699,16.7,40.5c0,15.8-5.566,29.283-16.7,40.449c-11.1,11.2-24.533,16.801-40.3,16.801
		c-0.066,0-0.116,0-0.15,0h-86v-0.101c-23.567-1.166-43.85-9.7-60.85-25.6c-18.267-17.033-27.4-37.601-27.4-61.7
		c0-2.9,0.133-5.767,0.4-8.6V99.7h0.55c0.467-14.167,6.017-26.367,16.65-36.6c11.133-10.6,24.566-15.9,40.3-15.9
		c15.767,0,29.2,5.3,40.3,15.9c11.133,10.7,16.7,23.566,16.7,38.6C192.25,104.433,192.067,107.083,191.7,109.65z"/>
</g>
<g>
	<linearGradient id="SVGID_7_" gradientUnits="userSpaceOnUse" x1="193.25" y1="72.7002" x2="193.25" y2="311.7002">
		<stop  offset="0" style="stop-color:#DDF9FC"/>
		<stop  offset="0.5098" style="stop-color:#A3ECFB"/>
		<stop  offset="1" style="stop-color:#69D6F5"/>
	</linearGradient>
	<path fill-rule="evenodd" clip-rule="evenodd" fill="url(#SVGID_7_)" d="M165.75,135.95h85.5c8.434,0,15.616,2.983,21.55,8.95
		c5.967,5.967,8.95,13.15,8.95,21.55c0,8.4-2.983,15.583-8.95,21.55c-5.934,5.967-13.116,8.95-21.55,8.95h-85.5v53h85.5
		c0.167,0,0.316,0,0.45,0c8.233,0.1,15.267,3.083,21.1,8.95c5.967,5.966,8.95,13.149,8.95,21.55c0,8.399-2.983,15.583-8.95,21.55
		c-5.833,5.866-12.866,8.85-21.1,8.95c-0.134,0-0.283,0-0.45,0h-85.5v-0.05c-16.467-0.534-30.633-6.733-42.5-18.601
		c-11.933-12-18.083-26.366-18.45-43.1h-0.05V103.95c0-0.1,0-0.2,0-0.3c0.067-8.267,3.033-15.35,8.9-21.25
		c5.967-5.967,13.167-8.95,21.6-8.95s15.617,2.983,21.55,8.95c5.9,5.9,8.883,12.983,8.95,21.25V135.95z"/>
</g>
</svg>
