<?xml version="1.0" encoding="utf-8"?>
<!-- Generator: Adobe Illustrator 16.0.0, SVG Export Plug-In . SVG Version: 6.00 Build 0)  -->
<!DOCTYPE svg PUBLIC "-//W3C//DTD SVG 1.1//EN" "http://www.w3.org/Graphics/SVG/1.1/DTD/svg11.dtd">
<svg version="1.1" id="Layer_1" xmlns="http://www.w3.org/2000/svg" xmlns:xlink="http://www.w3.org/1999/xlink" x="0px" y="0px"
	 width="231px" height="231px" viewBox="0 0 231 231" enable-background="new 0 0 231 231" xml:space="preserve">
<g>
	<g>
		
			<linearGradient id="SVGID_1_" gradientUnits="userSpaceOnUse" x1="94.4995" y1="-0.3999" x2="94.4995" y2="230.6001" gradientTransform="matrix(1 0 0 1.0035 21 0)">
			<stop  offset="0" style="stop-color:#C4C4C4"/>
			<stop  offset="0.5098" style="stop-color:#E0E0E0"/>
			<stop  offset="1" style="stop-color:#FFFFFF"/>
		</linearGradient>
		<path fill-rule="evenodd" clip-rule="evenodd" fill="url(#SVGID_1_)" d="M198.5,8.128h-166c-6.633,0-12.3,2.341-17,7.024
			c-4.667,4.716-7,10.402-7,17.059v96.333c7.933-10.168,17.283-19.834,28.05-29c40.733-34.554,89.884-51.83,147.45-51.83
			c13.267,0,26.1,0.92,38.5,2.759V32.212c0-6.657-2.35-12.343-7.05-17.059C210.783,10.469,205.134,8.128,198.5,8.128z M198,0
			c9.1,0,16.866,3.228,23.3,9.684c6.467,6.489,9.7,14.299,9.7,23.431v164.772c0,9.131-3.233,16.925-9.7,23.381
			c-6.434,6.489-14.2,9.733-23.3,9.733H33c-9.1,0-16.883-3.244-23.35-9.733C3.217,214.812,0,207.018,0,197.887V33.115
			c0-9.132,3.217-16.942,9.65-23.431C16.117,3.228,23.9,0,33,0H198z"/>
		
			<linearGradient id="SVGID_2_" gradientUnits="userSpaceOnUse" x1="94.4995" y1="8.1001" x2="94.4995" y2="127.9001" gradientTransform="matrix(1 0 0 1.0035 21 0)">
			<stop  offset="0" style="stop-color:#EFEFEF"/>
			<stop  offset="0.5059" style="stop-color:#EAEAEA"/>
			<stop  offset="1" style="stop-color:#E6E6E6"/>
		</linearGradient>
		<path fill-rule="evenodd" clip-rule="evenodd" fill="url(#SVGID_2_)" d="M198.5,8.128c6.634,0,12.283,2.341,16.95,7.024
			c4.7,4.716,7.05,10.402,7.05,17.059v18.263c-12.4-1.839-25.233-2.759-38.5-2.759c-57.566,0-106.717,17.276-147.45,51.83
			c-10.767,9.165-20.117,18.832-28.05,29V32.212c0-6.657,2.333-12.343,7-17.059c4.7-4.684,10.367-7.024,17-7.024H198.5z"/>
	</g>
</g>
<g>
	
		<radialGradient id="SVGID_3_" cx="116.7432" cy="166.8076" r="91.2897" gradientTransform="matrix(1 0 0 0.5729 0 71.241)" gradientUnits="userSpaceOnUse">
		<stop  offset="0" style="stop-color:#E3413E"/>
		<stop  offset="1" style="stop-color:#C92027"/>
	</radialGradient>
	<path fill-rule="evenodd" clip-rule="evenodd" fill="url(#SVGID_3_)" d="M202,143.15c0.667,5.8,1.134,12.916,1.4,21.35
		c0.333,12.434-0.2,21.533-1.601,27.3c-1.767,7.2-3.899,12.033-6.399,14.5c-3,2.967-8.4,4.867-16.2,5.7
		c-8.167,0.833-30.117,1.184-65.85,1.05c-35.667-0.133-56.867-0.649-63.6-1.55c-5.9-0.833-10.167-3.017-12.8-6.55
		c-1.167-1.566-2.767-5.384-4.8-11.45c-1.533-11.866-2.25-20.116-2.15-24.75c0-5.333,0.017-9.55,0.05-12.65
		c0.1-5.6,0.417-9.866,0.95-12.8c1.1-5.899,2.6-10.2,4.5-12.899c3.7-5.2,9.783-8.067,18.25-8.601
		c11.833-0.733,34.333-1.149,67.5-1.25c35.8-0.1,56.9,0.417,63.3,1.55c6.101,1.101,10.7,4.233,13.8,9.4
		C200.25,134.767,201.467,138.65,202,143.15z"/>
</g>
<g>
	<g>
		<path fill-rule="evenodd" clip-rule="evenodd" fill="#FFFFFF" d="M188.85,174.5h-20.3v8.4c0.033,1.433,0.533,2.683,1.5,3.75
			c0.767,0.833,1.634,1.316,2.601,1.449l0.85,0.101h0.1l0.9-0.101c0.267-0.033,0.517-0.083,0.75-0.149l0.7-0.3l0.3-0.2
			c0.3-0.233,0.583-0.5,0.85-0.8c1-1.067,1.517-2.267,1.551-3.601v-4.55h10.199v5.6c-0.1,3.334-1.6,6.167-4.5,8.5
			c-1.8,1.434-3.833,2.434-6.1,3l-2.2,0.4c-0.8,0.1-1.616,0.15-2.45,0.15c-0.033,0-0.066,0-0.1,0l-2.85-0.2
			c-3-0.434-5.65-1.55-7.95-3.351c-2.9-2.333-4.4-5.166-4.5-8.5v-23c0.1-3.333,1.6-6.149,4.5-8.449
			c2.3-1.834,4.934-2.95,7.899-3.351l2.9-0.25c0.033,0,0.066,0,0.1,0c0.801,0,1.601,0.05,2.4,0.15l2.2,0.45
			c2.267,0.533,4.316,1.533,6.149,3c2.9,2.3,4.4,5.116,4.5,8.449V174.5z M69.2,143.5v52H57.7v-52h-12v-9.25h36.25v9.25H69.2z
			 M92.85,149.85v35c0.033,0.7,0.217,1.334,0.55,1.9c0.567,0.9,1.467,1.316,2.7,1.25c1.233-0.1,2.433-0.7,3.6-1.8
			c1.133-1.033,1.9-2.267,2.3-3.7c0.033,0,0.05-0.033,0.05-0.1V149.85h9.9V195.4h-9.9v-5.2c-2.566,2.6-5.267,4.383-8.1,5.35
			c-1.167,0.367-2.25,0.566-3.25,0.601c-0.8,0.033-1.55-0.034-2.25-0.2c-1.3-0.334-2.434-1.017-3.4-2.05
			c-1.533-1.7-2.233-3.983-2.1-6.851H82.9v-37.2H92.85z M131.45,134.25v21c0.467-1.267,1.25-2.4,2.35-3.4
			c1.934-1.699,4.267-2.55,7-2.55c2.767,0,5.117,0.851,7.05,2.55c1.9,1.667,2.884,3.667,2.95,6v30.75
			c-0.066,2-1.05,3.684-2.95,5.051c-1.933,1.466-4.283,2.199-7.05,2.199c-2.733,0-5.066-0.733-7-2.199
			c-1.1-0.834-1.883-1.767-2.35-2.801v4.601H120.7v-61.2H131.45z M174.5,156.8l-0.95-0.149l-0.7,0.1c-1.066,0.167-2,0.717-2.8,1.65
			c-0.967,1.1-1.467,2.383-1.5,3.85v4.25h10.101v-4.4c-0.067-1.399-0.584-2.633-1.551-3.699c-0.366-0.434-0.75-0.784-1.149-1.051
			l-0.7-0.35C175.017,156.9,174.767,156.833,174.5,156.8z M132.75,158.4c-0.833,1.066-1.267,2.316-1.3,3.75V183.3
			c0.033,1.3,0.467,2.417,1.3,3.351c0.9,0.933,1.967,1.399,3.2,1.399c1.3,0,2.383-0.467,3.25-1.399
			c0.866-0.934,1.316-2.051,1.35-3.351V162.15c-0.033-1.434-0.483-2.684-1.35-3.75c-0.867-1.101-1.95-1.65-3.25-1.65
			C134.717,156.75,133.65,157.3,132.75,158.4z"/>
		<path fill-rule="evenodd" clip-rule="evenodd" d="M189.7,112.5h-14.5v-6.3c-3.767,3.133-7.717,5.283-11.851,6.45
			c-5.366,1.467-9.466,0.817-12.3-1.95c-2.066-2.034-3.017-4.767-2.85-8.2h-0.05v-52h13.6v49.3c0.033,0.833,0.283,1.583,0.75,2.25
			c0.833,1.1,2.15,1.6,3.95,1.5c1.833-0.1,3.6-0.8,5.3-2.1c1.7-1.267,2.833-2.75,3.4-4.45c0.033-0.033,0.05-0.083,0.05-0.15V50.5
			h14.5V112.5z M135.2,64.65V98.7c-0.134,4-2.134,7.4-6,10.2c-4,2.934-8.834,4.4-14.5,4.4c-5.667,0-10.5-1.466-14.5-4.4
			c-3.867-2.8-5.867-6.2-6-10.2V64.65c0.133-4.233,2.133-7.833,6-10.8c4-3.067,8.833-4.6,14.5-4.6c5.666,0,10.5,1.533,14.5,4.6
			C133.066,56.817,135.066,60.417,135.2,64.65z M114.65,59l-1.05,0.1c-1.467,0.233-2.767,0.933-3.9,2.1
			c-1.3,1.4-1.983,3.05-2.05,4.95v31c0.033,1.767,0.717,3.283,2.05,4.55c1.066,1,2.267,1.6,3.6,1.8l1.35,0.15l1.4-0.15
			c1.3-0.2,2.467-0.8,3.5-1.8c1.367-1.233,2.066-2.684,2.101-4.35V66c-0.067-1.833-0.767-3.433-2.101-4.8
			c-1.033-1.1-2.2-1.784-3.5-2.05L114.65,59z M93.7,28.8L74.25,77.4v35.4H58.7V76.95L38.2,28.8h16.65l11.1,32.85L78,28.8H93.7z"/>
	</g>
</g>
</svg>
